<?xml version="1.0"?>
<!-- Generated by SVGo -->
<svg width="336.327mm" height="145.827mm"
     viewBox="0.000 0.000 336.327 145.827"
     xmlns="http://www.w3.org/2000/svg" 
     xmlns:xlink="http://www.w3.org/1999/xlink">
<polygon points="329.327,5.001 329.483,5.007 329.639,5.025 329.793,5.056 329.945,5.098 330.092,5.153 330.234,5.218 330.371,5.295 330.502,5.382 330.625,5.480 330.741,5.586 330.847,5.702 330.945,5.825 331.032,5.956 331.109,6.093 331.174,6.235 331.229,6.382 331.271,6.534 331.302,6.688 331.320,6.844 331.327,7.001 331.327,138.827 331.320,138.983 331.302,139.139 331.271,139.293 331.229,139.445 331.174,139.592 331.109,139.734 331.032,139.871 330.945,140.002 330.847,140.125 330.741,140.241 330.625,140.347 330.502,140.445 330.371,140.532 330.234,140.609 330.092,140.674 329.945,140.729 329.793,140.771 329.639,140.802 329.483,140.820 329.326,140.827 7.001,140.827 6.844,140.820 6.688,140.802 6.534,140.771 6.382,140.729 6.235,140.674 6.093,140.609 5.956,140.532 5.825,140.445 5.702,140.347 5.586,140.241 5.480,140.125 5.382,140.002 5.295,139.871 5.218,139.734 5.153,139.592 5.098,139.445 5.056,139.293 5.025,139.139 5.007,138.983 5.000,138.827 5.001,7.001 5.007,6.844 5.025,6.688 5.056,6.534 5.098,6.382 5.153,6.235 5.218,6.093 5.295,5.956 5.382,5.825 5.480,5.702 5.586,5.586 5.702,5.480 5.825,5.382 5.956,5.295 6.093,5.218 6.235,5.153 6.382,5.098 6.534,5.056 6.688,5.025 6.844,5.007 7.001,5.000" style="fill:none;stroke-width:0.050000mm;stroke:black"/>
<polygon points="7.691,136.875 7.413,137.017 7.191,137.239 7.049,137.517 7.001,137.827 7.049,138.136 7.191,138.414 7.413,138.636 7.691,138.778 8.001,138.827 8.310,138.778 8.588,138.636 8.810,138.414 8.952,138.136 9.001,137.827 8.952,137.517 8.810,137.239 8.588,137.017 8.310,136.875 8.001,136.827" style="fill:none;stroke-width:0.050000mm;stroke:black"/>
<polygon points="71.757,136.875 71.478,137.017 71.257,137.239 71.115,137.517 71.066,137.827 71.115,138.136 71.257,138.414 71.478,138.636 71.757,138.778 72.066,138.827 72.375,138.778 72.653,138.636 72.875,138.414 73.017,138.136 73.066,137.827 73.017,137.517 72.875,137.239 72.653,137.017 72.375,136.875 72.066,136.827" style="fill:none;stroke-width:0.050000mm;stroke:black"/>
<polygon points="135.822,136.875 135.543,137.017 135.322,137.239 135.180,137.517 135.131,137.827 135.180,138.136 135.322,138.414 135.543,138.636 135.822,138.778 136.131,138.827 136.440,138.778 136.719,138.636 136.940,138.414 137.082,138.136 137.131,137.827 137.082,137.517 136.940,137.239 136.719,137.017 136.440,136.875 136.131,136.827" style="fill:none;stroke-width:0.050000mm;stroke:black"/>
<polygon points="199.887,136.875 199.608,137.017 199.387,137.239 199.245,137.517 199.196,137.827 199.245,138.136 199.387,138.414 199.608,138.636 199.887,138.778 200.196,138.827 200.505,138.778 200.784,138.636 201.005,138.414 201.147,138.136 201.196,137.827 201.147,137.517 201.005,137.239 200.784,137.017 200.505,136.875 200.196,136.827" style="fill:none;stroke-width:0.050000mm;stroke:black"/>
<polygon points="263.952,136.875 263.674,137.017 263.452,137.239 263.310,137.517 263.261,137.827 263.310,138.136 263.452,138.414 263.674,138.636 263.952,138.778 264.261,138.827 264.570,138.778 264.849,138.636 265.070,138.414 265.212,138.136 265.261,137.827 265.212,137.517 265.070,137.239 264.849,137.017 264.570,136.875 264.261,136.827" style="fill:none;stroke-width:0.050000mm;stroke:black"/>
<polygon points="328.017,136.875 327.739,137.017 327.517,137.239 327.375,137.517 327.327,137.827 327.375,138.136 327.517,138.414 327.739,138.636 328.017,138.778 328.327,138.827 328.636,138.778 328.914,138.636 329.136,138.414 329.278,138.136 329.327,137.827 329.278,137.517 329.136,137.239 328.914,137.017 328.636,136.875 328.327,136.827" style="fill:none;stroke-width:0.050000mm;stroke:black"/>
<polygon points="282.462,96.725 282.462,115.775 263.412,115.775 263.412,134.827 320.564,134.827 320.564,115.775 301.514,115.775 301.514,96.725" style="fill:none;stroke-width:0.050000mm;stroke:black"/>
<polygon points="10.999,34.812 10.999,53.864 11.000,53.864 11.000,72.912 10.999,72.912 10.999,91.964 11.000,91.964 11.000,130.063 258.652,130.063 258.652,111.014 277.702,111.014 277.702,91.964 296.752,91.964 296.752,34.812" style="fill:none;stroke-width:0.050000mm;stroke:black"/>
<polygon points="306.275,34.812 306.275,111.014 325.327,111.014 325.327,34.812" style="fill:none;stroke-width:0.050000mm;stroke:black"/>
<polygon points="7.691,93.600 7.413,93.742 7.191,93.963 7.049,94.242 7.001,94.551 7.049,94.860 7.191,95.139 7.413,95.360 7.691,95.502 8.001,95.551 8.310,95.502 8.588,95.360 8.810,95.139 8.952,94.860 9.001,94.551 8.952,94.242 8.810,93.963 8.588,93.742 8.310,93.600 8.001,93.551" style="fill:none;stroke-width:0.050000mm;stroke:black"/>
<polygon points="328.017,93.600 327.739,93.742 327.517,93.963 327.375,94.242 327.327,94.551 327.375,94.860 327.517,95.139 327.739,95.360 328.017,95.502 328.327,95.551 328.636,95.502 328.914,95.360 329.136,95.139 329.278,94.860 329.327,94.551 329.278,94.242 329.136,93.963 328.914,93.742 328.636,93.600 328.327,93.551" style="fill:none;stroke-width:0.050000mm;stroke:black"/>
<polygon points="7.691,50.325 7.413,50.467 7.191,50.688 7.049,50.967 7.001,51.276 7.049,51.585 7.191,51.864 7.413,52.085 7.691,52.227 8.001,52.276 8.310,52.227 8.588,52.085 8.810,51.864 8.952,51.585 9.001,51.276 8.952,50.967 8.810,50.688 8.588,50.467 8.310,50.325 8.001,50.276" style="fill:none;stroke-width:0.050000mm;stroke:black"/>
<polygon points="328.017,50.325 327.739,50.467 327.517,50.688 327.375,50.967 327.327,51.276 327.375,51.585 327.517,51.864 327.739,52.085 328.017,52.227 328.327,52.276 328.636,52.227 328.914,52.085 329.136,51.864 329.278,51.585 329.327,51.276 329.278,50.967 329.136,50.688 328.914,50.467 328.636,50.325 328.327,50.276" style="fill:none;stroke-width:0.050000mm;stroke:black"/>
<polygon points="306.275,10.999 306.275,30.052 325.327,30.052 325.327,10.999" style="fill:none;stroke-width:0.050000mm;stroke:black"/>
<polygon points="277.700,10.999 277.700,30.052 296.752,30.052 296.752,10.999" style="fill:none;stroke-width:0.050000mm;stroke:black"/>
<polygon points="196.737,10.999 196.737,30.052 272.939,30.052 272.939,10.999" style="fill:none;stroke-width:0.050000mm;stroke:black"/>
<polygon points="115.775,10.999 115.775,30.052 191.977,30.052 191.977,10.999" style="fill:none;stroke-width:0.050000mm;stroke:black"/>
<polygon points="34.812,10.999 34.812,30.052 111.014,30.052 111.014,10.999" style="fill:none;stroke-width:0.050000mm;stroke:black"/>
<polygon points="10.999,10.999 10.999,30.052 30.052,30.052 30.052,10.999" style="fill:none;stroke-width:0.050000mm;stroke:black"/>
<polygon points="328.017,7.049 327.739,7.191 327.517,7.413 327.375,7.691 327.327,8.000 327.375,8.310 327.517,8.588 327.739,8.810 328.017,8.952 328.327,9.001 328.636,8.952 328.914,8.810 329.136,8.588 329.278,8.310 329.327,8.001 329.278,7.691 329.136,7.413 328.914,7.191 328.636,7.049 328.327,7.001" style="fill:none;stroke-width:0.050000mm;stroke:black"/>
<polygon points="263.952,7.049 263.674,7.191 263.452,7.413 263.310,7.691 263.261,8.000 263.310,8.310 263.452,8.588 263.674,8.810 263.952,8.952 264.261,9.001 264.570,8.952 264.849,8.810 265.070,8.588 265.212,8.310 265.261,8.001 265.212,7.691 265.070,7.413 264.849,7.191 264.570,7.049 264.261,7.001" style="fill:none;stroke-width:0.050000mm;stroke:black"/>
<polygon points="199.887,7.049 199.608,7.191 199.387,7.413 199.245,7.691 199.196,8.000 199.245,8.310 199.387,8.588 199.608,8.810 199.887,8.952 200.196,9.001 200.505,8.952 200.784,8.810 201.005,8.588 201.147,8.310 201.196,8.001 201.147,7.691 201.005,7.413 200.784,7.191 200.505,7.049 200.196,7.001" style="fill:none;stroke-width:0.050000mm;stroke:black"/>
<polygon points="135.822,7.049 135.543,7.191 135.322,7.413 135.180,7.691 135.131,8.000 135.180,8.310 135.322,8.588 135.543,8.810 135.822,8.952 136.131,9.001 136.440,8.952 136.719,8.810 136.940,8.588 137.082,8.310 137.131,8.001 137.082,7.691 136.940,7.413 136.719,7.191 136.440,7.049 136.131,7.001" style="fill:none;stroke-width:0.050000mm;stroke:black"/>
<polygon points="71.757,7.049 71.478,7.191 71.257,7.413 71.115,7.691 71.066,8.000 71.115,8.310 71.257,8.588 71.478,8.810 71.757,8.952 72.066,9.001 72.375,8.952 72.653,8.810 72.875,8.588 73.017,8.310 73.066,8.001 73.017,7.691 72.875,7.413 72.653,7.191 72.375,7.049 72.066,7.001" style="fill:none;stroke-width:0.050000mm;stroke:black"/>
<polygon points="7.691,7.049 7.413,7.191 7.191,7.413 7.049,7.691 7.001,8.000 7.049,8.310 7.191,8.588 7.413,8.810 7.691,8.952 8.001,9.000 8.310,8.952 8.588,8.810 8.810,8.588 8.952,8.310 9.001,8.000 8.952,7.691 8.810,7.413 8.588,7.191 8.310,7.049 8.001,7.000" style="fill:none;stroke-width:0.050000mm;stroke:black"/>
</svg>
