<?xml version="1.0"?>
<!-- Generated by SVGo -->
<svg width="336.327mm" height="145.827mm"
     viewBox="0.000 0.000 336.327 145.827"
     xmlns="http://www.w3.org/2000/svg" 
     xmlns:xlink="http://www.w3.org/1999/xlink">
<polygon points="329.327,5.001 329.483,5.007 329.639,5.025 329.793,5.056 329.945,5.098 330.092,5.153 330.234,5.218 330.371,5.295 330.502,5.382 330.625,5.480 330.741,5.586 330.847,5.702 330.945,5.825 331.032,5.956 331.109,6.093 331.174,6.235 331.229,6.382 331.271,6.534 331.302,6.688 331.320,6.844 331.327,7.001 331.327,138.827 331.320,138.983 331.302,139.139 331.271,139.293 331.229,139.445 331.174,139.592 331.109,139.734 331.032,139.871 330.945,140.002 330.847,140.125 330.741,140.241 330.625,140.347 330.502,140.445 330.371,140.532 330.234,140.609 330.092,140.674 329.945,140.729 329.793,140.771 329.639,140.802 329.483,140.820 329.326,140.827 7.001,140.827 6.844,140.820 6.688,140.802 6.534,140.771 6.382,140.729 6.235,140.674 6.093,140.609 5.956,140.532 5.825,140.445 5.702,140.347 5.586,140.241 5.480,140.125 5.382,140.002 5.295,139.871 5.218,139.734 5.153,139.592 5.098,139.445 5.056,139.293 5.025,139.139 5.007,138.983 5.000,138.827 5.001,7.001 5.007,6.844 5.025,6.688 5.056,6.534 5.098,6.382 5.153,6.235 5.218,6.093 5.295,5.956 5.382,5.825 5.480,5.702 5.586,5.586 5.702,5.480 5.825,5.382 5.956,5.295 6.093,5.218 6.235,5.153 6.382,5.098 6.534,5.056 6.688,5.025 6.844,5.007 7.001,5.000" style="fill:none;stroke-width:0.050000mm;stroke:black"/>
<polygon points="7.691,136.875 7.413,137.017 7.191,137.239 7.049,137.517 7.001,137.827 7.049,138.136 7.191,138.414 7.413,138.636 7.691,138.778 8.001,138.827 8.310,138.778 8.588,138.636 8.810,138.414 8.952,138.136 9.001,137.827 8.952,137.517 8.810,137.239 8.588,137.017 8.310,136.875 8.001,136.827" style="fill:none;stroke-width:0.050000mm;stroke:black"/>
<polygon points="71.757,136.875 71.478,137.017 71.257,137.239 71.115,137.517 71.066,137.827 71.115,138.136 71.257,138.414 71.478,138.636 71.757,138.778 72.066,138.827 72.375,138.778 72.653,138.636 72.875,138.414 73.017,138.136 73.066,137.827 73.017,137.517 72.875,137.239 72.653,137.017 72.375,136.875 72.066,136.827" style="fill:none;stroke-width:0.050000mm;stroke:black"/>
<polygon points="135.822,136.875 135.543,137.017 135.322,137.239 135.180,137.517 135.131,137.827 135.180,138.136 135.322,138.414 135.543,138.636 135.822,138.778 136.131,138.827 136.440,138.778 136.719,138.636 136.940,138.414 137.082,138.136 137.131,137.827 137.082,137.517 136.940,137.239 136.719,137.017 136.440,136.875 136.131,136.827" style="fill:none;stroke-width:0.050000mm;stroke:black"/>
<polygon points="199.887,136.875 199.608,137.017 199.387,137.239 199.245,137.517 199.196,137.827 199.245,138.136 199.387,138.414 199.608,138.636 199.887,138.778 200.196,138.827 200.505,138.778 200.784,138.636 201.005,138.414 201.147,138.136 201.196,137.827 201.147,137.517 201.005,137.239 200.784,137.017 200.505,136.875 200.196,136.827" style="fill:none;stroke-width:0.050000mm;stroke:black"/>
<polygon points="263.952,136.875 263.674,137.017 263.452,137.239 263.310,137.517 263.261,137.827 263.310,138.136 263.452,138.414 263.674,138.636 263.952,138.778 264.261,138.827 264.570,138.778 264.849,138.636 265.070,138.414 265.212,138.136 265.261,137.827 265.212,137.517 265.070,137.239 264.849,137.017 264.570,136.875 264.261,136.827" style="fill:none;stroke-width:0.050000mm;stroke:black"/>
<polygon points="328.017,136.875 327.739,137.017 327.517,137.239 327.375,137.517 327.327,137.827 327.375,138.136 327.517,138.414 327.739,138.636 328.017,138.778 328.327,138.827 328.636,138.778 328.914,138.636 329.136,138.414 329.278,138.136 329.327,137.827 329.278,137.517 329.136,137.239 328.914,137.017 328.636,136.875 328.327,136.827" style="fill:none;stroke-width:0.050000mm;stroke:black"/>
<polygon points="304.038,118.301 304.038,132.301 318.038,132.301 318.038,118.301" style="fill:none;stroke-width:0.050000mm;stroke:black"/>
<polygon points="284.988,118.301 284.988,132.301 298.988,132.301 298.988,118.301" style="fill:none;stroke-width:0.050000mm;stroke:black"/>
<polygon points="265.938,118.301 265.938,132.301 279.938,132.301 279.938,118.301" style="fill:none;stroke-width:0.050000mm;stroke:black"/>
<polygon points="146.876,113.538 146.876,118.238 100.101,118.238 100.101,115.008 93.351,115.008 93.351,118.238 92.526,118.238 92.526,121.038 93.351,121.038 93.351,127.308 95.076,127.308 95.076,128.508 98.376,128.508 98.376,127.308 100.101,127.308 100.101,122.838 146.876,122.838 146.876,127.538 160.876,127.538 160.876,122.838 207.651,122.838 207.651,127.308 209.376,127.308 209.376,128.508 212.676,128.508 212.676,127.308 214.401,127.308 214.401,121.038 215.226,121.038 215.226,118.238 214.401,118.238 214.401,115.008 207.651,115.008 207.651,118.238 160.876,118.238 160.876,113.538" style="fill:none;stroke-width:0.050000mm;stroke:black"/>
<polygon points="242.126,113.538 242.126,127.538 256.126,127.538 256.126,113.538" style="fill:none;stroke-width:0.050000mm;stroke:black"/>
<polygon points="223.076,113.538 223.076,127.538 237.076,127.538 237.076,113.538" style="fill:none;stroke-width:0.050000mm;stroke:black"/>
<polygon points="65.913,113.538 65.913,127.538 79.913,127.538 79.913,113.538" style="fill:none;stroke-width:0.050000mm;stroke:black"/>
<polygon points="42.101,113.538 42.101,127.538 56.101,127.538 56.101,113.538" style="fill:none;stroke-width:0.050000mm;stroke:black"/>
<polygon points="18.288,113.538 18.288,127.538 32.288,127.538 32.288,113.538" style="fill:none;stroke-width:0.050000mm;stroke:black"/>
<polygon points="284.988,99.251 284.988,113.251 298.988,113.251 298.988,99.251" style="fill:none;stroke-width:0.050000mm;stroke:black"/>
<polygon points="25.432,94.488 25.432,99.188 23.907,99.188 23.907,95.958 17.157,95.958 17.157,99.188 16.332,99.188 16.332,101.988 17.157,101.988 17.157,108.258 18.882,108.258 18.882,109.458 22.182,109.458 22.182,108.258 23.907,108.258 23.907,103.788 25.432,103.788 25.432,108.488 39.432,108.488 39.432,103.788 40.957,103.788 40.957,108.258 42.682,108.258 42.682,109.458 45.982,109.458 45.982,108.258 47.707,108.258 47.707,101.988 48.532,101.988 48.532,99.188 47.707,99.188 47.707,95.958 40.957,95.958 40.957,99.188 39.432,99.188 39.432,94.488" style="fill:none;stroke-width:0.050000mm;stroke:black"/>
<polygon points="308.801,94.488 308.801,108.488 322.801,108.488 322.801,94.488" style="fill:none;stroke-width:0.050000mm;stroke:black"/>
<polygon points="254.032,94.488 254.032,108.488 268.032,108.488 268.032,94.488" style="fill:none;stroke-width:0.050000mm;stroke:black"/>
<polygon points="227.838,94.488 227.838,108.488 241.838,108.488 241.838,94.488" style="fill:none;stroke-width:0.050000mm;stroke:black"/>
<polygon points="208.788,94.488 208.788,108.488 222.788,108.488 222.788,94.488" style="fill:none;stroke-width:0.050000mm;stroke:black"/>
<polygon points="189.738,94.488 189.738,108.488 203.738,108.488 203.738,94.488" style="fill:none;stroke-width:0.050000mm;stroke:black"/>
<polygon points="170.688,94.488 170.688,108.488 184.688,108.488 184.688,94.488" style="fill:none;stroke-width:0.050000mm;stroke:black"/>
<polygon points="151.638,94.488 151.638,108.488 165.638,108.488 165.638,94.488" style="fill:none;stroke-width:0.050000mm;stroke:black"/>
<polygon points="132.588,94.488 132.588,108.488 146.588,108.488 146.588,94.488" style="fill:none;stroke-width:0.050000mm;stroke:black"/>
<polygon points="113.538,94.488 113.538,108.488 127.538,108.488 127.538,94.488" style="fill:none;stroke-width:0.050000mm;stroke:black"/>
<polygon points="94.488,94.488 94.488,108.488 108.488,108.488 108.488,94.488" style="fill:none;stroke-width:0.050000mm;stroke:black"/>
<polygon points="75.438,94.488 75.438,108.488 89.438,108.488 89.438,94.488" style="fill:none;stroke-width:0.050000mm;stroke:black"/>
<polygon points="56.388,94.488 56.388,108.488 70.388,108.488 70.388,94.488" style="fill:none;stroke-width:0.050000mm;stroke:black"/>
<polygon points="7.691,93.600 7.413,93.742 7.191,93.963 7.049,94.242 7.001,94.551 7.049,94.860 7.191,95.139 7.413,95.360 7.691,95.502 8.001,95.551 8.310,95.502 8.588,95.360 8.810,95.139 8.952,94.860 9.001,94.551 8.952,94.242 8.810,93.963 8.588,93.742 8.310,93.600 8.001,93.551" style="fill:none;stroke-width:0.050000mm;stroke:black"/>
<polygon points="328.017,93.600 327.739,93.742 327.517,93.963 327.375,94.242 327.327,94.551 327.375,94.860 327.517,95.139 327.739,95.360 328.017,95.502 328.327,95.551 328.636,95.502 328.914,95.360 329.136,95.139 329.278,94.860 329.327,94.551 329.278,94.242 329.136,93.963 328.914,93.742 328.636,93.600 328.327,93.551" style="fill:none;stroke-width:0.050000mm;stroke:black"/>
<polygon points="308.801,75.438 308.801,89.438 322.801,89.438 322.801,75.438" style="fill:none;stroke-width:0.050000mm;stroke:black"/>
<polygon points="256.412,75.438 256.412,89.438 270.413,89.438 270.413,75.438" style="fill:none;stroke-width:0.050000mm;stroke:black"/>
<polygon points="237.363,75.438 237.363,89.438 251.363,89.438 251.363,75.438" style="fill:none;stroke-width:0.050000mm;stroke:black"/>
<polygon points="218.313,75.438 218.313,89.438 232.313,89.438 232.313,75.438" style="fill:none;stroke-width:0.050000mm;stroke:black"/>
<polygon points="199.263,75.438 199.263,89.438 213.263,89.438 213.263,75.438" style="fill:none;stroke-width:0.050000mm;stroke:black"/>
<polygon points="180.213,75.438 180.213,89.438 194.213,89.438 194.213,75.438" style="fill:none;stroke-width:0.050000mm;stroke:black"/>
<polygon points="161.163,75.438 161.163,89.438 175.163,89.438 175.163,75.438" style="fill:none;stroke-width:0.050000mm;stroke:black"/>
<polygon points="142.113,75.438 142.113,89.438 156.113,89.438 156.113,75.438" style="fill:none;stroke-width:0.050000mm;stroke:black"/>
<polygon points="123.063,75.438 123.063,89.438 137.063,89.438 137.063,75.438" style="fill:none;stroke-width:0.050000mm;stroke:black"/>
<polygon points="104.013,75.438 104.013,89.438 118.013,89.438 118.013,75.438" style="fill:none;stroke-width:0.050000mm;stroke:black"/>
<polygon points="84.963,75.438 84.963,89.438 98.963,89.438 98.963,75.438" style="fill:none;stroke-width:0.050000mm;stroke:black"/>
<polygon points="65.913,75.438 65.913,89.438 79.913,89.438 79.913,75.438" style="fill:none;stroke-width:0.050000mm;stroke:black"/>
<polygon points="46.863,75.438 46.863,89.438 60.863,89.438 60.863,75.438" style="fill:none;stroke-width:0.050000mm;stroke:black"/>
<polygon points="20.669,75.438 20.669,89.438 34.669,89.438 34.669,75.438" style="fill:none;stroke-width:0.050000mm;stroke:black"/>
<polygon points="284.344,56.813 284.344,57.638 278.074,57.638 278.074,59.363 276.874,59.363 276.874,62.663 278.074,62.663 278.074,64.388 282.544,64.388 282.544,65.913 277.844,65.913 277.844,79.913 282.544,79.913 282.544,81.438 278.074,81.438 278.074,83.163 276.874,83.163 276.874,86.463 278.074,86.463 278.074,88.188 284.344,88.188 284.344,89.013 287.144,89.013 287.144,88.188 290.374,88.188 290.374,81.438 287.144,81.438 287.144,79.913 291.844,79.913 291.844,65.913 287.144,65.913 287.144,64.388 290.374,64.388 290.374,57.638 287.144,57.638 287.144,56.813" style="fill:none;stroke-width:0.050000mm;stroke:black"/>
<polygon points="308.801,56.388 308.801,70.388 322.801,70.388 322.801,56.388" style="fill:none;stroke-width:0.050000mm;stroke:black"/>
<polygon points="251.651,56.388 251.651,70.388 265.651,70.388 265.651,56.388" style="fill:none;stroke-width:0.050000mm;stroke:black"/>
<polygon points="232.601,56.388 232.601,70.388 246.601,70.388 246.601,56.388" style="fill:none;stroke-width:0.050000mm;stroke:black"/>
<polygon points="213.551,56.388 213.551,70.388 227.551,70.388 227.551,56.388" style="fill:none;stroke-width:0.050000mm;stroke:black"/>
<polygon points="194.501,56.388 194.501,70.388 208.501,70.388 208.501,56.388" style="fill:none;stroke-width:0.050000mm;stroke:black"/>
<polygon points="175.451,56.388 175.451,70.388 189.451,70.388 189.451,56.388" style="fill:none;stroke-width:0.050000mm;stroke:black"/>
<polygon points="156.401,56.388 156.401,70.388 170.401,70.388 170.401,56.388" style="fill:none;stroke-width:0.050000mm;stroke:black"/>
<polygon points="137.351,56.388 137.351,70.388 151.351,70.388 151.351,56.388" style="fill:none;stroke-width:0.050000mm;stroke:black"/>
<polygon points="118.301,56.388 118.301,70.388 132.301,70.388 132.301,56.388" style="fill:none;stroke-width:0.050000mm;stroke:black"/>
<polygon points="99.251,56.388 99.251,70.388 113.251,70.388 113.251,56.388" style="fill:none;stroke-width:0.050000mm;stroke:black"/>
<polygon points="80.201,56.388 80.201,70.388 94.201,70.388 94.201,56.388" style="fill:none;stroke-width:0.050000mm;stroke:black"/>
<polygon points="61.151,56.388 61.151,70.388 75.151,70.388 75.151,56.388" style="fill:none;stroke-width:0.050000mm;stroke:black"/>
<polygon points="42.101,56.388 42.101,70.388 56.101,70.388 56.101,56.388" style="fill:none;stroke-width:0.050000mm;stroke:black"/>
<polygon points="18.288,56.388 18.288,70.388 32.288,70.388 32.288,56.388" style="fill:none;stroke-width:0.050000mm;stroke:black"/>
<polygon points="270.701,37.338 270.701,42.038 269.176,42.038 269.176,38.808 262.426,38.808 262.426,42.038 261.601,42.038 261.601,44.838 262.426,44.838 262.426,51.108 264.151,51.108 264.151,52.308 267.451,52.308 267.451,51.108 269.176,51.108 269.176,46.638 270.701,46.638 270.701,51.338 284.701,51.338 284.701,46.638 286.226,46.638 286.226,51.108 287.951,51.108 287.951,52.308 291.251,52.308 291.251,51.108 292.976,51.108 292.976,44.838 293.801,44.838 293.801,42.038 292.976,42.038 292.976,38.808 286.226,38.808 286.226,42.038 284.701,42.038 284.701,37.338" style="fill:none;stroke-width:0.050000mm;stroke:black"/>
<polygon points="7.691,50.325 7.413,50.467 7.191,50.688 7.049,50.967 7.001,51.276 7.049,51.585 7.191,51.864 7.413,52.085 7.691,52.227 8.001,52.276 8.310,52.227 8.588,52.085 8.810,51.864 8.952,51.585 9.001,51.276 8.952,50.967 8.810,50.688 8.588,50.467 8.310,50.325 8.001,50.276" style="fill:none;stroke-width:0.050000mm;stroke:black"/>
<polygon points="328.017,50.325 327.739,50.467 327.517,50.688 327.375,50.967 327.327,51.276 327.375,51.585 327.517,51.864 327.739,52.085 328.017,52.227 328.327,52.276 328.636,52.227 328.914,52.085 329.136,51.864 329.278,51.585 329.327,51.276 329.278,50.967 329.136,50.688 328.914,50.467 328.636,50.325 328.327,50.276" style="fill:none;stroke-width:0.050000mm;stroke:black"/>
<polygon points="308.801,37.338 308.801,51.338 322.801,51.338 322.801,37.338" style="fill:none;stroke-width:0.050000mm;stroke:black"/>
<polygon points="242.126,37.338 242.126,51.338 256.126,51.338 256.126,37.338" style="fill:none;stroke-width:0.050000mm;stroke:black"/>
<polygon points="223.076,37.338 223.076,51.338 237.076,51.338 237.076,37.338" style="fill:none;stroke-width:0.050000mm;stroke:black"/>
<polygon points="204.026,37.338 204.026,51.338 218.026,51.338 218.026,37.338" style="fill:none;stroke-width:0.050000mm;stroke:black"/>
<polygon points="184.976,37.338 184.976,51.338 198.976,51.338 198.976,37.338" style="fill:none;stroke-width:0.050000mm;stroke:black"/>
<polygon points="165.926,37.338 165.926,51.338 179.926,51.338 179.926,37.338" style="fill:none;stroke-width:0.050000mm;stroke:black"/>
<polygon points="146.876,37.338 146.876,51.338 160.876,51.338 160.876,37.338" style="fill:none;stroke-width:0.050000mm;stroke:black"/>
<polygon points="127.825,37.338 127.825,51.338 141.826,51.338 141.826,37.338" style="fill:none;stroke-width:0.050000mm;stroke:black"/>
<polygon points="108.775,37.338 108.775,51.338 122.775,51.338 122.775,37.338" style="fill:none;stroke-width:0.050000mm;stroke:black"/>
<polygon points="89.726,37.338 89.726,51.338 103.726,51.338 103.726,37.338" style="fill:none;stroke-width:0.050000mm;stroke:black"/>
<polygon points="70.676,37.338 70.676,51.338 84.676,51.338 84.676,37.338" style="fill:none;stroke-width:0.050000mm;stroke:black"/>
<polygon points="51.626,37.338 51.626,51.338 65.626,51.338 65.626,37.338" style="fill:none;stroke-width:0.050000mm;stroke:black"/>
<polygon points="32.576,37.338 32.576,51.338 46.576,51.338 46.576,37.338" style="fill:none;stroke-width:0.050000mm;stroke:black"/>
<polygon points="13.525,37.338 13.525,51.338 27.526,51.338 27.526,37.338" style="fill:none;stroke-width:0.050000mm;stroke:black"/>
<polygon points="308.801,13.525 308.801,27.526 322.801,27.526 322.801,13.525" style="fill:none;stroke-width:0.050000mm;stroke:black"/>
<polygon points="280.226,13.525 280.226,27.526 294.226,27.526 294.226,13.525" style="fill:none;stroke-width:0.050000mm;stroke:black"/>
<polygon points="256.412,13.525 256.412,27.526 270.413,27.526 270.413,13.525" style="fill:none;stroke-width:0.050000mm;stroke:black"/>
<polygon points="237.363,13.525 237.363,27.526 251.363,27.526 251.363,13.525" style="fill:none;stroke-width:0.050000mm;stroke:black"/>
<polygon points="218.313,13.525 218.313,27.526 232.313,27.526 232.313,13.525" style="fill:none;stroke-width:0.050000mm;stroke:black"/>
<polygon points="199.263,13.525 199.263,27.526 213.263,27.526 213.263,13.525" style="fill:none;stroke-width:0.050000mm;stroke:black"/>
<polygon points="175.451,13.525 175.451,27.526 189.451,27.526 189.451,13.525" style="fill:none;stroke-width:0.050000mm;stroke:black"/>
<polygon points="156.401,13.525 156.401,27.526 170.401,27.526 170.401,13.525" style="fill:none;stroke-width:0.050000mm;stroke:black"/>
<polygon points="137.351,13.525 137.351,27.526 151.351,27.526 151.351,13.525" style="fill:none;stroke-width:0.050000mm;stroke:black"/>
<polygon points="118.301,13.525 118.301,27.526 132.301,27.526 132.301,13.525" style="fill:none;stroke-width:0.050000mm;stroke:black"/>
<polygon points="94.488,13.525 94.488,27.526 108.488,27.526 108.488,13.525" style="fill:none;stroke-width:0.050000mm;stroke:black"/>
<polygon points="75.438,13.525 75.438,27.526 89.438,27.526 89.438,13.525" style="fill:none;stroke-width:0.050000mm;stroke:black"/>
<polygon points="56.388,13.525 56.388,27.526 70.388,27.526 70.388,13.525" style="fill:none;stroke-width:0.050000mm;stroke:black"/>
<polygon points="37.338,13.525 37.338,27.526 51.338,27.526 51.338,13.525" style="fill:none;stroke-width:0.050000mm;stroke:black"/>
<polygon points="13.525,13.525 13.525,27.526 27.526,27.526 27.526,13.525" style="fill:none;stroke-width:0.050000mm;stroke:black"/>
<polygon points="328.017,7.049 327.739,7.191 327.517,7.413 327.375,7.691 327.327,8.000 327.375,8.310 327.517,8.588 327.739,8.810 328.017,8.952 328.327,9.001 328.636,8.952 328.914,8.810 329.136,8.588 329.278,8.310 329.327,8.001 329.278,7.691 329.136,7.413 328.914,7.191 328.636,7.049 328.327,7.001" style="fill:none;stroke-width:0.050000mm;stroke:black"/>
<polygon points="263.952,7.049 263.674,7.191 263.452,7.413 263.310,7.691 263.261,8.000 263.310,8.310 263.452,8.588 263.674,8.810 263.952,8.952 264.261,9.001 264.570,8.952 264.849,8.810 265.070,8.588 265.212,8.310 265.261,8.001 265.212,7.691 265.070,7.413 264.849,7.191 264.570,7.049 264.261,7.001" style="fill:none;stroke-width:0.050000mm;stroke:black"/>
<polygon points="199.887,7.049 199.608,7.191 199.387,7.413 199.245,7.691 199.196,8.000 199.245,8.310 199.387,8.588 199.608,8.810 199.887,8.952 200.196,9.001 200.505,8.952 200.784,8.810 201.005,8.588 201.147,8.310 201.196,8.001 201.147,7.691 201.005,7.413 200.784,7.191 200.505,7.049 200.196,7.001" style="fill:none;stroke-width:0.050000mm;stroke:black"/>
<polygon points="135.822,7.049 135.543,7.191 135.322,7.413 135.180,7.691 135.131,8.000 135.180,8.310 135.322,8.588 135.543,8.810 135.822,8.952 136.131,9.001 136.440,8.952 136.719,8.810 136.940,8.588 137.082,8.310 137.131,8.001 137.082,7.691 136.940,7.413 136.719,7.191 136.440,7.049 136.131,7.001" style="fill:none;stroke-width:0.050000mm;stroke:black"/>
<polygon points="71.757,7.049 71.478,7.191 71.257,7.413 71.115,7.691 71.066,8.000 71.115,8.310 71.257,8.588 71.478,8.810 71.757,8.952 72.066,9.001 72.375,8.952 72.653,8.810 72.875,8.588 73.017,8.310 73.066,8.001 73.017,7.691 72.875,7.413 72.653,7.191 72.375,7.049 72.066,7.001" style="fill:none;stroke-width:0.050000mm;stroke:black"/>
<polygon points="7.691,7.049 7.413,7.191 7.191,7.413 7.049,7.691 7.001,8.000 7.049,8.310 7.191,8.588 7.413,8.810 7.691,8.952 8.001,9.000 8.310,8.952 8.588,8.810 8.810,8.588 8.952,8.310 9.001,8.000 8.952,7.691 8.810,7.413 8.588,7.191 8.310,7.049 8.001,7.000" style="fill:none;stroke-width:0.050000mm;stroke:black"/>
</svg>
