  0
SECTION
  2
HEADER
  9
$ACADVER
  1
AC1009
  9
$EXTMIN
 10
0.0
 20
0.0
 30
0.0
  9
$EXTMAX
 10
1000.0
 20
1000.0
 30
0.0
  9
$FILLMODE
 70
 0
  9
$SPLFRAME
 70
 1
  0
ENDSEC
  0
SECTION
  2
TABLES
  0
TABLE
  2
LAYER
 70
1
  0
LAYER
  2
0
 70
     0
 62
     7
  6
CONTINUOUS
  0
ENDTAB
  0
ENDSEC
  0
SECTION
  2
ENTITIES
  0
LINE
  8
0
 62
     0
 10
324.422
 20
136.077
 30
0.0
 11
324.578
 21
136.07
 31
0.0
  0
LINE
  8
0
 62
     0
 10
324.578
 20
136.07
 30
0.0
 11
324.733
 21
136.052
 31
0.0
  0
LINE
  8
0
 62
     0
 10
324.733
 20
136.052
 30
0.0
 11
324.888
 21
136.022
 31
0.0
  0
LINE
  8
0
 62
     0
 10
324.888
 20
136.022
 30
0.0
 11
325.039
 21
135.979
 31
0.0
  0
LINE
  8
0
 62
     0
 10
325.039
 20
135.979
 30
0.0
 11
325.187
 21
135.924
 31
0.0
  0
LINE
  8
0
 62
     0
 10
325.187
 20
135.924
 30
0.0
 11
325.328
 21
135.859
 31
0.0
  0
LINE
  8
0
 62
     0
 10
325.328
 20
135.859
 30
0.0
 11
325.465
 21
135.782
 31
0.0
  0
LINE
  8
0
 62
     0
 10
325.465
 20
135.782
 30
0.0
 11
325.596
 21
135.695
 31
0.0
  0
LINE
  8
0
 62
     0
 10
325.596
 20
135.695
 30
0.0
 11
325.72
 21
135.598
 31
0.0
  0
LINE
  8
0
 62
     0
 10
325.72
 20
135.598
 30
0.0
 11
325.836
 21
135.491
 31
0.0
  0
LINE
  8
0
 62
     0
 10
325.836
 20
135.491
 30
0.0
 11
325.942
 21
135.376
 31
0.0
  0
LINE
  8
0
 62
     0
 10
325.942
 20
135.376
 30
0.0
 11
326.04
 21
135.253
 31
0.0
  0
LINE
  8
0
 62
     0
 10
326.04
 20
135.253
 30
0.0
 11
326.126
 21
135.122
 31
0.0
  0
LINE
  8
0
 62
     0
 10
326.126
 20
135.122
 30
0.0
 11
326.204
 21
134.984
 31
0.0
  0
LINE
  8
0
 62
     0
 10
326.204
 20
134.984
 30
0.0
 11
326.268
 21
134.842
 31
0.0
  0
LINE
  8
0
 62
     0
 10
326.268
 20
134.842
 30
0.0
 11
326.324
 21
134.696
 31
0.0
  0
LINE
  8
0
 62
     0
 10
326.324
 20
134.696
 30
0.0
 11
326.365
 21
134.543
 31
0.0
  0
LINE
  8
0
 62
     0
 10
326.365
 20
134.543
 30
0.0
 11
326.397
 21
134.39
 31
0.0
  0
LINE
  8
0
 62
     0
 10
326.397
 20
134.39
 30
0.0
 11
326.415
 21
134.233
 31
0.0
  0
LINE
  8
0
 62
     0
 10
326.415
 20
134.233
 30
0.0
 11
326.421
 21
134.076
 31
0.0
  0
LINE
  8
0
 62
     0
 10
326.421
 20
134.076
 30
0.0
 11
326.421
 21
2.25034
 31
0.0
  0
LINE
  8
0
 62
     0
 10
326.421
 20
2.25034
 30
0.0
 11
326.415
 21
2.09462
 31
0.0
  0
LINE
  8
0
 62
     0
 10
326.415
 20
2.09462
 30
0.0
 11
326.397
 21
1.9389
 31
0.0
  0
LINE
  8
0
 62
     0
 10
326.397
 20
1.9389
 30
0.0
 11
326.365
 21
1.78456
 31
0.0
  0
LINE
  8
0
 62
     0
 10
326.365
 20
1.78456
 30
0.0
 11
326.324
 21
1.63298
 31
0.0
  0
LINE
  8
0
 62
     0
 10
326.324
 20
1.63298
 30
0.0
 11
326.268
 21
1.48553
 31
0.0
  0
LINE
  8
0
 62
     0
 10
326.268
 20
1.48553
 30
0.0
 11
326.204
 21
1.34359
 31
0.0
  0
LINE
  8
0
 62
     0
 10
326.204
 20
1.34359
 30
0.0
 11
326.126
 21
1.20716
 31
0.0
  0
LINE
  8
0
 62
     0
 10
326.126
 20
1.20716
 30
0.0
 11
326.04
 21
1.07625
 31
0.0
  0
LINE
  8
0
 62
     0
 10
326.04
 20
1.07625
 30
0.0
 11
325.942
 21
0.952225
 31
0.0
  0
LINE
  8
0
 62
     0
 10
325.942
 20
0.952225
 30
0.0
 11
325.836
 21
0.836468
 31
0.0
  0
LINE
  8
0
 62
     0
 10
325.836
 20
0.836468
 30
0.0
 11
325.72
 21
0.730359
 31
0.0
  0
LINE
  8
0
 62
     0
 10
325.72
 20
0.730359
 30
0.0
 11
325.596
 21
0.63252
 31
0.0
  0
LINE
  8
0
 62
     0
 10
325.596
 20
0.63252
 30
0.0
 11
325.465
 21
0.545705
 31
0.0
  0
LINE
  8
0
 62
     0
 10
325.465
 20
0.545705
 30
0.0
 11
325.328
 21
0.468535
 31
0.0
  0
LINE
  8
0
 62
     0
 10
325.328
 20
0.468535
 30
0.0
 11
325.187
 21
0.403765
 31
0.0
  0
LINE
  8
0
 62
     0
 10
325.187
 20
0.403765
 30
0.0
 11
325.039
 21
0.348644
 31
0.0
  0
LINE
  8
0
 62
     0
 10
325.039
 20
0.348644
 30
0.0
 11
324.888
 21
0.307303
 31
0.0
  0
LINE
  8
0
 62
     0
 10
324.888
 20
0.307303
 30
0.0
 11
324.733
 21
0.275608
 31
0.0
  0
LINE
  8
0
 62
     0
 10
324.733
 20
0.275608
 30
0.0
 11
324.578
 21
0.257693
 31
0.0
  0
LINE
  8
0
 62
     0
 10
324.578
 20
0.257693
 30
0.0
 11
324.42
 21
0.250803
 31
0.0
  0
LINE
  8
0
 62
     0
 10
324.42
 20
0.250803
 30
0.0
 11
2.096
 21
0.250803
 31
0.0
  0
LINE
  8
0
 62
     0
 10
2.096
 20
0.250803
 30
0.0
 11
1.9389
 21
0.257693
 31
0.0
  0
LINE
  8
0
 62
     0
 10
1.9389
 20
0.257693
 30
0.0
 11
1.7818
 21
0.275608
 31
0.0
  0
LINE
  8
0
 62
     0
 10
1.7818
 20
0.275608
 30
0.0
 11
1.62884
 21
0.307303
 31
0.0
  0
LINE
  8
0
 62
     0
 10
1.62884
 20
0.307303
 30
0.0
 11
1.47588
 21
0.348644
 31
0.0
  0
LINE
  8
0
 62
     0
 10
1.47588
 20
0.348644
 30
0.0
 11
1.32981
 21
0.403765
 31
0.0
  0
LINE
  8
0
 62
     0
 10
1.32981
 20
0.403765
 30
0.0
 11
1.18787
 21
0.468535
 31
0.0
  0
LINE
  8
0
 62
     0
 10
1.18787
 20
0.468535
 30
0.0
 11
1.05006
 21
0.545705
 31
0.0
  0
LINE
  8
0
 62
     0
 10
1.05006
 20
0.545705
 30
0.0
 11
0.919152
 21
0.63252
 31
0.0
  0
LINE
  8
0
 62
     0
 10
0.919152
 20
0.63252
 30
0.0
 11
0.796505
 21
0.730359
 31
0.0
  0
LINE
  8
0
 62
     0
 10
0.796505
 20
0.730359
 30
0.0
 11
0.680752
 21
0.836468
 31
0.0
  0
LINE
  8
0
 62
     0
 10
0.680752
 20
0.836468
 30
0.0
 11
0.574643
 21
0.952225
 31
0.0
  0
LINE
  8
0
 62
     0
 10
0.574643
 20
0.952225
 30
0.0
 11
0.4768
 21
1.07625
 31
0.0
  0
LINE
  8
0
 62
     0
 10
0.4768
 20
1.07625
 30
0.0
 11
0.389985
 21
1.20716
 31
0.0
  0
LINE
  8
0
 62
     0
 10
0.389985
 20
1.20716
 30
0.0
 11
0.312815
 21
1.34359
 31
0.0
  0
LINE
  8
0
 62
     0
 10
0.312815
 20
1.34359
 30
0.0
 11
0.248047
 21
1.48553
 31
0.0
  0
LINE
  8
0
 62
     0
 10
0.248047
 20
1.48553
 30
0.0
 11
0.192925
 21
1.63298
 31
0.0
  0
LINE
  8
0
 62
     0
 10
0.192925
 20
1.63298
 30
0.0
 11
0.150206
 21
1.78456
 31
0.0
  0
LINE
  8
0
 62
     0
 10
0.150206
 20
1.78456
 30
0.0
 11
0.119889
 21
1.9389
 31
0.0
  0
LINE
  8
0
 62
     0
 10
0.119889
 20
1.9389
 30
0.0
 11
0.101975
 21
2.09462
 31
0.0
  0
LINE
  8
0
 62
     0
 10
0.101975
 20
2.09462
 30
0.0
 11
0.0950846
 21
2.25034
 31
0.0
  0
LINE
  8
0
 62
     0
 10
0.0950846
 20
2.25034
 30
0.0
 11
0.0950846
 21
134.076
 31
0.0
  0
LINE
  8
0
 62
     0
 10
0.0950846
 20
134.076
 30
0.0
 11
0.101975
 21
134.233
 31
0.0
  0
LINE
  8
0
 62
     0
 10
0.101975
 20
134.233
 30
0.0
 11
0.119889
 21
134.39
 31
0.0
  0
LINE
  8
0
 62
     0
 10
0.119889
 20
134.39
 30
0.0
 11
0.150206
 21
134.543
 31
0.0
  0
LINE
  8
0
 62
     0
 10
0.150206
 20
134.543
 30
0.0
 11
0.192925
 21
134.696
 31
0.0
  0
LINE
  8
0
 62
     0
 10
0.192925
 20
134.696
 30
0.0
 11
0.248047
 21
134.842
 31
0.0
  0
LINE
  8
0
 62
     0
 10
0.248047
 20
134.842
 30
0.0
 11
0.312815
 21
134.984
 31
0.0
  0
LINE
  8
0
 62
     0
 10
0.312815
 20
134.984
 30
0.0
 11
0.389985
 21
135.122
 31
0.0
  0
LINE
  8
0
 62
     0
 10
0.389985
 20
135.122
 30
0.0
 11
0.4768
 21
135.253
 31
0.0
  0
LINE
  8
0
 62
     0
 10
0.4768
 20
135.253
 30
0.0
 11
0.574643
 21
135.376
 31
0.0
  0
LINE
  8
0
 62
     0
 10
0.574643
 20
135.376
 30
0.0
 11
0.680752
 21
135.491
 31
0.0
  0
LINE
  8
0
 62
     0
 10
0.680752
 20
135.491
 30
0.0
 11
0.796505
 21
135.598
 31
0.0
  0
LINE
  8
0
 62
     0
 10
0.796505
 20
135.598
 30
0.0
 11
0.919152
 21
135.695
 31
0.0
  0
LINE
  8
0
 62
     0
 10
0.919152
 20
135.695
 30
0.0
 11
1.05006
 21
135.782
 31
0.0
  0
LINE
  8
0
 62
     0
 10
1.05006
 20
135.782
 30
0.0
 11
1.18787
 21
135.859
 31
0.0
  0
LINE
  8
0
 62
     0
 10
1.18787
 20
135.859
 30
0.0
 11
1.32981
 21
135.924
 31
0.0
  0
LINE
  8
0
 62
     0
 10
1.32981
 20
135.924
 30
0.0
 11
1.47588
 21
135.979
 31
0.0
  0
LINE
  8
0
 62
     0
 10
1.47588
 20
135.979
 30
0.0
 11
1.62884
 21
136.022
 31
0.0
  0
LINE
  8
0
 62
     0
 10
1.62884
 20
136.022
 30
0.0
 11
1.7818
 21
136.052
 31
0.0
  0
LINE
  8
0
 62
     0
 10
1.7818
 20
136.052
 30
0.0
 11
1.9389
 21
136.07
 31
0.0
  0
LINE
  8
0
 62
     0
 10
1.9389
 20
136.07
 30
0.0
 11
2.096
 21
136.077
 31
0.0
  0
LINE
  8
0
 62
     0
 10
2.096
 20
136.077
 30
0.0
 11
324.422
 21
136.077
 31
0.0
  0
LINE
  8
0
 62
     0
 10
2.78501
 20
4.20303
 30
0.0
 11
2.50803
 21
4.06107
 31
0.0
  0
LINE
  8
0
 62
     0
 10
2.50803
 20
4.06107
 30
0.0
 11
2.28617
 21
3.83921
 31
0.0
  0
LINE
  8
0
 62
     0
 10
2.28617
 20
3.83921
 30
0.0
 11
2.14285
 21
3.56087
 31
0.0
  0
LINE
  8
0
 62
     0
 10
2.14285
 20
3.56087
 30
0.0
 11
2.096
 21
3.25079
 31
0.0
  0
LINE
  8
0
 62
     0
 10
2.096
 20
3.25079
 30
0.0
 11
2.14285
 21
2.94211
 31
0.0
  0
LINE
  8
0
 62
     0
 10
2.14285
 20
2.94211
 30
0.0
 11
2.28617
 21
2.66375
 31
0.0
  0
LINE
  8
0
 62
     0
 10
2.28617
 20
2.66375
 30
0.0
 11
2.50803
 21
2.44189
 31
0.0
  0
LINE
  8
0
 62
     0
 10
2.50803
 20
2.44189
 30
0.0
 11
2.78501
 21
2.29995
 31
0.0
  0
LINE
  8
0
 62
     0
 10
2.78501
 20
2.29995
 30
0.0
 11
3.09507
 21
2.25034
 31
0.0
  0
LINE
  8
0
 62
     0
 10
3.09507
 20
2.25034
 30
0.0
 11
3.40513
 21
2.29995
 31
0.0
  0
LINE
  8
0
 62
     0
 10
3.40513
 20
2.29995
 30
0.0
 11
3.68212
 21
2.44189
 31
0.0
  0
LINE
  8
0
 62
     0
 10
3.68212
 20
2.44189
 30
0.0
 11
3.90398
 21
2.66375
 31
0.0
  0
LINE
  8
0
 62
     0
 10
3.90398
 20
2.66375
 30
0.0
 11
4.04594
 21
2.94211
 31
0.0
  0
LINE
  8
0
 62
     0
 10
4.04594
 20
2.94211
 30
0.0
 11
4.09554
 21
3.25079
 31
0.0
  0
LINE
  8
0
 62
     0
 10
4.09554
 20
3.25079
 30
0.0
 11
4.04594
 21
3.56087
 31
0.0
  0
LINE
  8
0
 62
     0
 10
4.04594
 20
3.56087
 30
0.0
 11
3.90398
 21
3.83921
 31
0.0
  0
LINE
  8
0
 62
     0
 10
3.90398
 20
3.83921
 30
0.0
 11
3.68212
 21
4.06107
 31
0.0
  0
LINE
  8
0
 62
     0
 10
3.68212
 20
4.06107
 30
0.0
 11
3.40513
 21
4.20303
 31
0.0
  0
LINE
  8
0
 62
     0
 10
3.40513
 20
4.20303
 30
0.0
 11
3.09507
 21
4.25125
 31
0.0
  0
LINE
  8
0
 62
     0
 10
3.09507
 20
4.25125
 30
0.0
 11
2.78501
 21
4.20303
 31
0.0
  0
LINE
  8
0
 62
     0
 10
66.8514
 20
4.20303
 30
0.0
 11
66.573
 21
4.06107
 31
0.0
  0
LINE
  8
0
 62
     0
 10
66.573
 20
4.06107
 30
0.0
 11
66.3512
 21
3.83921
 31
0.0
  0
LINE
  8
0
 62
     0
 10
66.3512
 20
3.83921
 30
0.0
 11
66.2093
 21
3.56087
 31
0.0
  0
LINE
  8
0
 62
     0
 10
66.2093
 20
3.56087
 30
0.0
 11
66.161
 21
3.25079
 31
0.0
  0
LINE
  8
0
 62
     0
 10
66.161
 20
3.25079
 30
0.0
 11
66.2093
 21
2.94211
 31
0.0
  0
LINE
  8
0
 62
     0
 10
66.2093
 20
2.94211
 30
0.0
 11
66.3512
 21
2.66375
 31
0.0
  0
LINE
  8
0
 62
     0
 10
66.3512
 20
2.66375
 30
0.0
 11
66.573
 21
2.44189
 31
0.0
  0
LINE
  8
0
 62
     0
 10
66.573
 20
2.44189
 30
0.0
 11
66.8514
 21
2.29995
 31
0.0
  0
LINE
  8
0
 62
     0
 10
66.8514
 20
2.29995
 30
0.0
 11
67.1601
 21
2.25034
 31
0.0
  0
LINE
  8
0
 62
     0
 10
67.1601
 20
2.25034
 30
0.0
 11
67.4702
 21
2.29995
 31
0.0
  0
LINE
  8
0
 62
     0
 10
67.4702
 20
2.29995
 30
0.0
 11
67.7471
 21
2.44189
 31
0.0
  0
LINE
  8
0
 62
     0
 10
67.7471
 20
2.44189
 30
0.0
 11
67.969
 21
2.66375
 31
0.0
  0
LINE
  8
0
 62
     0
 10
67.969
 20
2.66375
 30
0.0
 11
68.1108
 21
2.94211
 31
0.0
  0
LINE
  8
0
 62
     0
 10
68.1108
 20
2.94211
 30
0.0
 11
68.1605
 21
3.25079
 31
0.0
  0
LINE
  8
0
 62
     0
 10
68.1605
 20
3.25079
 30
0.0
 11
68.1108
 21
3.56087
 31
0.0
  0
LINE
  8
0
 62
     0
 10
68.1108
 20
3.56087
 30
0.0
 11
67.969
 21
3.83921
 31
0.0
  0
LINE
  8
0
 62
     0
 10
67.969
 20
3.83921
 30
0.0
 11
67.7471
 21
4.06107
 31
0.0
  0
LINE
  8
0
 62
     0
 10
67.7471
 20
4.06107
 30
0.0
 11
67.4702
 21
4.20303
 31
0.0
  0
LINE
  8
0
 62
     0
 10
67.4702
 20
4.20303
 30
0.0
 11
67.1601
 21
4.25125
 31
0.0
  0
LINE
  8
0
 62
     0
 10
67.1601
 20
4.25125
 30
0.0
 11
66.8514
 21
4.20303
 31
0.0
  0
LINE
  8
0
 62
     0
 10
130.917
 20
4.20303
 30
0.0
 11
130.638
 21
4.06107
 31
0.0
  0
LINE
  8
0
 62
     0
 10
130.638
 20
4.06107
 30
0.0
 11
130.416
 21
3.83921
 31
0.0
  0
LINE
  8
0
 62
     0
 10
130.416
 20
3.83921
 30
0.0
 11
130.274
 21
3.56087
 31
0.0
  0
LINE
  8
0
 62
     0
 10
130.274
 20
3.56087
 30
0.0
 11
130.226
 21
3.25079
 31
0.0
  0
LINE
  8
0
 62
     0
 10
130.226
 20
3.25079
 30
0.0
 11
130.274
 21
2.94211
 31
0.0
  0
LINE
  8
0
 62
     0
 10
130.274
 20
2.94211
 30
0.0
 11
130.416
 21
2.66375
 31
0.0
  0
LINE
  8
0
 62
     0
 10
130.416
 20
2.66375
 30
0.0
 11
130.638
 21
2.44189
 31
0.0
  0
LINE
  8
0
 62
     0
 10
130.638
 20
2.44189
 30
0.0
 11
130.917
 21
2.29995
 31
0.0
  0
LINE
  8
0
 62
     0
 10
130.917
 20
2.29995
 30
0.0
 11
131.225
 21
2.25034
 31
0.0
  0
LINE
  8
0
 62
     0
 10
131.225
 20
2.25034
 30
0.0
 11
131.535
 21
2.29995
 31
0.0
  0
LINE
  8
0
 62
     0
 10
131.535
 20
2.29995
 30
0.0
 11
131.814
 21
2.44189
 31
0.0
  0
LINE
  8
0
 62
     0
 10
131.814
 20
2.44189
 30
0.0
 11
132.034
 21
2.66375
 31
0.0
  0
LINE
  8
0
 62
     0
 10
132.034
 20
2.66375
 30
0.0
 11
132.176
 21
2.94211
 31
0.0
  0
LINE
  8
0
 62
     0
 10
132.176
 20
2.94211
 30
0.0
 11
132.226
 21
3.25079
 31
0.0
  0
LINE
  8
0
 62
     0
 10
132.226
 20
3.25079
 30
0.0
 11
132.176
 21
3.56087
 31
0.0
  0
LINE
  8
0
 62
     0
 10
132.176
 20
3.56087
 30
0.0
 11
132.034
 21
3.83921
 31
0.0
  0
LINE
  8
0
 62
     0
 10
132.034
 20
3.83921
 30
0.0
 11
131.814
 21
4.06107
 31
0.0
  0
LINE
  8
0
 62
     0
 10
131.814
 20
4.06107
 30
0.0
 11
131.535
 21
4.20303
 31
0.0
  0
LINE
  8
0
 62
     0
 10
131.535
 20
4.20303
 30
0.0
 11
131.225
 21
4.25125
 31
0.0
  0
LINE
  8
0
 62
     0
 10
131.225
 20
4.25125
 30
0.0
 11
130.917
 21
4.20303
 31
0.0
  0
LINE
  8
0
 62
     0
 10
194.981
 20
4.20303
 30
0.0
 11
194.703
 21
4.06107
 31
0.0
  0
LINE
  8
0
 62
     0
 10
194.703
 20
4.06107
 30
0.0
 11
194.481
 21
3.83921
 31
0.0
  0
LINE
  8
0
 62
     0
 10
194.481
 20
3.83921
 30
0.0
 11
194.339
 21
3.56087
 31
0.0
  0
LINE
  8
0
 62
     0
 10
194.339
 20
3.56087
 30
0.0
 11
194.291
 21
3.25079
 31
0.0
  0
LINE
  8
0
 62
     0
 10
194.291
 20
3.25079
 30
0.0
 11
194.339
 21
2.94211
 31
0.0
  0
LINE
  8
0
 62
     0
 10
194.339
 20
2.94211
 30
0.0
 11
194.481
 21
2.66375
 31
0.0
  0
LINE
  8
0
 62
     0
 10
194.481
 20
2.66375
 30
0.0
 11
194.703
 21
2.44189
 31
0.0
  0
LINE
  8
0
 62
     0
 10
194.703
 20
2.44189
 30
0.0
 11
194.981
 21
2.29995
 31
0.0
  0
LINE
  8
0
 62
     0
 10
194.981
 20
2.29995
 30
0.0
 11
195.29
 21
2.25034
 31
0.0
  0
LINE
  8
0
 62
     0
 10
195.29
 20
2.25034
 30
0.0
 11
195.6
 21
2.29995
 31
0.0
  0
LINE
  8
0
 62
     0
 10
195.6
 20
2.29995
 30
0.0
 11
195.878
 21
2.44189
 31
0.0
  0
LINE
  8
0
 62
     0
 10
195.878
 20
2.44189
 30
0.0
 11
196.099
 21
2.66375
 31
0.0
  0
LINE
  8
0
 62
     0
 10
196.099
 20
2.66375
 30
0.0
 11
196.241
 21
2.94211
 31
0.0
  0
LINE
  8
0
 62
     0
 10
196.241
 20
2.94211
 30
0.0
 11
196.29
 21
3.25079
 31
0.0
  0
LINE
  8
0
 62
     0
 10
196.29
 20
3.25079
 30
0.0
 11
196.241
 21
3.56087
 31
0.0
  0
LINE
  8
0
 62
     0
 10
196.241
 20
3.56087
 30
0.0
 11
196.099
 21
3.83921
 31
0.0
  0
LINE
  8
0
 62
     0
 10
196.099
 20
3.83921
 30
0.0
 11
195.878
 21
4.06107
 31
0.0
  0
LINE
  8
0
 62
     0
 10
195.878
 20
4.06107
 30
0.0
 11
195.6
 21
4.20303
 31
0.0
  0
LINE
  8
0
 62
     0
 10
195.6
 20
4.20303
 30
0.0
 11
195.29
 21
4.25125
 31
0.0
  0
LINE
  8
0
 62
     0
 10
195.29
 20
4.25125
 30
0.0
 11
194.981
 21
4.20303
 31
0.0
  0
LINE
  8
0
 62
     0
 10
259.046
 20
4.20303
 30
0.0
 11
258.768
 21
4.06107
 31
0.0
  0
LINE
  8
0
 62
     0
 10
258.768
 20
4.06107
 30
0.0
 11
258.546
 21
3.83921
 31
0.0
  0
LINE
  8
0
 62
     0
 10
258.546
 20
3.83921
 30
0.0
 11
258.404
 21
3.56087
 31
0.0
  0
LINE
  8
0
 62
     0
 10
258.404
 20
3.56087
 30
0.0
 11
258.356
 21
3.25079
 31
0.0
  0
LINE
  8
0
 62
     0
 10
258.356
 20
3.25079
 30
0.0
 11
258.404
 21
2.94211
 31
0.0
  0
LINE
  8
0
 62
     0
 10
258.404
 20
2.94211
 30
0.0
 11
258.546
 21
2.66375
 31
0.0
  0
LINE
  8
0
 62
     0
 10
258.546
 20
2.66375
 30
0.0
 11
258.768
 21
2.44189
 31
0.0
  0
LINE
  8
0
 62
     0
 10
258.768
 20
2.44189
 30
0.0
 11
259.046
 21
2.29995
 31
0.0
  0
LINE
  8
0
 62
     0
 10
259.046
 20
2.29995
 30
0.0
 11
259.355
 21
2.25034
 31
0.0
  0
LINE
  8
0
 62
     0
 10
259.355
 20
2.25034
 30
0.0
 11
259.665
 21
2.29995
 31
0.0
  0
LINE
  8
0
 62
     0
 10
259.665
 20
2.29995
 30
0.0
 11
259.944
 21
2.44189
 31
0.0
  0
LINE
  8
0
 62
     0
 10
259.944
 20
2.44189
 30
0.0
 11
260.164
 21
2.66375
 31
0.0
  0
LINE
  8
0
 62
     0
 10
260.164
 20
2.66375
 30
0.0
 11
260.306
 21
2.94211
 31
0.0
  0
LINE
  8
0
 62
     0
 10
260.306
 20
2.94211
 30
0.0
 11
260.356
 21
3.25079
 31
0.0
  0
LINE
  8
0
 62
     0
 10
260.356
 20
3.25079
 30
0.0
 11
260.306
 21
3.56087
 31
0.0
  0
LINE
  8
0
 62
     0
 10
260.306
 20
3.56087
 30
0.0
 11
260.164
 21
3.83921
 31
0.0
  0
LINE
  8
0
 62
     0
 10
260.164
 20
3.83921
 30
0.0
 11
259.944
 21
4.06107
 31
0.0
  0
LINE
  8
0
 62
     0
 10
259.944
 20
4.06107
 30
0.0
 11
259.665
 21
4.20303
 31
0.0
  0
LINE
  8
0
 62
     0
 10
259.665
 20
4.20303
 30
0.0
 11
259.355
 21
4.25125
 31
0.0
  0
LINE
  8
0
 62
     0
 10
259.355
 20
4.25125
 30
0.0
 11
259.046
 21
4.20303
 31
0.0
  0
LINE
  8
0
 62
     0
 10
323.111
 20
4.20303
 30
0.0
 11
322.833
 21
4.06107
 31
0.0
  0
LINE
  8
0
 62
     0
 10
322.833
 20
4.06107
 30
0.0
 11
322.611
 21
3.83921
 31
0.0
  0
LINE
  8
0
 62
     0
 10
322.611
 20
3.83921
 30
0.0
 11
322.469
 21
3.56087
 31
0.0
  0
LINE
  8
0
 62
     0
 10
322.469
 20
3.56087
 30
0.0
 11
322.421
 21
3.25079
 31
0.0
  0
LINE
  8
0
 62
     0
 10
322.421
 20
3.25079
 30
0.0
 11
322.469
 21
2.94211
 31
0.0
  0
LINE
  8
0
 62
     0
 10
322.469
 20
2.94211
 30
0.0
 11
322.611
 21
2.66375
 31
0.0
  0
LINE
  8
0
 62
     0
 10
322.611
 20
2.66375
 30
0.0
 11
322.833
 21
2.44189
 31
0.0
  0
LINE
  8
0
 62
     0
 10
322.833
 20
2.44189
 30
0.0
 11
323.111
 21
2.29995
 31
0.0
  0
LINE
  8
0
 62
     0
 10
323.111
 20
2.29995
 30
0.0
 11
323.421
 21
2.25034
 31
0.0
  0
LINE
  8
0
 62
     0
 10
323.421
 20
2.25034
 30
0.0
 11
323.73
 21
2.29995
 31
0.0
  0
LINE
  8
0
 62
     0
 10
323.73
 20
2.29995
 30
0.0
 11
324.008
 21
2.44189
 31
0.0
  0
LINE
  8
0
 62
     0
 10
324.008
 20
2.44189
 30
0.0
 11
324.23
 21
2.66375
 31
0.0
  0
LINE
  8
0
 62
     0
 10
324.23
 20
2.66375
 30
0.0
 11
324.372
 21
2.94211
 31
0.0
  0
LINE
  8
0
 62
     0
 10
324.372
 20
2.94211
 30
0.0
 11
324.422
 21
3.25079
 31
0.0
  0
LINE
  8
0
 62
     0
 10
324.422
 20
3.25079
 30
0.0
 11
324.372
 21
3.56087
 31
0.0
  0
LINE
  8
0
 62
     0
 10
324.372
 20
3.56087
 30
0.0
 11
324.23
 21
3.83921
 31
0.0
  0
LINE
  8
0
 62
     0
 10
324.23
 20
3.83921
 30
0.0
 11
324.008
 21
4.06107
 31
0.0
  0
LINE
  8
0
 62
     0
 10
324.008
 20
4.06107
 30
0.0
 11
323.73
 21
4.20303
 31
0.0
  0
LINE
  8
0
 62
     0
 10
323.73
 20
4.20303
 30
0.0
 11
323.421
 21
4.25125
 31
0.0
  0
LINE
  8
0
 62
     0
 10
323.421
 20
4.25125
 30
0.0
 11
323.111
 21
4.20303
 31
0.0
  0
LINE
  8
0
 62
     0
 10
2.78501
 20
47.4775
 30
0.0
 11
2.50803
 21
47.3357
 31
0.0
  0
LINE
  8
0
 62
     0
 10
2.50803
 20
47.3357
 30
0.0
 11
2.28617
 21
47.1152
 31
0.0
  0
LINE
  8
0
 62
     0
 10
2.28617
 20
47.1152
 30
0.0
 11
2.14285
 21
46.8355
 31
0.0
  0
LINE
  8
0
 62
     0
 10
2.14285
 20
46.8355
 30
0.0
 11
2.096
 21
46.5268
 31
0.0
  0
LINE
  8
0
 62
     0
 10
2.096
 20
46.5268
 30
0.0
 11
2.14285
 21
46.2181
 31
0.0
  0
LINE
  8
0
 62
     0
 10
2.14285
 20
46.2181
 30
0.0
 11
2.28617
 21
45.9384
 31
0.0
  0
LINE
  8
0
 62
     0
 10
2.28617
 20
45.9384
 30
0.0
 11
2.50803
 21
45.7179
 31
0.0
  0
LINE
  8
0
 62
     0
 10
2.50803
 20
45.7179
 30
0.0
 11
2.78501
 21
45.5757
 31
0.0
  0
LINE
  8
0
 62
     0
 10
2.78501
 20
45.5757
 30
0.0
 11
3.09507
 21
45.5263
 31
0.0
  0
LINE
  8
0
 62
     0
 10
3.09507
 20
45.5263
 30
0.0
 11
3.40513
 21
45.5757
 31
0.0
  0
LINE
  8
0
 62
     0
 10
3.40513
 20
45.5757
 30
0.0
 11
3.68212
 21
45.7179
 31
0.0
  0
LINE
  8
0
 62
     0
 10
3.68212
 20
45.7179
 30
0.0
 11
3.90398
 21
45.9384
 31
0.0
  0
LINE
  8
0
 62
     0
 10
3.90398
 20
45.9384
 30
0.0
 11
4.04594
 21
46.2181
 31
0.0
  0
LINE
  8
0
 62
     0
 10
4.04594
 20
46.2181
 30
0.0
 11
4.09554
 21
46.5268
 31
0.0
  0
LINE
  8
0
 62
     0
 10
4.09554
 20
46.5268
 30
0.0
 11
4.04594
 21
46.8355
 31
0.0
  0
LINE
  8
0
 62
     0
 10
4.04594
 20
46.8355
 30
0.0
 11
3.90398
 21
47.1152
 31
0.0
  0
LINE
  8
0
 62
     0
 10
3.90398
 20
47.1152
 30
0.0
 11
3.68212
 21
47.3357
 31
0.0
  0
LINE
  8
0
 62
     0
 10
3.68212
 20
47.3357
 30
0.0
 11
3.40513
 21
47.4775
 31
0.0
  0
LINE
  8
0
 62
     0
 10
3.40513
 20
47.4775
 30
0.0
 11
3.09507
 21
47.5273
 31
0.0
  0
LINE
  8
0
 62
     0
 10
3.09507
 20
47.5273
 30
0.0
 11
2.78501
 21
47.4775
 31
0.0
  0
LINE
  8
0
 62
     0
 10
323.111
 20
47.4775
 30
0.0
 11
322.833
 21
47.3357
 31
0.0
  0
LINE
  8
0
 62
     0
 10
322.833
 20
47.3357
 30
0.0
 11
322.611
 21
47.1152
 31
0.0
  0
LINE
  8
0
 62
     0
 10
322.611
 20
47.1152
 30
0.0
 11
322.469
 21
46.8355
 31
0.0
  0
LINE
  8
0
 62
     0
 10
322.469
 20
46.8355
 30
0.0
 11
322.421
 21
46.5268
 31
0.0
  0
LINE
  8
0
 62
     0
 10
322.421
 20
46.5268
 30
0.0
 11
322.469
 21
46.2181
 31
0.0
  0
LINE
  8
0
 62
     0
 10
322.469
 20
46.2181
 30
0.0
 11
322.611
 21
45.9384
 31
0.0
  0
LINE
  8
0
 62
     0
 10
322.611
 20
45.9384
 30
0.0
 11
322.833
 21
45.7179
 31
0.0
  0
LINE
  8
0
 62
     0
 10
322.833
 20
45.7179
 30
0.0
 11
323.111
 21
45.5757
 31
0.0
  0
LINE
  8
0
 62
     0
 10
323.111
 20
45.5757
 30
0.0
 11
323.421
 21
45.5263
 31
0.0
  0
LINE
  8
0
 62
     0
 10
323.421
 20
45.5263
 30
0.0
 11
323.73
 21
45.5757
 31
0.0
  0
LINE
  8
0
 62
     0
 10
323.73
 20
45.5757
 30
0.0
 11
324.008
 21
45.7179
 31
0.0
  0
LINE
  8
0
 62
     0
 10
324.008
 20
45.7179
 30
0.0
 11
324.23
 21
45.9384
 31
0.0
  0
LINE
  8
0
 62
     0
 10
324.23
 20
45.9384
 30
0.0
 11
324.372
 21
46.2181
 31
0.0
  0
LINE
  8
0
 62
     0
 10
324.372
 20
46.2181
 30
0.0
 11
324.422
 21
46.5268
 31
0.0
  0
LINE
  8
0
 62
     0
 10
324.422
 20
46.5268
 30
0.0
 11
324.372
 21
46.8355
 31
0.0
  0
LINE
  8
0
 62
     0
 10
324.372
 20
46.8355
 30
0.0
 11
324.23
 21
47.1152
 31
0.0
  0
LINE
  8
0
 62
     0
 10
324.23
 20
47.1152
 30
0.0
 11
324.008
 21
47.3357
 31
0.0
  0
LINE
  8
0
 62
     0
 10
324.008
 20
47.3357
 30
0.0
 11
323.73
 21
47.4775
 31
0.0
  0
LINE
  8
0
 62
     0
 10
323.73
 20
47.4775
 30
0.0
 11
323.421
 21
47.5273
 31
0.0
  0
LINE
  8
0
 62
     0
 10
323.421
 20
47.5273
 30
0.0
 11
323.111
 21
47.4775
 31
0.0
  0
LINE
  8
0
 62
     0
 10
2.78501
 20
90.7521
 30
0.0
 11
2.50803
 21
90.6103
 31
0.0
  0
LINE
  8
0
 62
     0
 10
2.50803
 20
90.6103
 30
0.0
 11
2.28617
 21
90.3898
 31
0.0
  0
LINE
  8
0
 62
     0
 10
2.28617
 20
90.3898
 30
0.0
 11
2.14285
 21
90.1114
 31
0.0
  0
LINE
  8
0
 62
     0
 10
2.14285
 20
90.1114
 30
0.0
 11
2.096
 21
89.8013
 31
0.0
  0
LINE
  8
0
 62
     0
 10
2.096
 20
89.8013
 30
0.0
 11
2.14285
 21
89.4927
 31
0.0
  0
LINE
  8
0
 62
     0
 10
2.14285
 20
89.4927
 30
0.0
 11
2.28617
 21
89.2143
 31
0.0
  0
LINE
  8
0
 62
     0
 10
2.28617
 20
89.2143
 30
0.0
 11
2.50803
 21
88.9924
 31
0.0
  0
LINE
  8
0
 62
     0
 10
2.50803
 20
88.9924
 30
0.0
 11
2.78501
 21
88.8503
 31
0.0
  0
LINE
  8
0
 62
     0
 10
2.78501
 20
88.8503
 30
0.0
 11
3.09507
 21
88.8023
 31
0.0
  0
LINE
  8
0
 62
     0
 10
3.09507
 20
88.8023
 30
0.0
 11
3.40513
 21
88.8503
 31
0.0
  0
LINE
  8
0
 62
     0
 10
3.40513
 20
88.8503
 30
0.0
 11
3.68212
 21
88.9924
 31
0.0
  0
LINE
  8
0
 62
     0
 10
3.68212
 20
88.9924
 30
0.0
 11
3.90398
 21
89.2143
 31
0.0
  0
LINE
  8
0
 62
     0
 10
3.90398
 20
89.2143
 30
0.0
 11
4.04594
 21
89.4927
 31
0.0
  0
LINE
  8
0
 62
     0
 10
4.04594
 20
89.4927
 30
0.0
 11
4.09554
 21
89.8013
 31
0.0
  0
LINE
  8
0
 62
     0
 10
4.09554
 20
89.8013
 30
0.0
 11
4.04594
 21
90.1114
 31
0.0
  0
LINE
  8
0
 62
     0
 10
4.04594
 20
90.1114
 30
0.0
 11
3.90398
 21
90.3898
 31
0.0
  0
LINE
  8
0
 62
     0
 10
3.90398
 20
90.3898
 30
0.0
 11
3.68212
 21
90.6103
 31
0.0
  0
LINE
  8
0
 62
     0
 10
3.68212
 20
90.6103
 30
0.0
 11
3.40513
 21
90.7521
 31
0.0
  0
LINE
  8
0
 62
     0
 10
3.40513
 20
90.7521
 30
0.0
 11
3.09507
 21
90.8018
 31
0.0
  0
LINE
  8
0
 62
     0
 10
3.09507
 20
90.8018
 30
0.0
 11
2.78501
 21
90.7521
 31
0.0
  0
LINE
  8
0
 62
     0
 10
323.111
 20
90.7521
 30
0.0
 11
322.833
 21
90.6103
 31
0.0
  0
LINE
  8
0
 62
     0
 10
322.833
 20
90.6103
 30
0.0
 11
322.611
 21
90.3898
 31
0.0
  0
LINE
  8
0
 62
     0
 10
322.611
 20
90.3898
 30
0.0
 11
322.469
 21
90.1114
 31
0.0
  0
LINE
  8
0
 62
     0
 10
322.469
 20
90.1114
 30
0.0
 11
322.421
 21
89.8013
 31
0.0
  0
LINE
  8
0
 62
     0
 10
322.421
 20
89.8013
 30
0.0
 11
322.469
 21
89.4927
 31
0.0
  0
LINE
  8
0
 62
     0
 10
322.469
 20
89.4927
 30
0.0
 11
322.611
 21
89.2143
 31
0.0
  0
LINE
  8
0
 62
     0
 10
322.611
 20
89.2143
 30
0.0
 11
322.833
 21
88.9924
 31
0.0
  0
LINE
  8
0
 62
     0
 10
322.833
 20
88.9924
 30
0.0
 11
323.111
 21
88.8503
 31
0.0
  0
LINE
  8
0
 62
     0
 10
323.111
 20
88.8503
 30
0.0
 11
323.421
 21
88.8023
 31
0.0
  0
LINE
  8
0
 62
     0
 10
323.421
 20
88.8023
 30
0.0
 11
323.73
 21
88.8503
 31
0.0
  0
LINE
  8
0
 62
     0
 10
323.73
 20
88.8503
 30
0.0
 11
324.008
 21
88.9924
 31
0.0
  0
LINE
  8
0
 62
     0
 10
324.008
 20
88.9924
 30
0.0
 11
324.23
 21
89.2143
 31
0.0
  0
LINE
  8
0
 62
     0
 10
324.23
 20
89.2143
 30
0.0
 11
324.372
 21
89.4927
 31
0.0
  0
LINE
  8
0
 62
     0
 10
324.372
 20
89.4927
 30
0.0
 11
324.422
 21
89.8013
 31
0.0
  0
LINE
  8
0
 62
     0
 10
324.422
 20
89.8013
 30
0.0
 11
324.372
 21
90.1114
 31
0.0
  0
LINE
  8
0
 62
     0
 10
324.372
 20
90.1114
 30
0.0
 11
324.23
 21
90.3898
 31
0.0
  0
LINE
  8
0
 62
     0
 10
324.23
 20
90.3898
 30
0.0
 11
324.008
 21
90.6103
 31
0.0
  0
LINE
  8
0
 62
     0
 10
324.008
 20
90.6103
 30
0.0
 11
323.73
 21
90.7521
 31
0.0
  0
LINE
  8
0
 62
     0
 10
323.73
 20
90.7521
 30
0.0
 11
323.421
 21
90.8018
 31
0.0
  0
LINE
  8
0
 62
     0
 10
323.421
 20
90.8018
 30
0.0
 11
323.111
 21
90.7521
 31
0.0
  0
LINE
  8
0
 62
     0
 10
323.111
 20
134.029
 30
0.0
 11
322.833
 21
133.886
 31
0.0
  0
LINE
  8
0
 62
     0
 10
322.833
 20
133.886
 30
0.0
 11
322.611
 21
133.664
 31
0.0
  0
LINE
  8
0
 62
     0
 10
322.611
 20
133.664
 30
0.0
 11
322.469
 21
133.387
 31
0.0
  0
LINE
  8
0
 62
     0
 10
322.469
 20
133.387
 30
0.0
 11
322.421
 21
133.077
 31
0.0
  0
LINE
  8
0
 62
     0
 10
322.421
 20
133.077
 30
0.0
 11
322.469
 21
132.767
 31
0.0
  0
LINE
  8
0
 62
     0
 10
322.469
 20
132.767
 30
0.0
 11
322.611
 21
132.49
 31
0.0
  0
LINE
  8
0
 62
     0
 10
322.611
 20
132.49
 30
0.0
 11
322.833
 21
132.268
 31
0.0
  0
LINE
  8
0
 62
     0
 10
322.833
 20
132.268
 30
0.0
 11
323.111
 21
132.126
 31
0.0
  0
LINE
  8
0
 62
     0
 10
323.111
 20
132.126
 30
0.0
 11
323.421
 21
132.077
 31
0.0
  0
LINE
  8
0
 62
     0
 10
323.421
 20
132.077
 30
0.0
 11
323.73
 21
132.126
 31
0.0
  0
LINE
  8
0
 62
     0
 10
323.73
 20
132.126
 30
0.0
 11
324.008
 21
132.268
 31
0.0
  0
LINE
  8
0
 62
     0
 10
324.008
 20
132.268
 30
0.0
 11
324.23
 21
132.49
 31
0.0
  0
LINE
  8
0
 62
     0
 10
324.23
 20
132.49
 30
0.0
 11
324.372
 21
132.767
 31
0.0
  0
LINE
  8
0
 62
     0
 10
324.372
 20
132.767
 30
0.0
 11
324.422
 21
133.077
 31
0.0
  0
LINE
  8
0
 62
     0
 10
324.422
 20
133.077
 30
0.0
 11
324.372
 21
133.387
 31
0.0
  0
LINE
  8
0
 62
     0
 10
324.372
 20
133.387
 30
0.0
 11
324.23
 21
133.664
 31
0.0
  0
LINE
  8
0
 62
     0
 10
324.23
 20
133.664
 30
0.0
 11
324.008
 21
133.886
 31
0.0
  0
LINE
  8
0
 62
     0
 10
324.008
 20
133.886
 30
0.0
 11
323.73
 21
134.029
 31
0.0
  0
LINE
  8
0
 62
     0
 10
323.73
 20
134.029
 30
0.0
 11
323.421
 21
134.076
 31
0.0
  0
LINE
  8
0
 62
     0
 10
323.421
 20
134.076
 30
0.0
 11
323.111
 21
134.029
 31
0.0
  0
LINE
  8
0
 62
     0
 10
259.046
 20
134.029
 30
0.0
 11
258.768
 21
133.886
 31
0.0
  0
LINE
  8
0
 62
     0
 10
258.768
 20
133.886
 30
0.0
 11
258.546
 21
133.664
 31
0.0
  0
LINE
  8
0
 62
     0
 10
258.546
 20
133.664
 30
0.0
 11
258.404
 21
133.387
 31
0.0
  0
LINE
  8
0
 62
     0
 10
258.404
 20
133.387
 30
0.0
 11
258.356
 21
133.077
 31
0.0
  0
LINE
  8
0
 62
     0
 10
258.356
 20
133.077
 30
0.0
 11
258.404
 21
132.767
 31
0.0
  0
LINE
  8
0
 62
     0
 10
258.404
 20
132.767
 30
0.0
 11
258.546
 21
132.49
 31
0.0
  0
LINE
  8
0
 62
     0
 10
258.546
 20
132.49
 30
0.0
 11
258.768
 21
132.268
 31
0.0
  0
LINE
  8
0
 62
     0
 10
258.768
 20
132.268
 30
0.0
 11
259.046
 21
132.126
 31
0.0
  0
LINE
  8
0
 62
     0
 10
259.046
 20
132.126
 30
0.0
 11
259.355
 21
132.077
 31
0.0
  0
LINE
  8
0
 62
     0
 10
259.355
 20
132.077
 30
0.0
 11
259.665
 21
132.126
 31
0.0
  0
LINE
  8
0
 62
     0
 10
259.665
 20
132.126
 30
0.0
 11
259.944
 21
132.268
 31
0.0
  0
LINE
  8
0
 62
     0
 10
259.944
 20
132.268
 30
0.0
 11
260.164
 21
132.49
 31
0.0
  0
LINE
  8
0
 62
     0
 10
260.164
 20
132.49
 30
0.0
 11
260.306
 21
132.767
 31
0.0
  0
LINE
  8
0
 62
     0
 10
260.306
 20
132.767
 30
0.0
 11
260.356
 21
133.077
 31
0.0
  0
LINE
  8
0
 62
     0
 10
260.356
 20
133.077
 30
0.0
 11
260.306
 21
133.387
 31
0.0
  0
LINE
  8
0
 62
     0
 10
260.306
 20
133.387
 30
0.0
 11
260.164
 21
133.664
 31
0.0
  0
LINE
  8
0
 62
     0
 10
260.164
 20
133.664
 30
0.0
 11
259.944
 21
133.886
 31
0.0
  0
LINE
  8
0
 62
     0
 10
259.944
 20
133.886
 30
0.0
 11
259.665
 21
134.029
 31
0.0
  0
LINE
  8
0
 62
     0
 10
259.665
 20
134.029
 30
0.0
 11
259.355
 21
134.076
 31
0.0
  0
LINE
  8
0
 62
     0
 10
259.355
 20
134.076
 30
0.0
 11
259.046
 21
134.029
 31
0.0
  0
LINE
  8
0
 62
     0
 10
194.981
 20
134.029
 30
0.0
 11
194.703
 21
133.886
 31
0.0
  0
LINE
  8
0
 62
     0
 10
194.703
 20
133.886
 30
0.0
 11
194.481
 21
133.664
 31
0.0
  0
LINE
  8
0
 62
     0
 10
194.481
 20
133.664
 30
0.0
 11
194.339
 21
133.387
 31
0.0
  0
LINE
  8
0
 62
     0
 10
194.339
 20
133.387
 30
0.0
 11
194.291
 21
133.077
 31
0.0
  0
LINE
  8
0
 62
     0
 10
194.291
 20
133.077
 30
0.0
 11
194.339
 21
132.767
 31
0.0
  0
LINE
  8
0
 62
     0
 10
194.339
 20
132.767
 30
0.0
 11
194.481
 21
132.49
 31
0.0
  0
LINE
  8
0
 62
     0
 10
194.481
 20
132.49
 30
0.0
 11
194.703
 21
132.268
 31
0.0
  0
LINE
  8
0
 62
     0
 10
194.703
 20
132.268
 30
0.0
 11
194.981
 21
132.126
 31
0.0
  0
LINE
  8
0
 62
     0
 10
194.981
 20
132.126
 30
0.0
 11
195.29
 21
132.077
 31
0.0
  0
LINE
  8
0
 62
     0
 10
195.29
 20
132.077
 30
0.0
 11
195.6
 21
132.126
 31
0.0
  0
LINE
  8
0
 62
     0
 10
195.6
 20
132.126
 30
0.0
 11
195.878
 21
132.268
 31
0.0
  0
LINE
  8
0
 62
     0
 10
195.878
 20
132.268
 30
0.0
 11
196.099
 21
132.49
 31
0.0
  0
LINE
  8
0
 62
     0
 10
196.099
 20
132.49
 30
0.0
 11
196.241
 21
132.767
 31
0.0
  0
LINE
  8
0
 62
     0
 10
196.241
 20
132.767
 30
0.0
 11
196.29
 21
133.077
 31
0.0
  0
LINE
  8
0
 62
     0
 10
196.29
 20
133.077
 30
0.0
 11
196.241
 21
133.387
 31
0.0
  0
LINE
  8
0
 62
     0
 10
196.241
 20
133.387
 30
0.0
 11
196.099
 21
133.664
 31
0.0
  0
LINE
  8
0
 62
     0
 10
196.099
 20
133.664
 30
0.0
 11
195.878
 21
133.886
 31
0.0
  0
LINE
  8
0
 62
     0
 10
195.878
 20
133.886
 30
0.0
 11
195.6
 21
134.029
 31
0.0
  0
LINE
  8
0
 62
     0
 10
195.6
 20
134.029
 30
0.0
 11
195.29
 21
134.076
 31
0.0
  0
LINE
  8
0
 62
     0
 10
195.29
 20
134.076
 30
0.0
 11
194.981
 21
134.029
 31
0.0
  0
LINE
  8
0
 62
     0
 10
130.917
 20
134.029
 30
0.0
 11
130.638
 21
133.886
 31
0.0
  0
LINE
  8
0
 62
     0
 10
130.638
 20
133.886
 30
0.0
 11
130.416
 21
133.664
 31
0.0
  0
LINE
  8
0
 62
     0
 10
130.416
 20
133.664
 30
0.0
 11
130.274
 21
133.387
 31
0.0
  0
LINE
  8
0
 62
     0
 10
130.274
 20
133.387
 30
0.0
 11
130.226
 21
133.077
 31
0.0
  0
LINE
  8
0
 62
     0
 10
130.226
 20
133.077
 30
0.0
 11
130.274
 21
132.767
 31
0.0
  0
LINE
  8
0
 62
     0
 10
130.274
 20
132.767
 30
0.0
 11
130.416
 21
132.49
 31
0.0
  0
LINE
  8
0
 62
     0
 10
130.416
 20
132.49
 30
0.0
 11
130.638
 21
132.268
 31
0.0
  0
LINE
  8
0
 62
     0
 10
130.638
 20
132.268
 30
0.0
 11
130.917
 21
132.126
 31
0.0
  0
LINE
  8
0
 62
     0
 10
130.917
 20
132.126
 30
0.0
 11
131.225
 21
132.077
 31
0.0
  0
LINE
  8
0
 62
     0
 10
131.225
 20
132.077
 30
0.0
 11
131.535
 21
132.126
 31
0.0
  0
LINE
  8
0
 62
     0
 10
131.535
 20
132.126
 30
0.0
 11
131.814
 21
132.268
 31
0.0
  0
LINE
  8
0
 62
     0
 10
131.814
 20
132.268
 30
0.0
 11
132.034
 21
132.49
 31
0.0
  0
LINE
  8
0
 62
     0
 10
132.034
 20
132.49
 30
0.0
 11
132.176
 21
132.767
 31
0.0
  0
LINE
  8
0
 62
     0
 10
132.176
 20
132.767
 30
0.0
 11
132.226
 21
133.077
 31
0.0
  0
LINE
  8
0
 62
     0
 10
132.226
 20
133.077
 30
0.0
 11
132.176
 21
133.387
 31
0.0
  0
LINE
  8
0
 62
     0
 10
132.176
 20
133.387
 30
0.0
 11
132.034
 21
133.664
 31
0.0
  0
LINE
  8
0
 62
     0
 10
132.034
 20
133.664
 30
0.0
 11
131.814
 21
133.886
 31
0.0
  0
LINE
  8
0
 62
     0
 10
131.814
 20
133.886
 30
0.0
 11
131.535
 21
134.029
 31
0.0
  0
LINE
  8
0
 62
     0
 10
131.535
 20
134.029
 30
0.0
 11
131.225
 21
134.076
 31
0.0
  0
LINE
  8
0
 62
     0
 10
131.225
 20
134.076
 30
0.0
 11
130.917
 21
134.029
 31
0.0
  0
LINE
  8
0
 62
     0
 10
66.8514
 20
134.029
 30
0.0
 11
66.573
 21
133.886
 31
0.0
  0
LINE
  8
0
 62
     0
 10
66.573
 20
133.886
 30
0.0
 11
66.3512
 21
133.664
 31
0.0
  0
LINE
  8
0
 62
     0
 10
66.3512
 20
133.664
 30
0.0
 11
66.2093
 21
133.387
 31
0.0
  0
LINE
  8
0
 62
     0
 10
66.2093
 20
133.387
 30
0.0
 11
66.161
 21
133.077
 31
0.0
  0
LINE
  8
0
 62
     0
 10
66.161
 20
133.077
 30
0.0
 11
66.2093
 21
132.767
 31
0.0
  0
LINE
  8
0
 62
     0
 10
66.2093
 20
132.767
 30
0.0
 11
66.3512
 21
132.49
 31
0.0
  0
LINE
  8
0
 62
     0
 10
66.3512
 20
132.49
 30
0.0
 11
66.573
 21
132.268
 31
0.0
  0
LINE
  8
0
 62
     0
 10
66.573
 20
132.268
 30
0.0
 11
66.8514
 21
132.126
 31
0.0
  0
LINE
  8
0
 62
     0
 10
66.8514
 20
132.126
 30
0.0
 11
67.1601
 21
132.077
 31
0.0
  0
LINE
  8
0
 62
     0
 10
67.1601
 20
132.077
 30
0.0
 11
67.4702
 21
132.126
 31
0.0
  0
LINE
  8
0
 62
     0
 10
67.4702
 20
132.126
 30
0.0
 11
67.7471
 21
132.268
 31
0.0
  0
LINE
  8
0
 62
     0
 10
67.7471
 20
132.268
 30
0.0
 11
67.969
 21
132.49
 31
0.0
  0
LINE
  8
0
 62
     0
 10
67.969
 20
132.49
 30
0.0
 11
68.1108
 21
132.767
 31
0.0
  0
LINE
  8
0
 62
     0
 10
68.1108
 20
132.767
 30
0.0
 11
68.1605
 21
133.077
 31
0.0
  0
LINE
  8
0
 62
     0
 10
68.1605
 20
133.077
 30
0.0
 11
68.1108
 21
133.387
 31
0.0
  0
LINE
  8
0
 62
     0
 10
68.1108
 20
133.387
 30
0.0
 11
67.969
 21
133.664
 31
0.0
  0
LINE
  8
0
 62
     0
 10
67.969
 20
133.664
 30
0.0
 11
67.7471
 21
133.886
 31
0.0
  0
LINE
  8
0
 62
     0
 10
67.7471
 20
133.886
 30
0.0
 11
67.4702
 21
134.029
 31
0.0
  0
LINE
  8
0
 62
     0
 10
67.4702
 20
134.029
 30
0.0
 11
67.1601
 21
134.076
 31
0.0
  0
LINE
  8
0
 62
     0
 10
67.1601
 20
134.076
 30
0.0
 11
66.8514
 21
134.029
 31
0.0
  0
LINE
  8
0
 62
     0
 10
2.78501
 20
134.029
 30
0.0
 11
2.50803
 21
133.886
 31
0.0
  0
LINE
  8
0
 62
     0
 10
2.50803
 20
133.886
 30
0.0
 11
2.28617
 21
133.664
 31
0.0
  0
LINE
  8
0
 62
     0
 10
2.28617
 20
133.664
 30
0.0
 11
2.14285
 21
133.387
 31
0.0
  0
LINE
  8
0
 62
     0
 10
2.14285
 20
133.387
 30
0.0
 11
2.096
 21
133.077
 31
0.0
  0
LINE
  8
0
 62
     0
 10
2.096
 20
133.077
 30
0.0
 11
2.14285
 21
132.767
 31
0.0
  0
LINE
  8
0
 62
     0
 10
2.14285
 20
132.767
 30
0.0
 11
2.28617
 21
132.49
 31
0.0
  0
LINE
  8
0
 62
     0
 10
2.28617
 20
132.49
 30
0.0
 11
2.50803
 21
132.268
 31
0.0
  0
LINE
  8
0
 62
     0
 10
2.50803
 20
132.268
 30
0.0
 11
2.78501
 21
132.126
 31
0.0
  0
LINE
  8
0
 62
     0
 10
2.78501
 20
132.126
 30
0.0
 11
3.09507
 21
132.078
 31
0.0
  0
LINE
  8
0
 62
     0
 10
3.09507
 20
132.078
 30
0.0
 11
3.40513
 21
132.126
 31
0.0
  0
LINE
  8
0
 62
     0
 10
3.40513
 20
132.126
 30
0.0
 11
3.68212
 21
132.268
 31
0.0
  0
LINE
  8
0
 62
     0
 10
3.68212
 20
132.268
 30
0.0
 11
3.90398
 21
132.49
 31
0.0
  0
LINE
  8
0
 62
     0
 10
3.90398
 20
132.49
 30
0.0
 11
4.04594
 21
132.767
 31
0.0
  0
LINE
  8
0
 62
     0
 10
4.04594
 20
132.767
 30
0.0
 11
4.09554
 21
133.077
 31
0.0
  0
LINE
  8
0
 62
     0
 10
4.09554
 20
133.077
 30
0.0
 11
4.04594
 21
133.387
 31
0.0
  0
LINE
  8
0
 62
     0
 10
4.04594
 20
133.387
 30
0.0
 11
3.90398
 21
133.664
 31
0.0
  0
LINE
  8
0
 62
     0
 10
3.90398
 20
133.664
 30
0.0
 11
3.68212
 21
133.886
 31
0.0
  0
LINE
  8
0
 62
     0
 10
3.68212
 20
133.886
 30
0.0
 11
3.40513
 21
134.029
 31
0.0
  0
LINE
  8
0
 62
     0
 10
3.40513
 20
134.029
 30
0.0
 11
3.09507
 21
134.078
 31
0.0
  0
LINE
  8
0
 62
     0
 10
3.09507
 20
134.078
 30
0.0
 11
2.78501
 21
134.029
 31
0.0
  0
ENDSEC
  0
EOF
