  0
SECTION
  2
HEADER
  9
$ACADVER
  1
AC1009
  9
$EXTMIN
 10
0.0
 20
0.0
 30
0.0
  9
$EXTMAX
 10
1000.0
 20
1000.0
 30
0.0
  9
$FILLMODE
 70
 0
  9
$SPLFRAME
 70
 1
  0
ENDSEC
  0
SECTION
  2
TABLES
  0
TABLE
  2
LAYER
 70
1
  0
LAYER
  2
0
 70
     0
 62
     7
  6
CONTINUOUS
  0
ENDTAB
  0
ENDSEC
  0
SECTION
  2
ENTITIES
  0
LINE
  8
0
 62
     0
 10
324.422
 20
136.077
 30
0.0
 11
324.578
 21
136.07
 31
0.0
  0
LINE
  8
0
 62
     0
 10
324.578
 20
136.07
 30
0.0
 11
324.733
 21
136.052
 31
0.0
  0
LINE
  8
0
 62
     0
 10
324.733
 20
136.052
 30
0.0
 11
324.888
 21
136.022
 31
0.0
  0
LINE
  8
0
 62
     0
 10
324.888
 20
136.022
 30
0.0
 11
325.039
 21
135.979
 31
0.0
  0
LINE
  8
0
 62
     0
 10
325.039
 20
135.979
 30
0.0
 11
325.187
 21
135.924
 31
0.0
  0
LINE
  8
0
 62
     0
 10
325.187
 20
135.924
 30
0.0
 11
325.328
 21
135.859
 31
0.0
  0
LINE
  8
0
 62
     0
 10
325.328
 20
135.859
 30
0.0
 11
325.465
 21
135.782
 31
0.0
  0
LINE
  8
0
 62
     0
 10
325.465
 20
135.782
 30
0.0
 11
325.596
 21
135.695
 31
0.0
  0
LINE
  8
0
 62
     0
 10
325.596
 20
135.695
 30
0.0
 11
325.72
 21
135.598
 31
0.0
  0
LINE
  8
0
 62
     0
 10
325.72
 20
135.598
 30
0.0
 11
325.836
 21
135.491
 31
0.0
  0
LINE
  8
0
 62
     0
 10
325.836
 20
135.491
 30
0.0
 11
325.942
 21
135.376
 31
0.0
  0
LINE
  8
0
 62
     0
 10
325.942
 20
135.376
 30
0.0
 11
326.04
 21
135.253
 31
0.0
  0
LINE
  8
0
 62
     0
 10
326.04
 20
135.253
 30
0.0
 11
326.126
 21
135.122
 31
0.0
  0
LINE
  8
0
 62
     0
 10
326.126
 20
135.122
 30
0.0
 11
326.204
 21
134.984
 31
0.0
  0
LINE
  8
0
 62
     0
 10
326.204
 20
134.984
 30
0.0
 11
326.268
 21
134.842
 31
0.0
  0
LINE
  8
0
 62
     0
 10
326.268
 20
134.842
 30
0.0
 11
326.324
 21
134.696
 31
0.0
  0
LINE
  8
0
 62
     0
 10
326.324
 20
134.696
 30
0.0
 11
326.365
 21
134.543
 31
0.0
  0
LINE
  8
0
 62
     0
 10
326.365
 20
134.543
 30
0.0
 11
326.397
 21
134.39
 31
0.0
  0
LINE
  8
0
 62
     0
 10
326.397
 20
134.39
 30
0.0
 11
326.415
 21
134.233
 31
0.0
  0
LINE
  8
0
 62
     0
 10
326.415
 20
134.233
 30
0.0
 11
326.421
 21
134.076
 31
0.0
  0
LINE
  8
0
 62
     0
 10
326.421
 20
134.076
 30
0.0
 11
326.421
 21
2.25034
 31
0.0
  0
LINE
  8
0
 62
     0
 10
326.421
 20
2.25034
 30
0.0
 11
326.415
 21
2.09462
 31
0.0
  0
LINE
  8
0
 62
     0
 10
326.415
 20
2.09462
 30
0.0
 11
326.397
 21
1.9389
 31
0.0
  0
LINE
  8
0
 62
     0
 10
326.397
 20
1.9389
 30
0.0
 11
326.365
 21
1.78456
 31
0.0
  0
LINE
  8
0
 62
     0
 10
326.365
 20
1.78456
 30
0.0
 11
326.324
 21
1.63298
 31
0.0
  0
LINE
  8
0
 62
     0
 10
326.324
 20
1.63298
 30
0.0
 11
326.268
 21
1.48553
 31
0.0
  0
LINE
  8
0
 62
     0
 10
326.268
 20
1.48553
 30
0.0
 11
326.204
 21
1.34359
 31
0.0
  0
LINE
  8
0
 62
     0
 10
326.204
 20
1.34359
 30
0.0
 11
326.126
 21
1.20716
 31
0.0
  0
LINE
  8
0
 62
     0
 10
326.126
 20
1.20716
 30
0.0
 11
326.04
 21
1.07625
 31
0.0
  0
LINE
  8
0
 62
     0
 10
326.04
 20
1.07625
 30
0.0
 11
325.942
 21
0.952225
 31
0.0
  0
LINE
  8
0
 62
     0
 10
325.942
 20
0.952225
 30
0.0
 11
325.836
 21
0.836468
 31
0.0
  0
LINE
  8
0
 62
     0
 10
325.836
 20
0.836468
 30
0.0
 11
325.72
 21
0.730359
 31
0.0
  0
LINE
  8
0
 62
     0
 10
325.72
 20
0.730359
 30
0.0
 11
325.596
 21
0.63252
 31
0.0
  0
LINE
  8
0
 62
     0
 10
325.596
 20
0.63252
 30
0.0
 11
325.465
 21
0.545705
 31
0.0
  0
LINE
  8
0
 62
     0
 10
325.465
 20
0.545705
 30
0.0
 11
325.328
 21
0.468535
 31
0.0
  0
LINE
  8
0
 62
     0
 10
325.328
 20
0.468535
 30
0.0
 11
325.187
 21
0.403765
 31
0.0
  0
LINE
  8
0
 62
     0
 10
325.187
 20
0.403765
 30
0.0
 11
325.039
 21
0.348644
 31
0.0
  0
LINE
  8
0
 62
     0
 10
325.039
 20
0.348644
 30
0.0
 11
324.888
 21
0.307303
 31
0.0
  0
LINE
  8
0
 62
     0
 10
324.888
 20
0.307303
 30
0.0
 11
324.733
 21
0.275608
 31
0.0
  0
LINE
  8
0
 62
     0
 10
324.733
 20
0.275608
 30
0.0
 11
324.578
 21
0.257693
 31
0.0
  0
LINE
  8
0
 62
     0
 10
324.578
 20
0.257693
 30
0.0
 11
324.42
 21
0.250803
 31
0.0
  0
LINE
  8
0
 62
     0
 10
324.42
 20
0.250803
 30
0.0
 11
2.096
 21
0.250803
 31
0.0
  0
LINE
  8
0
 62
     0
 10
2.096
 20
0.250803
 30
0.0
 11
1.9389
 21
0.257693
 31
0.0
  0
LINE
  8
0
 62
     0
 10
1.9389
 20
0.257693
 30
0.0
 11
1.7818
 21
0.275608
 31
0.0
  0
LINE
  8
0
 62
     0
 10
1.7818
 20
0.275608
 30
0.0
 11
1.62884
 21
0.307303
 31
0.0
  0
LINE
  8
0
 62
     0
 10
1.62884
 20
0.307303
 30
0.0
 11
1.47588
 21
0.348644
 31
0.0
  0
LINE
  8
0
 62
     0
 10
1.47588
 20
0.348644
 30
0.0
 11
1.32981
 21
0.403765
 31
0.0
  0
LINE
  8
0
 62
     0
 10
1.32981
 20
0.403765
 30
0.0
 11
1.18787
 21
0.468535
 31
0.0
  0
LINE
  8
0
 62
     0
 10
1.18787
 20
0.468535
 30
0.0
 11
1.05006
 21
0.545705
 31
0.0
  0
LINE
  8
0
 62
     0
 10
1.05006
 20
0.545705
 30
0.0
 11
0.919152
 21
0.63252
 31
0.0
  0
LINE
  8
0
 62
     0
 10
0.919152
 20
0.63252
 30
0.0
 11
0.796505
 21
0.730359
 31
0.0
  0
LINE
  8
0
 62
     0
 10
0.796505
 20
0.730359
 30
0.0
 11
0.680752
 21
0.836468
 31
0.0
  0
LINE
  8
0
 62
     0
 10
0.680752
 20
0.836468
 30
0.0
 11
0.574643
 21
0.952225
 31
0.0
  0
LINE
  8
0
 62
     0
 10
0.574643
 20
0.952225
 30
0.0
 11
0.4768
 21
1.07625
 31
0.0
  0
LINE
  8
0
 62
     0
 10
0.4768
 20
1.07625
 30
0.0
 11
0.389985
 21
1.20716
 31
0.0
  0
LINE
  8
0
 62
     0
 10
0.389985
 20
1.20716
 30
0.0
 11
0.312815
 21
1.34359
 31
0.0
  0
LINE
  8
0
 62
     0
 10
0.312815
 20
1.34359
 30
0.0
 11
0.248047
 21
1.48553
 31
0.0
  0
LINE
  8
0
 62
     0
 10
0.248047
 20
1.48553
 30
0.0
 11
0.192925
 21
1.63298
 31
0.0
  0
LINE
  8
0
 62
     0
 10
0.192925
 20
1.63298
 30
0.0
 11
0.150206
 21
1.78456
 31
0.0
  0
LINE
  8
0
 62
     0
 10
0.150206
 20
1.78456
 30
0.0
 11
0.119889
 21
1.9389
 31
0.0
  0
LINE
  8
0
 62
     0
 10
0.119889
 20
1.9389
 30
0.0
 11
0.101975
 21
2.09462
 31
0.0
  0
LINE
  8
0
 62
     0
 10
0.101975
 20
2.09462
 30
0.0
 11
0.0950846
 21
2.25034
 31
0.0
  0
LINE
  8
0
 62
     0
 10
0.0950846
 20
2.25034
 30
0.0
 11
0.0950846
 21
134.076
 31
0.0
  0
LINE
  8
0
 62
     0
 10
0.0950846
 20
134.076
 30
0.0
 11
0.101975
 21
134.233
 31
0.0
  0
LINE
  8
0
 62
     0
 10
0.101975
 20
134.233
 30
0.0
 11
0.119889
 21
134.39
 31
0.0
  0
LINE
  8
0
 62
     0
 10
0.119889
 20
134.39
 30
0.0
 11
0.150206
 21
134.543
 31
0.0
  0
LINE
  8
0
 62
     0
 10
0.150206
 20
134.543
 30
0.0
 11
0.192925
 21
134.696
 31
0.0
  0
LINE
  8
0
 62
     0
 10
0.192925
 20
134.696
 30
0.0
 11
0.248047
 21
134.842
 31
0.0
  0
LINE
  8
0
 62
     0
 10
0.248047
 20
134.842
 30
0.0
 11
0.312815
 21
134.984
 31
0.0
  0
LINE
  8
0
 62
     0
 10
0.312815
 20
134.984
 30
0.0
 11
0.389985
 21
135.122
 31
0.0
  0
LINE
  8
0
 62
     0
 10
0.389985
 20
135.122
 30
0.0
 11
0.4768
 21
135.253
 31
0.0
  0
LINE
  8
0
 62
     0
 10
0.4768
 20
135.253
 30
0.0
 11
0.574643
 21
135.376
 31
0.0
  0
LINE
  8
0
 62
     0
 10
0.574643
 20
135.376
 30
0.0
 11
0.680752
 21
135.491
 31
0.0
  0
LINE
  8
0
 62
     0
 10
0.680752
 20
135.491
 30
0.0
 11
0.796505
 21
135.598
 31
0.0
  0
LINE
  8
0
 62
     0
 10
0.796505
 20
135.598
 30
0.0
 11
0.919152
 21
135.695
 31
0.0
  0
LINE
  8
0
 62
     0
 10
0.919152
 20
135.695
 30
0.0
 11
1.05006
 21
135.782
 31
0.0
  0
LINE
  8
0
 62
     0
 10
1.05006
 20
135.782
 30
0.0
 11
1.18787
 21
135.859
 31
0.0
  0
LINE
  8
0
 62
     0
 10
1.18787
 20
135.859
 30
0.0
 11
1.32981
 21
135.924
 31
0.0
  0
LINE
  8
0
 62
     0
 10
1.32981
 20
135.924
 30
0.0
 11
1.47588
 21
135.979
 31
0.0
  0
LINE
  8
0
 62
     0
 10
1.47588
 20
135.979
 30
0.0
 11
1.62884
 21
136.022
 31
0.0
  0
LINE
  8
0
 62
     0
 10
1.62884
 20
136.022
 30
0.0
 11
1.7818
 21
136.052
 31
0.0
  0
LINE
  8
0
 62
     0
 10
1.7818
 20
136.052
 30
0.0
 11
1.9389
 21
136.07
 31
0.0
  0
LINE
  8
0
 62
     0
 10
1.9389
 20
136.07
 30
0.0
 11
2.096
 21
136.077
 31
0.0
  0
LINE
  8
0
 62
     0
 10
2.096
 20
136.077
 30
0.0
 11
324.422
 21
136.077
 31
0.0
  0
LINE
  8
0
 62
     0
 10
2.78501
 20
4.20303
 30
0.0
 11
2.50803
 21
4.06107
 31
0.0
  0
LINE
  8
0
 62
     0
 10
2.50803
 20
4.06107
 30
0.0
 11
2.28617
 21
3.83921
 31
0.0
  0
LINE
  8
0
 62
     0
 10
2.28617
 20
3.83921
 30
0.0
 11
2.14285
 21
3.56087
 31
0.0
  0
LINE
  8
0
 62
     0
 10
2.14285
 20
3.56087
 30
0.0
 11
2.096
 21
3.25079
 31
0.0
  0
LINE
  8
0
 62
     0
 10
2.096
 20
3.25079
 30
0.0
 11
2.14285
 21
2.94211
 31
0.0
  0
LINE
  8
0
 62
     0
 10
2.14285
 20
2.94211
 30
0.0
 11
2.28617
 21
2.66375
 31
0.0
  0
LINE
  8
0
 62
     0
 10
2.28617
 20
2.66375
 30
0.0
 11
2.50803
 21
2.44189
 31
0.0
  0
LINE
  8
0
 62
     0
 10
2.50803
 20
2.44189
 30
0.0
 11
2.78501
 21
2.29995
 31
0.0
  0
LINE
  8
0
 62
     0
 10
2.78501
 20
2.29995
 30
0.0
 11
3.09507
 21
2.25034
 31
0.0
  0
LINE
  8
0
 62
     0
 10
3.09507
 20
2.25034
 30
0.0
 11
3.40513
 21
2.29995
 31
0.0
  0
LINE
  8
0
 62
     0
 10
3.40513
 20
2.29995
 30
0.0
 11
3.68212
 21
2.44189
 31
0.0
  0
LINE
  8
0
 62
     0
 10
3.68212
 20
2.44189
 30
0.0
 11
3.90398
 21
2.66375
 31
0.0
  0
LINE
  8
0
 62
     0
 10
3.90398
 20
2.66375
 30
0.0
 11
4.04594
 21
2.94211
 31
0.0
  0
LINE
  8
0
 62
     0
 10
4.04594
 20
2.94211
 30
0.0
 11
4.09554
 21
3.25079
 31
0.0
  0
LINE
  8
0
 62
     0
 10
4.09554
 20
3.25079
 30
0.0
 11
4.04594
 21
3.56087
 31
0.0
  0
LINE
  8
0
 62
     0
 10
4.04594
 20
3.56087
 30
0.0
 11
3.90398
 21
3.83921
 31
0.0
  0
LINE
  8
0
 62
     0
 10
3.90398
 20
3.83921
 30
0.0
 11
3.68212
 21
4.06107
 31
0.0
  0
LINE
  8
0
 62
     0
 10
3.68212
 20
4.06107
 30
0.0
 11
3.40513
 21
4.20303
 31
0.0
  0
LINE
  8
0
 62
     0
 10
3.40513
 20
4.20303
 30
0.0
 11
3.09507
 21
4.25125
 31
0.0
  0
LINE
  8
0
 62
     0
 10
3.09507
 20
4.25125
 30
0.0
 11
2.78501
 21
4.20303
 31
0.0
  0
LINE
  8
0
 62
     0
 10
66.8514
 20
4.20303
 30
0.0
 11
66.573
 21
4.06107
 31
0.0
  0
LINE
  8
0
 62
     0
 10
66.573
 20
4.06107
 30
0.0
 11
66.3512
 21
3.83921
 31
0.0
  0
LINE
  8
0
 62
     0
 10
66.3512
 20
3.83921
 30
0.0
 11
66.2093
 21
3.56087
 31
0.0
  0
LINE
  8
0
 62
     0
 10
66.2093
 20
3.56087
 30
0.0
 11
66.161
 21
3.25079
 31
0.0
  0
LINE
  8
0
 62
     0
 10
66.161
 20
3.25079
 30
0.0
 11
66.2093
 21
2.94211
 31
0.0
  0
LINE
  8
0
 62
     0
 10
66.2093
 20
2.94211
 30
0.0
 11
66.3512
 21
2.66375
 31
0.0
  0
LINE
  8
0
 62
     0
 10
66.3512
 20
2.66375
 30
0.0
 11
66.573
 21
2.44189
 31
0.0
  0
LINE
  8
0
 62
     0
 10
66.573
 20
2.44189
 30
0.0
 11
66.8514
 21
2.29995
 31
0.0
  0
LINE
  8
0
 62
     0
 10
66.8514
 20
2.29995
 30
0.0
 11
67.1601
 21
2.25034
 31
0.0
  0
LINE
  8
0
 62
     0
 10
67.1601
 20
2.25034
 30
0.0
 11
67.4702
 21
2.29995
 31
0.0
  0
LINE
  8
0
 62
     0
 10
67.4702
 20
2.29995
 30
0.0
 11
67.7471
 21
2.44189
 31
0.0
  0
LINE
  8
0
 62
     0
 10
67.7471
 20
2.44189
 30
0.0
 11
67.969
 21
2.66375
 31
0.0
  0
LINE
  8
0
 62
     0
 10
67.969
 20
2.66375
 30
0.0
 11
68.1108
 21
2.94211
 31
0.0
  0
LINE
  8
0
 62
     0
 10
68.1108
 20
2.94211
 30
0.0
 11
68.1605
 21
3.25079
 31
0.0
  0
LINE
  8
0
 62
     0
 10
68.1605
 20
3.25079
 30
0.0
 11
68.1108
 21
3.56087
 31
0.0
  0
LINE
  8
0
 62
     0
 10
68.1108
 20
3.56087
 30
0.0
 11
67.969
 21
3.83921
 31
0.0
  0
LINE
  8
0
 62
     0
 10
67.969
 20
3.83921
 30
0.0
 11
67.7471
 21
4.06107
 31
0.0
  0
LINE
  8
0
 62
     0
 10
67.7471
 20
4.06107
 30
0.0
 11
67.4702
 21
4.20303
 31
0.0
  0
LINE
  8
0
 62
     0
 10
67.4702
 20
4.20303
 30
0.0
 11
67.1601
 21
4.25125
 31
0.0
  0
LINE
  8
0
 62
     0
 10
67.1601
 20
4.25125
 30
0.0
 11
66.8514
 21
4.20303
 31
0.0
  0
LINE
  8
0
 62
     0
 10
130.917
 20
4.20303
 30
0.0
 11
130.638
 21
4.06107
 31
0.0
  0
LINE
  8
0
 62
     0
 10
130.638
 20
4.06107
 30
0.0
 11
130.416
 21
3.83921
 31
0.0
  0
LINE
  8
0
 62
     0
 10
130.416
 20
3.83921
 30
0.0
 11
130.274
 21
3.56087
 31
0.0
  0
LINE
  8
0
 62
     0
 10
130.274
 20
3.56087
 30
0.0
 11
130.226
 21
3.25079
 31
0.0
  0
LINE
  8
0
 62
     0
 10
130.226
 20
3.25079
 30
0.0
 11
130.274
 21
2.94211
 31
0.0
  0
LINE
  8
0
 62
     0
 10
130.274
 20
2.94211
 30
0.0
 11
130.416
 21
2.66375
 31
0.0
  0
LINE
  8
0
 62
     0
 10
130.416
 20
2.66375
 30
0.0
 11
130.638
 21
2.44189
 31
0.0
  0
LINE
  8
0
 62
     0
 10
130.638
 20
2.44189
 30
0.0
 11
130.917
 21
2.29995
 31
0.0
  0
LINE
  8
0
 62
     0
 10
130.917
 20
2.29995
 30
0.0
 11
131.225
 21
2.25034
 31
0.0
  0
LINE
  8
0
 62
     0
 10
131.225
 20
2.25034
 30
0.0
 11
131.535
 21
2.29995
 31
0.0
  0
LINE
  8
0
 62
     0
 10
131.535
 20
2.29995
 30
0.0
 11
131.814
 21
2.44189
 31
0.0
  0
LINE
  8
0
 62
     0
 10
131.814
 20
2.44189
 30
0.0
 11
132.034
 21
2.66375
 31
0.0
  0
LINE
  8
0
 62
     0
 10
132.034
 20
2.66375
 30
0.0
 11
132.176
 21
2.94211
 31
0.0
  0
LINE
  8
0
 62
     0
 10
132.176
 20
2.94211
 30
0.0
 11
132.226
 21
3.25079
 31
0.0
  0
LINE
  8
0
 62
     0
 10
132.226
 20
3.25079
 30
0.0
 11
132.176
 21
3.56087
 31
0.0
  0
LINE
  8
0
 62
     0
 10
132.176
 20
3.56087
 30
0.0
 11
132.034
 21
3.83921
 31
0.0
  0
LINE
  8
0
 62
     0
 10
132.034
 20
3.83921
 30
0.0
 11
131.814
 21
4.06107
 31
0.0
  0
LINE
  8
0
 62
     0
 10
131.814
 20
4.06107
 30
0.0
 11
131.535
 21
4.20303
 31
0.0
  0
LINE
  8
0
 62
     0
 10
131.535
 20
4.20303
 30
0.0
 11
131.225
 21
4.25125
 31
0.0
  0
LINE
  8
0
 62
     0
 10
131.225
 20
4.25125
 30
0.0
 11
130.917
 21
4.20303
 31
0.0
  0
LINE
  8
0
 62
     0
 10
194.981
 20
4.20303
 30
0.0
 11
194.703
 21
4.06107
 31
0.0
  0
LINE
  8
0
 62
     0
 10
194.703
 20
4.06107
 30
0.0
 11
194.481
 21
3.83921
 31
0.0
  0
LINE
  8
0
 62
     0
 10
194.481
 20
3.83921
 30
0.0
 11
194.339
 21
3.56087
 31
0.0
  0
LINE
  8
0
 62
     0
 10
194.339
 20
3.56087
 30
0.0
 11
194.291
 21
3.25079
 31
0.0
  0
LINE
  8
0
 62
     0
 10
194.291
 20
3.25079
 30
0.0
 11
194.339
 21
2.94211
 31
0.0
  0
LINE
  8
0
 62
     0
 10
194.339
 20
2.94211
 30
0.0
 11
194.481
 21
2.66375
 31
0.0
  0
LINE
  8
0
 62
     0
 10
194.481
 20
2.66375
 30
0.0
 11
194.703
 21
2.44189
 31
0.0
  0
LINE
  8
0
 62
     0
 10
194.703
 20
2.44189
 30
0.0
 11
194.981
 21
2.29995
 31
0.0
  0
LINE
  8
0
 62
     0
 10
194.981
 20
2.29995
 30
0.0
 11
195.29
 21
2.25034
 31
0.0
  0
LINE
  8
0
 62
     0
 10
195.29
 20
2.25034
 30
0.0
 11
195.6
 21
2.29995
 31
0.0
  0
LINE
  8
0
 62
     0
 10
195.6
 20
2.29995
 30
0.0
 11
195.878
 21
2.44189
 31
0.0
  0
LINE
  8
0
 62
     0
 10
195.878
 20
2.44189
 30
0.0
 11
196.099
 21
2.66375
 31
0.0
  0
LINE
  8
0
 62
     0
 10
196.099
 20
2.66375
 30
0.0
 11
196.241
 21
2.94211
 31
0.0
  0
LINE
  8
0
 62
     0
 10
196.241
 20
2.94211
 30
0.0
 11
196.29
 21
3.25079
 31
0.0
  0
LINE
  8
0
 62
     0
 10
196.29
 20
3.25079
 30
0.0
 11
196.241
 21
3.56087
 31
0.0
  0
LINE
  8
0
 62
     0
 10
196.241
 20
3.56087
 30
0.0
 11
196.099
 21
3.83921
 31
0.0
  0
LINE
  8
0
 62
     0
 10
196.099
 20
3.83921
 30
0.0
 11
195.878
 21
4.06107
 31
0.0
  0
LINE
  8
0
 62
     0
 10
195.878
 20
4.06107
 30
0.0
 11
195.6
 21
4.20303
 31
0.0
  0
LINE
  8
0
 62
     0
 10
195.6
 20
4.20303
 30
0.0
 11
195.29
 21
4.25125
 31
0.0
  0
LINE
  8
0
 62
     0
 10
195.29
 20
4.25125
 30
0.0
 11
194.981
 21
4.20303
 31
0.0
  0
LINE
  8
0
 62
     0
 10
259.046
 20
4.20303
 30
0.0
 11
258.768
 21
4.06107
 31
0.0
  0
LINE
  8
0
 62
     0
 10
258.768
 20
4.06107
 30
0.0
 11
258.546
 21
3.83921
 31
0.0
  0
LINE
  8
0
 62
     0
 10
258.546
 20
3.83921
 30
0.0
 11
258.404
 21
3.56087
 31
0.0
  0
LINE
  8
0
 62
     0
 10
258.404
 20
3.56087
 30
0.0
 11
258.356
 21
3.25079
 31
0.0
  0
LINE
  8
0
 62
     0
 10
258.356
 20
3.25079
 30
0.0
 11
258.404
 21
2.94211
 31
0.0
  0
LINE
  8
0
 62
     0
 10
258.404
 20
2.94211
 30
0.0
 11
258.546
 21
2.66375
 31
0.0
  0
LINE
  8
0
 62
     0
 10
258.546
 20
2.66375
 30
0.0
 11
258.768
 21
2.44189
 31
0.0
  0
LINE
  8
0
 62
     0
 10
258.768
 20
2.44189
 30
0.0
 11
259.046
 21
2.29995
 31
0.0
  0
LINE
  8
0
 62
     0
 10
259.046
 20
2.29995
 30
0.0
 11
259.355
 21
2.25034
 31
0.0
  0
LINE
  8
0
 62
     0
 10
259.355
 20
2.25034
 30
0.0
 11
259.665
 21
2.29995
 31
0.0
  0
LINE
  8
0
 62
     0
 10
259.665
 20
2.29995
 30
0.0
 11
259.944
 21
2.44189
 31
0.0
  0
LINE
  8
0
 62
     0
 10
259.944
 20
2.44189
 30
0.0
 11
260.164
 21
2.66375
 31
0.0
  0
LINE
  8
0
 62
     0
 10
260.164
 20
2.66375
 30
0.0
 11
260.306
 21
2.94211
 31
0.0
  0
LINE
  8
0
 62
     0
 10
260.306
 20
2.94211
 30
0.0
 11
260.356
 21
3.25079
 31
0.0
  0
LINE
  8
0
 62
     0
 10
260.356
 20
3.25079
 30
0.0
 11
260.306
 21
3.56087
 31
0.0
  0
LINE
  8
0
 62
     0
 10
260.306
 20
3.56087
 30
0.0
 11
260.164
 21
3.83921
 31
0.0
  0
LINE
  8
0
 62
     0
 10
260.164
 20
3.83921
 30
0.0
 11
259.944
 21
4.06107
 31
0.0
  0
LINE
  8
0
 62
     0
 10
259.944
 20
4.06107
 30
0.0
 11
259.665
 21
4.20303
 31
0.0
  0
LINE
  8
0
 62
     0
 10
259.665
 20
4.20303
 30
0.0
 11
259.355
 21
4.25125
 31
0.0
  0
LINE
  8
0
 62
     0
 10
259.355
 20
4.25125
 30
0.0
 11
259.046
 21
4.20303
 31
0.0
  0
LINE
  8
0
 62
     0
 10
323.111
 20
4.20303
 30
0.0
 11
322.833
 21
4.06107
 31
0.0
  0
LINE
  8
0
 62
     0
 10
322.833
 20
4.06107
 30
0.0
 11
322.611
 21
3.83921
 31
0.0
  0
LINE
  8
0
 62
     0
 10
322.611
 20
3.83921
 30
0.0
 11
322.469
 21
3.56087
 31
0.0
  0
LINE
  8
0
 62
     0
 10
322.469
 20
3.56087
 30
0.0
 11
322.421
 21
3.25079
 31
0.0
  0
LINE
  8
0
 62
     0
 10
322.421
 20
3.25079
 30
0.0
 11
322.469
 21
2.94211
 31
0.0
  0
LINE
  8
0
 62
     0
 10
322.469
 20
2.94211
 30
0.0
 11
322.611
 21
2.66375
 31
0.0
  0
LINE
  8
0
 62
     0
 10
322.611
 20
2.66375
 30
0.0
 11
322.833
 21
2.44189
 31
0.0
  0
LINE
  8
0
 62
     0
 10
322.833
 20
2.44189
 30
0.0
 11
323.111
 21
2.29995
 31
0.0
  0
LINE
  8
0
 62
     0
 10
323.111
 20
2.29995
 30
0.0
 11
323.421
 21
2.25034
 31
0.0
  0
LINE
  8
0
 62
     0
 10
323.421
 20
2.25034
 30
0.0
 11
323.73
 21
2.29995
 31
0.0
  0
LINE
  8
0
 62
     0
 10
323.73
 20
2.29995
 30
0.0
 11
324.008
 21
2.44189
 31
0.0
  0
LINE
  8
0
 62
     0
 10
324.008
 20
2.44189
 30
0.0
 11
324.23
 21
2.66375
 31
0.0
  0
LINE
  8
0
 62
     0
 10
324.23
 20
2.66375
 30
0.0
 11
324.372
 21
2.94211
 31
0.0
  0
LINE
  8
0
 62
     0
 10
324.372
 20
2.94211
 30
0.0
 11
324.422
 21
3.25079
 31
0.0
  0
LINE
  8
0
 62
     0
 10
324.422
 20
3.25079
 30
0.0
 11
324.372
 21
3.56087
 31
0.0
  0
LINE
  8
0
 62
     0
 10
324.372
 20
3.56087
 30
0.0
 11
324.23
 21
3.83921
 31
0.0
  0
LINE
  8
0
 62
     0
 10
324.23
 20
3.83921
 30
0.0
 11
324.008
 21
4.06107
 31
0.0
  0
LINE
  8
0
 62
     0
 10
324.008
 20
4.06107
 30
0.0
 11
323.73
 21
4.20303
 31
0.0
  0
LINE
  8
0
 62
     0
 10
323.73
 20
4.20303
 30
0.0
 11
323.421
 21
4.25125
 31
0.0
  0
LINE
  8
0
 62
     0
 10
323.421
 20
4.25125
 30
0.0
 11
323.111
 21
4.20303
 31
0.0
  0
LINE
  8
0
 62
     0
 10
299.132
 20
22.7762
 30
0.0
 11
313.133
 21
22.7762
 31
0.0
  0
LINE
  8
0
 62
     0
 10
313.133
 20
22.7762
 30
0.0
 11
313.133
 21
8.77672
 31
0.0
  0
LINE
  8
0
 62
     0
 10
313.133
 20
8.77672
 30
0.0
 11
299.132
 21
8.77672
 31
0.0
  0
LINE
  8
0
 62
     0
 10
299.132
 20
8.77672
 30
0.0
 11
299.132
 21
22.7762
 31
0.0
  0
LINE
  8
0
 62
     0
 10
280.082
 20
22.7762
 30
0.0
 11
294.083
 21
22.7762
 31
0.0
  0
LINE
  8
0
 62
     0
 10
294.083
 20
22.7762
 30
0.0
 11
294.083
 21
8.77672
 31
0.0
  0
LINE
  8
0
 62
     0
 10
294.083
 20
8.77672
 30
0.0
 11
280.082
 21
8.77672
 31
0.0
  0
LINE
  8
0
 62
     0
 10
280.082
 20
8.77672
 30
0.0
 11
280.082
 21
22.7762
 31
0.0
  0
LINE
  8
0
 62
     0
 10
261.032
 20
22.7762
 30
0.0
 11
275.033
 21
22.7762
 31
0.0
  0
LINE
  8
0
 62
     0
 10
275.033
 20
22.7762
 30
0.0
 11
275.033
 21
8.77672
 31
0.0
  0
LINE
  8
0
 62
     0
 10
275.033
 20
8.77672
 30
0.0
 11
261.032
 21
8.77672
 31
0.0
  0
LINE
  8
0
 62
     0
 10
261.032
 20
8.77672
 30
0.0
 11
261.032
 21
22.7762
 31
0.0
  0
LINE
  8
0
 62
     0
 10
141.971
 20
27.5401
 30
0.0
 11
141.971
 21
22.8396
 31
0.0
  0
LINE
  8
0
 62
     0
 10
141.971
 20
22.8396
 30
0.0
 11
95.195
 21
22.8396
 31
0.0
  0
LINE
  8
0
 62
     0
 10
95.195
 20
22.8396
 30
0.0
 11
95.195
 21
26.0697
 31
0.0
  0
LINE
  8
0
 62
     0
 10
95.195
 20
26.0697
 30
0.0
 11
88.4453
 21
26.0697
 31
0.0
  0
LINE
  8
0
 62
     0
 10
88.4453
 20
26.0697
 30
0.0
 11
88.4453
 21
22.8396
 31
0.0
  0
LINE
  8
0
 62
     0
 10
88.4453
 20
22.8396
 30
0.0
 11
87.6198
 21
22.8396
 31
0.0
  0
LINE
  8
0
 62
     0
 10
87.6198
 20
22.8396
 30
0.0
 11
87.6198
 21
20.0394
 31
0.0
  0
LINE
  8
0
 62
     0
 10
87.6198
 20
20.0394
 30
0.0
 11
88.4453
 21
20.0394
 31
0.0
  0
LINE
  8
0
 62
     0
 10
88.4453
 20
20.0394
 30
0.0
 11
88.4453
 21
13.7694
 31
0.0
  0
LINE
  8
0
 62
     0
 10
88.4453
 20
13.7694
 30
0.0
 11
90.1707
 21
13.7694
 31
0.0
  0
LINE
  8
0
 62
     0
 10
90.1707
 20
13.7694
 30
0.0
 11
90.1707
 21
12.5691
 31
0.0
  0
LINE
  8
0
 62
     0
 10
90.1707
 20
12.5691
 30
0.0
 11
93.4709
 21
12.5691
 31
0.0
  0
LINE
  8
0
 62
     0
 10
93.4709
 20
12.5691
 30
0.0
 11
93.4709
 21
13.7694
 31
0.0
  0
LINE
  8
0
 62
     0
 10
93.4709
 20
13.7694
 30
0.0
 11
95.195
 21
13.7694
 31
0.0
  0
LINE
  8
0
 62
     0
 10
95.195
 20
13.7694
 30
0.0
 11
95.195
 21
18.2397
 31
0.0
  0
LINE
  8
0
 62
     0
 10
95.195
 20
18.2397
 30
0.0
 11
141.971
 21
18.2397
 31
0.0
  0
LINE
  8
0
 62
     0
 10
141.971
 20
18.2397
 30
0.0
 11
141.971
 21
13.5392
 31
0.0
  0
LINE
  8
0
 62
     0
 10
141.971
 20
13.5392
 30
0.0
 11
155.97
 21
13.5392
 31
0.0
  0
LINE
  8
0
 62
     0
 10
155.97
 20
13.5392
 30
0.0
 11
155.97
 21
18.2397
 31
0.0
  0
LINE
  8
0
 62
     0
 10
155.97
 20
18.2397
 30
0.0
 11
202.745
 21
18.2397
 31
0.0
  0
LINE
  8
0
 62
     0
 10
202.745
 20
18.2397
 30
0.0
 11
202.745
 21
13.7694
 31
0.0
  0
LINE
  8
0
 62
     0
 10
202.745
 20
13.7694
 30
0.0
 11
204.471
 21
13.7694
 31
0.0
  0
LINE
  8
0
 62
     0
 10
204.471
 20
13.7694
 30
0.0
 11
204.471
 21
12.5691
 31
0.0
  0
LINE
  8
0
 62
     0
 10
204.471
 20
12.5691
 30
0.0
 11
207.771
 21
12.5691
 31
0.0
  0
LINE
  8
0
 62
     0
 10
207.771
 20
12.5691
 30
0.0
 11
207.771
 21
13.7694
 31
0.0
  0
LINE
  8
0
 62
     0
 10
207.771
 20
13.7694
 30
0.0
 11
209.495
 21
13.7694
 31
0.0
  0
LINE
  8
0
 62
     0
 10
209.495
 20
13.7694
 30
0.0
 11
209.495
 21
20.0394
 31
0.0
  0
LINE
  8
0
 62
     0
 10
209.495
 20
20.0394
 30
0.0
 11
210.32
 21
20.0394
 31
0.0
  0
LINE
  8
0
 62
     0
 10
210.32
 20
20.0394
 30
0.0
 11
210.32
 21
22.8396
 31
0.0
  0
LINE
  8
0
 62
     0
 10
210.32
 20
22.8396
 30
0.0
 11
209.495
 21
22.8396
 31
0.0
  0
LINE
  8
0
 62
     0
 10
209.495
 20
22.8396
 30
0.0
 11
209.495
 21
26.0697
 31
0.0
  0
LINE
  8
0
 62
     0
 10
209.495
 20
26.0697
 30
0.0
 11
202.745
 21
26.0697
 31
0.0
  0
LINE
  8
0
 62
     0
 10
202.745
 20
26.0697
 30
0.0
 11
202.745
 21
22.8396
 31
0.0
  0
LINE
  8
0
 62
     0
 10
202.745
 20
22.8396
 30
0.0
 11
155.97
 21
22.8396
 31
0.0
  0
LINE
  8
0
 62
     0
 10
155.97
 20
22.8396
 30
0.0
 11
155.97
 21
27.5401
 31
0.0
  0
LINE
  8
0
 62
     0
 10
155.97
 20
27.5401
 30
0.0
 11
141.971
 21
27.5401
 31
0.0
  0
LINE
  8
0
 62
     0
 10
237.221
 20
27.5401
 30
0.0
 11
251.22
 21
27.5401
 31
0.0
  0
LINE
  8
0
 62
     0
 10
251.22
 20
27.5401
 30
0.0
 11
251.22
 21
13.5392
 31
0.0
  0
LINE
  8
0
 62
     0
 10
251.22
 20
13.5392
 30
0.0
 11
237.221
 21
13.5392
 31
0.0
  0
LINE
  8
0
 62
     0
 10
237.221
 20
13.5392
 30
0.0
 11
237.221
 21
27.5401
 31
0.0
  0
LINE
  8
0
 62
     0
 10
218.171
 20
27.5401
 30
0.0
 11
232.17
 21
27.5401
 31
0.0
  0
LINE
  8
0
 62
     0
 10
232.17
 20
27.5401
 30
0.0
 11
232.17
 21
13.5392
 31
0.0
  0
LINE
  8
0
 62
     0
 10
232.17
 20
13.5392
 30
0.0
 11
218.171
 21
13.5392
 31
0.0
  0
LINE
  8
0
 62
     0
 10
218.171
 20
13.5392
 30
0.0
 11
218.171
 21
27.5401
 31
0.0
  0
LINE
  8
0
 62
     0
 10
61.0073
 20
27.5401
 30
0.0
 11
75.008
 21
27.5401
 31
0.0
  0
LINE
  8
0
 62
     0
 10
75.008
 20
27.5401
 30
0.0
 11
75.008
 21
13.5392
 31
0.0
  0
LINE
  8
0
 62
     0
 10
75.008
 20
13.5392
 30
0.0
 11
61.0073
 21
13.5392
 31
0.0
  0
LINE
  8
0
 62
     0
 10
61.0073
 20
13.5392
 30
0.0
 11
61.0073
 21
27.5401
 31
0.0
  0
LINE
  8
0
 62
     0
 10
37.1962
 20
27.5401
 30
0.0
 11
51.1955
 21
27.5401
 31
0.0
  0
LINE
  8
0
 62
     0
 10
51.1955
 20
27.5401
 30
0.0
 11
51.1955
 21
13.5392
 31
0.0
  0
LINE
  8
0
 62
     0
 10
51.1955
 20
13.5392
 30
0.0
 11
37.1962
 21
13.5392
 31
0.0
  0
LINE
  8
0
 62
     0
 10
37.1962
 20
13.5392
 30
0.0
 11
37.1962
 21
27.5401
 31
0.0
  0
LINE
  8
0
 62
     0
 10
13.3821
 20
27.5401
 30
0.0
 11
27.383
 21
27.5401
 31
0.0
  0
LINE
  8
0
 62
     0
 10
27.383
 20
27.5401
 30
0.0
 11
27.383
 21
13.5392
 31
0.0
  0
LINE
  8
0
 62
     0
 10
27.383
 20
13.5392
 30
0.0
 11
13.3821
 21
13.5392
 31
0.0
  0
LINE
  8
0
 62
     0
 10
13.3821
 20
13.5392
 30
0.0
 11
13.3821
 21
27.5401
 31
0.0
  0
LINE
  8
0
 62
     0
 10
280.082
 20
41.8264
 30
0.0
 11
294.083
 21
41.8264
 31
0.0
  0
LINE
  8
0
 62
     0
 10
294.083
 20
41.8264
 30
0.0
 11
294.083
 21
27.8267
 31
0.0
  0
LINE
  8
0
 62
     0
 10
294.083
 20
27.8267
 30
0.0
 11
280.082
 21
27.8267
 31
0.0
  0
LINE
  8
0
 62
     0
 10
280.082
 20
27.8267
 30
0.0
 11
280.082
 21
41.8264
 31
0.0
  0
LINE
  8
0
 62
     0
 10
20.5259
 20
46.5899
 30
0.0
 11
20.5259
 21
41.8895
 31
0.0
  0
LINE
  8
0
 62
     0
 10
20.5259
 20
41.8895
 30
0.0
 11
19.0018
 21
41.8895
 31
0.0
  0
LINE
  8
0
 62
     0
 10
19.0018
 20
41.8895
 30
0.0
 11
19.0018
 21
45.1196
 31
0.0
  0
LINE
  8
0
 62
     0
 10
19.0018
 20
45.1196
 30
0.0
 11
12.2521
 21
45.1196
 31
0.0
  0
LINE
  8
0
 62
     0
 10
12.2521
 20
45.1196
 30
0.0
 11
12.2521
 21
41.8895
 31
0.0
  0
LINE
  8
0
 62
     0
 10
12.2521
 20
41.8895
 30
0.0
 11
11.4267
 21
41.8895
 31
0.0
  0
LINE
  8
0
 62
     0
 10
11.4267
 20
41.8895
 30
0.0
 11
11.4267
 21
39.0895
 31
0.0
  0
LINE
  8
0
 62
     0
 10
11.4267
 20
39.0895
 30
0.0
 11
12.2521
 21
39.0895
 31
0.0
  0
LINE
  8
0
 62
     0
 10
12.2521
 20
39.0895
 30
0.0
 11
12.2521
 21
32.8194
 31
0.0
  0
LINE
  8
0
 62
     0
 10
12.2521
 20
32.8194
 30
0.0
 11
13.9761
 21
32.8194
 31
0.0
  0
LINE
  8
0
 62
     0
 10
13.9761
 20
32.8194
 30
0.0
 11
13.9761
 21
31.6191
 31
0.0
  0
LINE
  8
0
 62
     0
 10
13.9761
 20
31.6191
 30
0.0
 11
17.2765
 21
31.6191
 31
0.0
  0
LINE
  8
0
 62
     0
 10
17.2765
 20
31.6191
 30
0.0
 11
17.2765
 21
32.8194
 31
0.0
  0
LINE
  8
0
 62
     0
 10
17.2765
 20
32.8194
 30
0.0
 11
19.0018
 21
32.8194
 31
0.0
  0
LINE
  8
0
 62
     0
 10
19.0018
 20
32.8194
 30
0.0
 11
19.0018
 21
37.2897
 31
0.0
  0
LINE
  8
0
 62
     0
 10
19.0018
 20
37.2897
 30
0.0
 11
20.5259
 21
37.2897
 31
0.0
  0
LINE
  8
0
 62
     0
 10
20.5259
 20
37.2897
 30
0.0
 11
20.5259
 21
32.5892
 31
0.0
  0
LINE
  8
0
 62
     0
 10
20.5259
 20
32.5892
 30
0.0
 11
34.5267
 21
32.5892
 31
0.0
  0
LINE
  8
0
 62
     0
 10
34.5267
 20
32.5892
 30
0.0
 11
34.5267
 21
37.2897
 31
0.0
  0
LINE
  8
0
 62
     0
 10
34.5267
 20
37.2897
 30
0.0
 11
36.0507
 21
37.2897
 31
0.0
  0
LINE
  8
0
 62
     0
 10
36.0507
 20
37.2897
 30
0.0
 11
36.0507
 21
32.8194
 31
0.0
  0
LINE
  8
0
 62
     0
 10
36.0507
 20
32.8194
 30
0.0
 11
37.7762
 21
32.8194
 31
0.0
  0
LINE
  8
0
 62
     0
 10
37.7762
 20
32.8194
 30
0.0
 11
37.7762
 21
31.6191
 31
0.0
  0
LINE
  8
0
 62
     0
 10
37.7762
 20
31.6191
 30
0.0
 11
41.0767
 21
31.6191
 31
0.0
  0
LINE
  8
0
 62
     0
 10
41.0767
 20
31.6191
 30
0.0
 11
41.0767
 21
32.8194
 31
0.0
  0
LINE
  8
0
 62
     0
 10
41.0767
 20
32.8194
 30
0.0
 11
42.8018
 21
32.8194
 31
0.0
  0
LINE
  8
0
 62
     0
 10
42.8018
 20
32.8194
 30
0.0
 11
42.8018
 21
39.0895
 31
0.0
  0
LINE
  8
0
 62
     0
 10
42.8018
 20
39.0895
 30
0.0
 11
43.6259
 21
39.0895
 31
0.0
  0
LINE
  8
0
 62
     0
 10
43.6259
 20
39.0895
 30
0.0
 11
43.6259
 21
41.8895
 31
0.0
  0
LINE
  8
0
 62
     0
 10
43.6259
 20
41.8895
 30
0.0
 11
42.8018
 21
41.8895
 31
0.0
  0
LINE
  8
0
 62
     0
 10
42.8018
 20
41.8895
 30
0.0
 11
42.8018
 21
45.1196
 31
0.0
  0
LINE
  8
0
 62
     0
 10
42.8018
 20
45.1196
 30
0.0
 11
36.0507
 21
45.1196
 31
0.0
  0
LINE
  8
0
 62
     0
 10
36.0507
 20
45.1196
 30
0.0
 11
36.0507
 21
41.8895
 31
0.0
  0
LINE
  8
0
 62
     0
 10
36.0507
 20
41.8895
 30
0.0
 11
34.5267
 21
41.8895
 31
0.0
  0
LINE
  8
0
 62
     0
 10
34.5267
 20
41.8895
 30
0.0
 11
34.5267
 21
46.5899
 31
0.0
  0
LINE
  8
0
 62
     0
 10
34.5267
 20
46.5899
 30
0.0
 11
20.5259
 21
46.5899
 31
0.0
  0
LINE
  8
0
 62
     0
 10
303.896
 20
46.5899
 30
0.0
 11
317.895
 21
46.5899
 31
0.0
  0
LINE
  8
0
 62
     0
 10
317.895
 20
46.5899
 30
0.0
 11
317.895
 21
32.5892
 31
0.0
  0
LINE
  8
0
 62
     0
 10
317.895
 20
32.5892
 30
0.0
 11
303.896
 21
32.5892
 31
0.0
  0
LINE
  8
0
 62
     0
 10
303.896
 20
32.5892
 30
0.0
 11
303.896
 21
46.5899
 31
0.0
  0
LINE
  8
0
 62
     0
 10
249.126
 20
46.5899
 30
0.0
 11
263.127
 21
46.5899
 31
0.0
  0
LINE
  8
0
 62
     0
 10
263.127
 20
46.5899
 30
0.0
 11
263.127
 21
32.5892
 31
0.0
  0
LINE
  8
0
 62
     0
 10
263.127
 20
32.5892
 30
0.0
 11
249.126
 21
32.5892
 31
0.0
  0
LINE
  8
0
 62
     0
 10
249.126
 20
32.5892
 30
0.0
 11
249.126
 21
46.5899
 31
0.0
  0
LINE
  8
0
 62
     0
 10
222.932
 20
46.5899
 30
0.0
 11
236.933
 21
46.5899
 31
0.0
  0
LINE
  8
0
 62
     0
 10
236.933
 20
46.5899
 30
0.0
 11
236.933
 21
32.5892
 31
0.0
  0
LINE
  8
0
 62
     0
 10
236.933
 20
32.5892
 30
0.0
 11
222.932
 21
32.5892
 31
0.0
  0
LINE
  8
0
 62
     0
 10
222.932
 20
32.5892
 30
0.0
 11
222.932
 21
46.5899
 31
0.0
  0
LINE
  8
0
 62
     0
 10
203.882
 20
46.5899
 30
0.0
 11
217.883
 21
46.5899
 31
0.0
  0
LINE
  8
0
 62
     0
 10
217.883
 20
46.5899
 30
0.0
 11
217.883
 21
32.5892
 31
0.0
  0
LINE
  8
0
 62
     0
 10
217.883
 20
32.5892
 30
0.0
 11
203.882
 21
32.5892
 31
0.0
  0
LINE
  8
0
 62
     0
 10
203.882
 20
32.5892
 30
0.0
 11
203.882
 21
46.5899
 31
0.0
  0
LINE
  8
0
 62
     0
 10
184.832
 20
46.5899
 30
0.0
 11
198.833
 21
46.5899
 31
0.0
  0
LINE
  8
0
 62
     0
 10
198.833
 20
46.5899
 30
0.0
 11
198.833
 21
32.5892
 31
0.0
  0
LINE
  8
0
 62
     0
 10
198.833
 20
32.5892
 30
0.0
 11
184.832
 21
32.5892
 31
0.0
  0
LINE
  8
0
 62
     0
 10
184.832
 20
32.5892
 30
0.0
 11
184.832
 21
46.5899
 31
0.0
  0
LINE
  8
0
 62
     0
 10
165.782
 20
46.5899
 30
0.0
 11
179.783
 21
46.5899
 31
0.0
  0
LINE
  8
0
 62
     0
 10
179.783
 20
46.5899
 30
0.0
 11
179.783
 21
32.5892
 31
0.0
  0
LINE
  8
0
 62
     0
 10
179.783
 20
32.5892
 30
0.0
 11
165.782
 21
32.5892
 31
0.0
  0
LINE
  8
0
 62
     0
 10
165.782
 20
32.5892
 30
0.0
 11
165.782
 21
46.5899
 31
0.0
  0
LINE
  8
0
 62
     0
 10
146.732
 20
46.5899
 30
0.0
 11
160.733
 21
46.5899
 31
0.0
  0
LINE
  8
0
 62
     0
 10
160.733
 20
46.5899
 30
0.0
 11
160.733
 21
32.5892
 31
0.0
  0
LINE
  8
0
 62
     0
 10
160.733
 20
32.5892
 30
0.0
 11
146.732
 21
32.5892
 31
0.0
  0
LINE
  8
0
 62
     0
 10
146.732
 20
32.5892
 30
0.0
 11
146.732
 21
46.5899
 31
0.0
  0
LINE
  8
0
 62
     0
 10
127.682
 20
46.5899
 30
0.0
 11
141.683
 21
46.5899
 31
0.0
  0
LINE
  8
0
 62
     0
 10
141.683
 20
46.5899
 30
0.0
 11
141.683
 21
32.5892
 31
0.0
  0
LINE
  8
0
 62
     0
 10
141.683
 20
32.5892
 30
0.0
 11
127.682
 21
32.5892
 31
0.0
  0
LINE
  8
0
 62
     0
 10
127.682
 20
32.5892
 30
0.0
 11
127.682
 21
46.5899
 31
0.0
  0
LINE
  8
0
 62
     0
 10
108.632
 20
46.5899
 30
0.0
 11
122.633
 21
46.5899
 31
0.0
  0
LINE
  8
0
 62
     0
 10
122.633
 20
46.5899
 30
0.0
 11
122.633
 21
32.5892
 31
0.0
  0
LINE
  8
0
 62
     0
 10
122.633
 20
32.5892
 30
0.0
 11
108.632
 21
32.5892
 31
0.0
  0
LINE
  8
0
 62
     0
 10
108.632
 20
32.5892
 30
0.0
 11
108.632
 21
46.5899
 31
0.0
  0
LINE
  8
0
 62
     0
 10
89.5823
 20
46.5899
 30
0.0
 11
103.583
 21
46.5899
 31
0.0
  0
LINE
  8
0
 62
     0
 10
103.583
 20
46.5899
 30
0.0
 11
103.583
 21
32.5892
 31
0.0
  0
LINE
  8
0
 62
     0
 10
103.583
 20
32.5892
 30
0.0
 11
89.5823
 21
32.5892
 31
0.0
  0
LINE
  8
0
 62
     0
 10
89.5823
 20
32.5892
 30
0.0
 11
89.5823
 21
46.5899
 31
0.0
  0
LINE
  8
0
 62
     0
 10
70.5323
 20
46.5899
 30
0.0
 11
84.533
 21
46.5899
 31
0.0
  0
LINE
  8
0
 62
     0
 10
84.533
 20
46.5899
 30
0.0
 11
84.533
 21
32.5892
 31
0.0
  0
LINE
  8
0
 62
     0
 10
84.533
 20
32.5892
 30
0.0
 11
70.5323
 21
32.5892
 31
0.0
  0
LINE
  8
0
 62
     0
 10
70.5323
 20
32.5892
 30
0.0
 11
70.5323
 21
46.5899
 31
0.0
  0
LINE
  8
0
 62
     0
 10
51.4823
 20
46.5899
 30
0.0
 11
65.483
 21
46.5899
 31
0.0
  0
LINE
  8
0
 62
     0
 10
65.483
 20
46.5899
 30
0.0
 11
65.483
 21
32.5892
 31
0.0
  0
LINE
  8
0
 62
     0
 10
65.483
 20
32.5892
 30
0.0
 11
51.4823
 21
32.5892
 31
0.0
  0
LINE
  8
0
 62
     0
 10
51.4823
 20
32.5892
 30
0.0
 11
51.4823
 21
46.5899
 31
0.0
  0
LINE
  8
0
 62
     0
 10
2.78501
 20
47.4775
 30
0.0
 11
2.50803
 21
47.3357
 31
0.0
  0
LINE
  8
0
 62
     0
 10
2.50803
 20
47.3357
 30
0.0
 11
2.28617
 21
47.1152
 31
0.0
  0
LINE
  8
0
 62
     0
 10
2.28617
 20
47.1152
 30
0.0
 11
2.14285
 21
46.8355
 31
0.0
  0
LINE
  8
0
 62
     0
 10
2.14285
 20
46.8355
 30
0.0
 11
2.096
 21
46.5268
 31
0.0
  0
LINE
  8
0
 62
     0
 10
2.096
 20
46.5268
 30
0.0
 11
2.14285
 21
46.2181
 31
0.0
  0
LINE
  8
0
 62
     0
 10
2.14285
 20
46.2181
 30
0.0
 11
2.28617
 21
45.9384
 31
0.0
  0
LINE
  8
0
 62
     0
 10
2.28617
 20
45.9384
 30
0.0
 11
2.50803
 21
45.7179
 31
0.0
  0
LINE
  8
0
 62
     0
 10
2.50803
 20
45.7179
 30
0.0
 11
2.78501
 21
45.5757
 31
0.0
  0
LINE
  8
0
 62
     0
 10
2.78501
 20
45.5757
 30
0.0
 11
3.09507
 21
45.5263
 31
0.0
  0
LINE
  8
0
 62
     0
 10
3.09507
 20
45.5263
 30
0.0
 11
3.40513
 21
45.5757
 31
0.0
  0
LINE
  8
0
 62
     0
 10
3.40513
 20
45.5757
 30
0.0
 11
3.68212
 21
45.7179
 31
0.0
  0
LINE
  8
0
 62
     0
 10
3.68212
 20
45.7179
 30
0.0
 11
3.90398
 21
45.9384
 31
0.0
  0
LINE
  8
0
 62
     0
 10
3.90398
 20
45.9384
 30
0.0
 11
4.04594
 21
46.2181
 31
0.0
  0
LINE
  8
0
 62
     0
 10
4.04594
 20
46.2181
 30
0.0
 11
4.09554
 21
46.5268
 31
0.0
  0
LINE
  8
0
 62
     0
 10
4.09554
 20
46.5268
 30
0.0
 11
4.04594
 21
46.8355
 31
0.0
  0
LINE
  8
0
 62
     0
 10
4.04594
 20
46.8355
 30
0.0
 11
3.90398
 21
47.1152
 31
0.0
  0
LINE
  8
0
 62
     0
 10
3.90398
 20
47.1152
 30
0.0
 11
3.68212
 21
47.3357
 31
0.0
  0
LINE
  8
0
 62
     0
 10
3.68212
 20
47.3357
 30
0.0
 11
3.40513
 21
47.4775
 31
0.0
  0
LINE
  8
0
 62
     0
 10
3.40513
 20
47.4775
 30
0.0
 11
3.09507
 21
47.5273
 31
0.0
  0
LINE
  8
0
 62
     0
 10
3.09507
 20
47.5273
 30
0.0
 11
2.78501
 21
47.4775
 31
0.0
  0
LINE
  8
0
 62
     0
 10
323.111
 20
47.4775
 30
0.0
 11
322.833
 21
47.3357
 31
0.0
  0
LINE
  8
0
 62
     0
 10
322.833
 20
47.3357
 30
0.0
 11
322.611
 21
47.1152
 31
0.0
  0
LINE
  8
0
 62
     0
 10
322.611
 20
47.1152
 30
0.0
 11
322.469
 21
46.8355
 31
0.0
  0
LINE
  8
0
 62
     0
 10
322.469
 20
46.8355
 30
0.0
 11
322.421
 21
46.5268
 31
0.0
  0
LINE
  8
0
 62
     0
 10
322.421
 20
46.5268
 30
0.0
 11
322.469
 21
46.2181
 31
0.0
  0
LINE
  8
0
 62
     0
 10
322.469
 20
46.2181
 30
0.0
 11
322.611
 21
45.9384
 31
0.0
  0
LINE
  8
0
 62
     0
 10
322.611
 20
45.9384
 30
0.0
 11
322.833
 21
45.7179
 31
0.0
  0
LINE
  8
0
 62
     0
 10
322.833
 20
45.7179
 30
0.0
 11
323.111
 21
45.5757
 31
0.0
  0
LINE
  8
0
 62
     0
 10
323.111
 20
45.5757
 30
0.0
 11
323.421
 21
45.5263
 31
0.0
  0
LINE
  8
0
 62
     0
 10
323.421
 20
45.5263
 30
0.0
 11
323.73
 21
45.5757
 31
0.0
  0
LINE
  8
0
 62
     0
 10
323.73
 20
45.5757
 30
0.0
 11
324.008
 21
45.7179
 31
0.0
  0
LINE
  8
0
 62
     0
 10
324.008
 20
45.7179
 30
0.0
 11
324.23
 21
45.9384
 31
0.0
  0
LINE
  8
0
 62
     0
 10
324.23
 20
45.9384
 30
0.0
 11
324.372
 21
46.2181
 31
0.0
  0
LINE
  8
0
 62
     0
 10
324.372
 20
46.2181
 30
0.0
 11
324.422
 21
46.5268
 31
0.0
  0
LINE
  8
0
 62
     0
 10
324.422
 20
46.5268
 30
0.0
 11
324.372
 21
46.8355
 31
0.0
  0
LINE
  8
0
 62
     0
 10
324.372
 20
46.8355
 30
0.0
 11
324.23
 21
47.1152
 31
0.0
  0
LINE
  8
0
 62
     0
 10
324.23
 20
47.1152
 30
0.0
 11
324.008
 21
47.3357
 31
0.0
  0
LINE
  8
0
 62
     0
 10
324.008
 20
47.3357
 30
0.0
 11
323.73
 21
47.4775
 31
0.0
  0
LINE
  8
0
 62
     0
 10
323.73
 20
47.4775
 30
0.0
 11
323.421
 21
47.5273
 31
0.0
  0
LINE
  8
0
 62
     0
 10
323.421
 20
47.5273
 30
0.0
 11
323.111
 21
47.4775
 31
0.0
  0
LINE
  8
0
 62
     0
 10
303.896
 20
65.6399
 30
0.0
 11
317.895
 21
65.6399
 31
0.0
  0
LINE
  8
0
 62
     0
 10
317.895
 20
65.6399
 30
0.0
 11
317.895
 21
51.6393
 31
0.0
  0
LINE
  8
0
 62
     0
 10
317.895
 20
51.6393
 30
0.0
 11
303.896
 21
51.6393
 31
0.0
  0
LINE
  8
0
 62
     0
 10
303.896
 20
51.6393
 30
0.0
 11
303.896
 21
65.6399
 31
0.0
  0
LINE
  8
0
 62
     0
 10
251.507
 20
65.6399
 30
0.0
 11
265.508
 21
65.6399
 31
0.0
  0
LINE
  8
0
 62
     0
 10
265.508
 20
65.6399
 30
0.0
 11
265.508
 21
51.6393
 31
0.0
  0
LINE
  8
0
 62
     0
 10
265.508
 20
51.6393
 30
0.0
 11
251.507
 21
51.6393
 31
0.0
  0
LINE
  8
0
 62
     0
 10
251.507
 20
51.6393
 30
0.0
 11
251.507
 21
65.6399
 31
0.0
  0
LINE
  8
0
 62
     0
 10
232.457
 20
65.6399
 30
0.0
 11
246.458
 21
65.6399
 31
0.0
  0
LINE
  8
0
 62
     0
 10
246.458
 20
65.6399
 30
0.0
 11
246.458
 21
51.6393
 31
0.0
  0
LINE
  8
0
 62
     0
 10
246.458
 20
51.6393
 30
0.0
 11
232.457
 21
51.6393
 31
0.0
  0
LINE
  8
0
 62
     0
 10
232.457
 20
51.6393
 30
0.0
 11
232.457
 21
65.6399
 31
0.0
  0
LINE
  8
0
 62
     0
 10
213.407
 20
65.6399
 30
0.0
 11
227.408
 21
65.6399
 31
0.0
  0
LINE
  8
0
 62
     0
 10
227.408
 20
65.6399
 30
0.0
 11
227.408
 21
51.6393
 31
0.0
  0
LINE
  8
0
 62
     0
 10
227.408
 20
51.6393
 30
0.0
 11
213.407
 21
51.6393
 31
0.0
  0
LINE
  8
0
 62
     0
 10
213.407
 20
51.6393
 30
0.0
 11
213.407
 21
65.6399
 31
0.0
  0
LINE
  8
0
 62
     0
 10
194.357
 20
65.6399
 30
0.0
 11
208.358
 21
65.6399
 31
0.0
  0
LINE
  8
0
 62
     0
 10
208.358
 20
65.6399
 30
0.0
 11
208.358
 21
51.6393
 31
0.0
  0
LINE
  8
0
 62
     0
 10
208.358
 20
51.6393
 30
0.0
 11
194.357
 21
51.6393
 31
0.0
  0
LINE
  8
0
 62
     0
 10
194.357
 20
51.6393
 30
0.0
 11
194.357
 21
65.6399
 31
0.0
  0
LINE
  8
0
 62
     0
 10
175.307
 20
65.6399
 30
0.0
 11
189.308
 21
65.6399
 31
0.0
  0
LINE
  8
0
 62
     0
 10
189.308
 20
65.6399
 30
0.0
 11
189.308
 21
51.6393
 31
0.0
  0
LINE
  8
0
 62
     0
 10
189.308
 20
51.6393
 30
0.0
 11
175.307
 21
51.6393
 31
0.0
  0
LINE
  8
0
 62
     0
 10
175.307
 20
51.6393
 30
0.0
 11
175.307
 21
65.6399
 31
0.0
  0
LINE
  8
0
 62
     0
 10
156.257
 20
65.6399
 30
0.0
 11
170.258
 21
65.6399
 31
0.0
  0
LINE
  8
0
 62
     0
 10
170.258
 20
65.6399
 30
0.0
 11
170.258
 21
51.6393
 31
0.0
  0
LINE
  8
0
 62
     0
 10
170.258
 20
51.6393
 30
0.0
 11
156.257
 21
51.6393
 31
0.0
  0
LINE
  8
0
 62
     0
 10
156.257
 20
51.6393
 30
0.0
 11
156.257
 21
65.6399
 31
0.0
  0
LINE
  8
0
 62
     0
 10
137.207
 20
65.6399
 30
0.0
 11
151.208
 21
65.6399
 31
0.0
  0
LINE
  8
0
 62
     0
 10
151.208
 20
65.6399
 30
0.0
 11
151.208
 21
51.6393
 31
0.0
  0
LINE
  8
0
 62
     0
 10
151.208
 20
51.6393
 30
0.0
 11
137.207
 21
51.6393
 31
0.0
  0
LINE
  8
0
 62
     0
 10
137.207
 20
51.6393
 30
0.0
 11
137.207
 21
65.6399
 31
0.0
  0
LINE
  8
0
 62
     0
 10
118.157
 20
65.6399
 30
0.0
 11
132.158
 21
65.6399
 31
0.0
  0
LINE
  8
0
 62
     0
 10
132.158
 20
65.6399
 30
0.0
 11
132.158
 21
51.6393
 31
0.0
  0
LINE
  8
0
 62
     0
 10
132.158
 20
51.6393
 30
0.0
 11
118.157
 21
51.6393
 31
0.0
  0
LINE
  8
0
 62
     0
 10
118.157
 20
51.6393
 30
0.0
 11
118.157
 21
65.6399
 31
0.0
  0
LINE
  8
0
 62
     0
 10
99.1073
 20
65.6399
 30
0.0
 11
113.108
 21
65.6399
 31
0.0
  0
LINE
  8
0
 62
     0
 10
113.108
 20
65.6399
 30
0.0
 11
113.108
 21
51.6393
 31
0.0
  0
LINE
  8
0
 62
     0
 10
113.108
 20
51.6393
 30
0.0
 11
99.1073
 21
51.6393
 31
0.0
  0
LINE
  8
0
 62
     0
 10
99.1073
 20
51.6393
 30
0.0
 11
99.1073
 21
65.6399
 31
0.0
  0
LINE
  8
0
 62
     0
 10
80.0573
 20
65.6399
 30
0.0
 11
94.058
 21
65.6399
 31
0.0
  0
LINE
  8
0
 62
     0
 10
94.058
 20
65.6399
 30
0.0
 11
94.058
 21
51.6393
 31
0.0
  0
LINE
  8
0
 62
     0
 10
94.058
 20
51.6393
 30
0.0
 11
80.0573
 21
51.6393
 31
0.0
  0
LINE
  8
0
 62
     0
 10
80.0573
 20
51.6393
 30
0.0
 11
80.0573
 21
65.6399
 31
0.0
  0
LINE
  8
0
 62
     0
 10
61.0073
 20
65.6399
 30
0.0
 11
75.008
 21
65.6399
 31
0.0
  0
LINE
  8
0
 62
     0
 10
75.008
 20
65.6399
 30
0.0
 11
75.008
 21
51.6393
 31
0.0
  0
LINE
  8
0
 62
     0
 10
75.008
 20
51.6393
 30
0.0
 11
61.0073
 21
51.6393
 31
0.0
  0
LINE
  8
0
 62
     0
 10
61.0073
 20
51.6393
 30
0.0
 11
61.0073
 21
65.6399
 31
0.0
  0
LINE
  8
0
 62
     0
 10
41.9573
 20
65.6399
 30
0.0
 11
55.958
 21
65.6399
 31
0.0
  0
LINE
  8
0
 62
     0
 10
55.958
 20
65.6399
 30
0.0
 11
55.958
 21
51.6393
 31
0.0
  0
LINE
  8
0
 62
     0
 10
55.958
 20
51.6393
 30
0.0
 11
41.9573
 21
51.6393
 31
0.0
  0
LINE
  8
0
 62
     0
 10
41.9573
 20
51.6393
 30
0.0
 11
41.9573
 21
65.6399
 31
0.0
  0
LINE
  8
0
 62
     0
 10
15.7634
 20
65.6399
 30
0.0
 11
29.7629
 21
65.6399
 31
0.0
  0
LINE
  8
0
 62
     0
 10
29.7629
 20
65.6399
 30
0.0
 11
29.7629
 21
51.6393
 31
0.0
  0
LINE
  8
0
 62
     0
 10
29.7629
 20
51.6393
 30
0.0
 11
15.7634
 21
51.6393
 31
0.0
  0
LINE
  8
0
 62
     0
 10
15.7634
 20
51.6393
 30
0.0
 11
15.7634
 21
65.6399
 31
0.0
  0
LINE
  8
0
 62
     0
 10
279.438
 20
84.2641
 30
0.0
 11
279.438
 21
83.4401
 31
0.0
  0
LINE
  8
0
 62
     0
 10
279.438
 20
83.4401
 30
0.0
 11
273.169
 21
83.4401
 31
0.0
  0
LINE
  8
0
 62
     0
 10
273.169
 20
83.4401
 30
0.0
 11
273.169
 21
81.715
 31
0.0
  0
LINE
  8
0
 62
     0
 10
273.169
 20
81.715
 30
0.0
 11
271.968
 21
81.715
 31
0.0
  0
LINE
  8
0
 62
     0
 10
271.968
 20
81.715
 30
0.0
 11
271.968
 21
78.4144
 31
0.0
  0
LINE
  8
0
 62
     0
 10
271.968
 20
78.4144
 30
0.0
 11
273.169
 21
78.4144
 31
0.0
  0
LINE
  8
0
 62
     0
 10
273.169
 20
78.4144
 30
0.0
 11
273.169
 21
76.6893
 31
0.0
  0
LINE
  8
0
 62
     0
 10
273.169
 20
76.6893
 30
0.0
 11
277.639
 21
76.6893
 31
0.0
  0
LINE
  8
0
 62
     0
 10
277.639
 20
76.6893
 30
0.0
 11
277.639
 21
75.1649
 31
0.0
  0
LINE
  8
0
 62
     0
 10
277.639
 20
75.1649
 30
0.0
 11
272.939
 21
75.1649
 31
0.0
  0
LINE
  8
0
 62
     0
 10
272.939
 20
75.1649
 30
0.0
 11
272.939
 21
61.1643
 31
0.0
  0
LINE
  8
0
 62
     0
 10
272.939
 20
61.1643
 30
0.0
 11
277.639
 21
61.1643
 31
0.0
  0
LINE
  8
0
 62
     0
 10
277.639
 20
61.1643
 30
0.0
 11
277.639
 21
59.6403
 31
0.0
  0
LINE
  8
0
 62
     0
 10
277.639
 20
59.6403
 30
0.0
 11
273.169
 21
59.6403
 31
0.0
  0
LINE
  8
0
 62
     0
 10
273.169
 20
59.6403
 30
0.0
 11
273.169
 21
57.9148
 31
0.0
  0
LINE
  8
0
 62
     0
 10
273.169
 20
57.9148
 30
0.0
 11
271.968
 21
57.9148
 31
0.0
  0
LINE
  8
0
 62
     0
 10
271.968
 20
57.9148
 30
0.0
 11
271.968
 21
54.6146
 31
0.0
  0
LINE
  8
0
 62
     0
 10
271.968
 20
54.6146
 30
0.0
 11
273.169
 21
54.6146
 31
0.0
  0
LINE
  8
0
 62
     0
 10
273.169
 20
54.6146
 30
0.0
 11
273.169
 21
52.8891
 31
0.0
  0
LINE
  8
0
 62
     0
 10
273.169
 20
52.8891
 30
0.0
 11
279.438
 21
52.8891
 31
0.0
  0
LINE
  8
0
 62
     0
 10
279.438
 20
52.8891
 30
0.0
 11
279.438
 21
52.0651
 31
0.0
  0
LINE
  8
0
 62
     0
 10
279.438
 20
52.0651
 30
0.0
 11
282.239
 21
52.0651
 31
0.0
  0
LINE
  8
0
 62
     0
 10
282.239
 20
52.0651
 30
0.0
 11
282.239
 21
52.8891
 31
0.0
  0
LINE
  8
0
 62
     0
 10
282.239
 20
52.8891
 30
0.0
 11
285.469
 21
52.8891
 31
0.0
  0
LINE
  8
0
 62
     0
 10
285.469
 20
52.8891
 30
0.0
 11
285.469
 21
59.6403
 31
0.0
  0
LINE
  8
0
 62
     0
 10
285.469
 20
59.6403
 30
0.0
 11
282.239
 21
59.6403
 31
0.0
  0
LINE
  8
0
 62
     0
 10
282.239
 20
59.6403
 30
0.0
 11
282.239
 21
61.1643
 31
0.0
  0
LINE
  8
0
 62
     0
 10
282.239
 20
61.1643
 30
0.0
 11
286.938
 21
61.1643
 31
0.0
  0
LINE
  8
0
 62
     0
 10
286.938
 20
61.1643
 30
0.0
 11
286.938
 21
75.1649
 31
0.0
  0
LINE
  8
0
 62
     0
 10
286.938
 20
75.1649
 30
0.0
 11
282.239
 21
75.1649
 31
0.0
  0
LINE
  8
0
 62
     0
 10
282.239
 20
75.1649
 30
0.0
 11
282.239
 21
76.6893
 31
0.0
  0
LINE
  8
0
 62
     0
 10
282.239
 20
76.6893
 30
0.0
 11
285.469
 21
76.6893
 31
0.0
  0
LINE
  8
0
 62
     0
 10
285.469
 20
76.6893
 30
0.0
 11
285.469
 21
83.4401
 31
0.0
  0
LINE
  8
0
 62
     0
 10
285.469
 20
83.4401
 30
0.0
 11
282.239
 21
83.4401
 31
0.0
  0
LINE
  8
0
 62
     0
 10
282.239
 20
83.4401
 30
0.0
 11
282.239
 21
84.2641
 31
0.0
  0
LINE
  8
0
 62
     0
 10
282.239
 20
84.2641
 30
0.0
 11
279.438
 21
84.2641
 31
0.0
  0
LINE
  8
0
 62
     0
 10
303.896
 20
84.6899
 30
0.0
 11
317.895
 21
84.6899
 31
0.0
  0
LINE
  8
0
 62
     0
 10
317.895
 20
84.6899
 30
0.0
 11
317.895
 21
70.6893
 31
0.0
  0
LINE
  8
0
 62
     0
 10
317.895
 20
70.6893
 30
0.0
 11
303.896
 21
70.6893
 31
0.0
  0
LINE
  8
0
 62
     0
 10
303.896
 20
70.6893
 30
0.0
 11
303.896
 21
84.6899
 31
0.0
  0
LINE
  8
0
 62
     0
 10
246.746
 20
84.6899
 30
0.0
 11
260.745
 21
84.6899
 31
0.0
  0
LINE
  8
0
 62
     0
 10
260.745
 20
84.6899
 30
0.0
 11
260.745
 21
70.6893
 31
0.0
  0
LINE
  8
0
 62
     0
 10
260.745
 20
70.6893
 30
0.0
 11
246.746
 21
70.6893
 31
0.0
  0
LINE
  8
0
 62
     0
 10
246.746
 20
70.6893
 30
0.0
 11
246.746
 21
84.6899
 31
0.0
  0
LINE
  8
0
 62
     0
 10
227.696
 20
84.6899
 30
0.0
 11
241.695
 21
84.6899
 31
0.0
  0
LINE
  8
0
 62
     0
 10
241.695
 20
84.6899
 30
0.0
 11
241.695
 21
70.6893
 31
0.0
  0
LINE
  8
0
 62
     0
 10
241.695
 20
70.6893
 30
0.0
 11
227.696
 21
70.6893
 31
0.0
  0
LINE
  8
0
 62
     0
 10
227.696
 20
70.6893
 30
0.0
 11
227.696
 21
84.6899
 31
0.0
  0
LINE
  8
0
 62
     0
 10
208.646
 20
84.6899
 30
0.0
 11
222.645
 21
84.6899
 31
0.0
  0
LINE
  8
0
 62
     0
 10
222.645
 20
84.6899
 30
0.0
 11
222.645
 21
70.6893
 31
0.0
  0
LINE
  8
0
 62
     0
 10
222.645
 20
70.6893
 30
0.0
 11
208.646
 21
70.6893
 31
0.0
  0
LINE
  8
0
 62
     0
 10
208.646
 20
70.6893
 30
0.0
 11
208.646
 21
84.6899
 31
0.0
  0
LINE
  8
0
 62
     0
 10
189.596
 20
84.6899
 30
0.0
 11
203.595
 21
84.6899
 31
0.0
  0
LINE
  8
0
 62
     0
 10
203.595
 20
84.6899
 30
0.0
 11
203.595
 21
70.6893
 31
0.0
  0
LINE
  8
0
 62
     0
 10
203.595
 20
70.6893
 30
0.0
 11
189.596
 21
70.6893
 31
0.0
  0
LINE
  8
0
 62
     0
 10
189.596
 20
70.6893
 30
0.0
 11
189.596
 21
84.6899
 31
0.0
  0
LINE
  8
0
 62
     0
 10
170.546
 20
84.6899
 30
0.0
 11
184.545
 21
84.6899
 31
0.0
  0
LINE
  8
0
 62
     0
 10
184.545
 20
84.6899
 30
0.0
 11
184.545
 21
70.6893
 31
0.0
  0
LINE
  8
0
 62
     0
 10
184.545
 20
70.6893
 30
0.0
 11
170.546
 21
70.6893
 31
0.0
  0
LINE
  8
0
 62
     0
 10
170.546
 20
70.6893
 30
0.0
 11
170.546
 21
84.6899
 31
0.0
  0
LINE
  8
0
 62
     0
 10
151.496
 20
84.6899
 30
0.0
 11
165.495
 21
84.6899
 31
0.0
  0
LINE
  8
0
 62
     0
 10
165.495
 20
84.6899
 30
0.0
 11
165.495
 21
70.6893
 31
0.0
  0
LINE
  8
0
 62
     0
 10
165.495
 20
70.6893
 30
0.0
 11
151.496
 21
70.6893
 31
0.0
  0
LINE
  8
0
 62
     0
 10
151.496
 20
70.6893
 30
0.0
 11
151.496
 21
84.6899
 31
0.0
  0
LINE
  8
0
 62
     0
 10
132.446
 20
84.6899
 30
0.0
 11
146.445
 21
84.6899
 31
0.0
  0
LINE
  8
0
 62
     0
 10
146.445
 20
84.6899
 30
0.0
 11
146.445
 21
70.6893
 31
0.0
  0
LINE
  8
0
 62
     0
 10
146.445
 20
70.6893
 30
0.0
 11
132.446
 21
70.6893
 31
0.0
  0
LINE
  8
0
 62
     0
 10
132.446
 20
70.6893
 30
0.0
 11
132.446
 21
84.6899
 31
0.0
  0
LINE
  8
0
 62
     0
 10
113.396
 20
84.6899
 30
0.0
 11
127.395
 21
84.6899
 31
0.0
  0
LINE
  8
0
 62
     0
 10
127.395
 20
84.6899
 30
0.0
 11
127.395
 21
70.6893
 31
0.0
  0
LINE
  8
0
 62
     0
 10
127.395
 20
70.6893
 30
0.0
 11
113.396
 21
70.6893
 31
0.0
  0
LINE
  8
0
 62
     0
 10
113.396
 20
70.6893
 30
0.0
 11
113.396
 21
84.6899
 31
0.0
  0
LINE
  8
0
 62
     0
 10
94.3462
 20
84.6899
 30
0.0
 11
108.345
 21
84.6899
 31
0.0
  0
LINE
  8
0
 62
     0
 10
108.345
 20
84.6899
 30
0.0
 11
108.345
 21
70.6893
 31
0.0
  0
LINE
  8
0
 62
     0
 10
108.345
 20
70.6893
 30
0.0
 11
94.3462
 21
70.6893
 31
0.0
  0
LINE
  8
0
 62
     0
 10
94.3462
 20
70.6893
 30
0.0
 11
94.3462
 21
84.6899
 31
0.0
  0
LINE
  8
0
 62
     0
 10
75.2962
 20
84.6899
 30
0.0
 11
89.2955
 21
84.6899
 31
0.0
  0
LINE
  8
0
 62
     0
 10
89.2955
 20
84.6899
 30
0.0
 11
89.2955
 21
70.6893
 31
0.0
  0
LINE
  8
0
 62
     0
 10
89.2955
 20
70.6893
 30
0.0
 11
75.2962
 21
70.6893
 31
0.0
  0
LINE
  8
0
 62
     0
 10
75.2962
 20
70.6893
 30
0.0
 11
75.2962
 21
84.6899
 31
0.0
  0
LINE
  8
0
 62
     0
 10
56.2462
 20
84.6899
 30
0.0
 11
70.2455
 21
84.6899
 31
0.0
  0
LINE
  8
0
 62
     0
 10
70.2455
 20
84.6899
 30
0.0
 11
70.2455
 21
70.6893
 31
0.0
  0
LINE
  8
0
 62
     0
 10
70.2455
 20
70.6893
 30
0.0
 11
56.2462
 21
70.6893
 31
0.0
  0
LINE
  8
0
 62
     0
 10
56.2462
 20
70.6893
 30
0.0
 11
56.2462
 21
84.6899
 31
0.0
  0
LINE
  8
0
 62
     0
 10
37.1962
 20
84.6899
 30
0.0
 11
51.1955
 21
84.6899
 31
0.0
  0
LINE
  8
0
 62
     0
 10
51.1955
 20
84.6899
 30
0.0
 11
51.1955
 21
70.6893
 31
0.0
  0
LINE
  8
0
 62
     0
 10
51.1955
 20
70.6893
 30
0.0
 11
37.1962
 21
70.6893
 31
0.0
  0
LINE
  8
0
 62
     0
 10
37.1962
 20
70.6893
 30
0.0
 11
37.1962
 21
84.6899
 31
0.0
  0
LINE
  8
0
 62
     0
 10
13.3821
 20
84.6899
 30
0.0
 11
27.383
 21
84.6899
 31
0.0
  0
LINE
  8
0
 62
     0
 10
27.383
 20
84.6899
 30
0.0
 11
27.383
 21
70.6893
 31
0.0
  0
LINE
  8
0
 62
     0
 10
27.383
 20
70.6893
 30
0.0
 11
13.3821
 21
70.6893
 31
0.0
  0
LINE
  8
0
 62
     0
 10
13.3821
 20
70.6893
 30
0.0
 11
13.3821
 21
84.6899
 31
0.0
  0
LINE
  8
0
 62
     0
 10
265.796
 20
103.74
 30
0.0
 11
265.796
 21
99.0395
 31
0.0
  0
LINE
  8
0
 62
     0
 10
265.796
 20
99.0395
 30
0.0
 11
264.27
 21
99.0395
 31
0.0
  0
LINE
  8
0
 62
     0
 10
264.27
 20
99.0395
 30
0.0
 11
264.27
 21
102.27
 31
0.0
  0
LINE
  8
0
 62
     0
 10
264.27
 20
102.27
 30
0.0
 11
257.521
 21
102.27
 31
0.0
  0
LINE
  8
0
 62
     0
 10
257.521
 20
102.27
 30
0.0
 11
257.521
 21
99.0395
 31
0.0
  0
LINE
  8
0
 62
     0
 10
257.521
 20
99.0395
 30
0.0
 11
256.696
 21
99.0395
 31
0.0
  0
LINE
  8
0
 62
     0
 10
256.696
 20
99.0395
 30
0.0
 11
256.696
 21
96.2395
 31
0.0
  0
LINE
  8
0
 62
     0
 10
256.696
 20
96.2395
 30
0.0
 11
257.521
 21
96.2395
 31
0.0
  0
LINE
  8
0
 62
     0
 10
257.521
 20
96.2395
 30
0.0
 11
257.521
 21
89.9693
 31
0.0
  0
LINE
  8
0
 62
     0
 10
257.521
 20
89.9693
 30
0.0
 11
259.245
 21
89.9693
 31
0.0
  0
LINE
  8
0
 62
     0
 10
259.245
 20
89.9693
 30
0.0
 11
259.245
 21
88.7691
 31
0.0
  0
LINE
  8
0
 62
     0
 10
259.245
 20
88.7691
 30
0.0
 11
262.545
 21
88.7691
 31
0.0
  0
LINE
  8
0
 62
     0
 10
262.545
 20
88.7691
 30
0.0
 11
262.545
 21
89.9693
 31
0.0
  0
LINE
  8
0
 62
     0
 10
262.545
 20
89.9693
 30
0.0
 11
264.27
 21
89.9693
 31
0.0
  0
LINE
  8
0
 62
     0
 10
264.27
 20
89.9693
 30
0.0
 11
264.27
 21
94.4397
 31
0.0
  0
LINE
  8
0
 62
     0
 10
264.27
 20
94.4397
 30
0.0
 11
265.796
 21
94.4397
 31
0.0
  0
LINE
  8
0
 62
     0
 10
265.796
 20
94.4397
 30
0.0
 11
265.796
 21
89.7393
 31
0.0
  0
LINE
  8
0
 62
     0
 10
265.796
 20
89.7393
 30
0.0
 11
279.795
 21
89.7393
 31
0.0
  0
LINE
  8
0
 62
     0
 10
279.795
 20
89.7393
 30
0.0
 11
279.795
 21
94.4397
 31
0.0
  0
LINE
  8
0
 62
     0
 10
279.795
 20
94.4397
 30
0.0
 11
281.321
 21
94.4397
 31
0.0
  0
LINE
  8
0
 62
     0
 10
281.321
 20
94.4397
 30
0.0
 11
281.321
 21
89.9693
 31
0.0
  0
LINE
  8
0
 62
     0
 10
281.321
 20
89.9693
 30
0.0
 11
283.045
 21
89.9693
 31
0.0
  0
LINE
  8
0
 62
     0
 10
283.045
 20
89.9693
 30
0.0
 11
283.045
 21
88.7691
 31
0.0
  0
LINE
  8
0
 62
     0
 10
283.045
 20
88.7691
 30
0.0
 11
286.345
 21
88.7691
 31
0.0
  0
LINE
  8
0
 62
     0
 10
286.345
 20
88.7691
 30
0.0
 11
286.345
 21
89.9693
 31
0.0
  0
LINE
  8
0
 62
     0
 10
286.345
 20
89.9693
 30
0.0
 11
288.071
 21
89.9693
 31
0.0
  0
LINE
  8
0
 62
     0
 10
288.071
 20
89.9693
 30
0.0
 11
288.071
 21
96.2395
 31
0.0
  0
LINE
  8
0
 62
     0
 10
288.071
 20
96.2395
 30
0.0
 11
288.896
 21
96.2395
 31
0.0
  0
LINE
  8
0
 62
     0
 10
288.896
 20
96.2395
 30
0.0
 11
288.896
 21
99.0395
 31
0.0
  0
LINE
  8
0
 62
     0
 10
288.896
 20
99.0395
 30
0.0
 11
288.071
 21
99.0395
 31
0.0
  0
LINE
  8
0
 62
     0
 10
288.071
 20
99.0395
 30
0.0
 11
288.071
 21
102.27
 31
0.0
  0
LINE
  8
0
 62
     0
 10
288.071
 20
102.27
 30
0.0
 11
281.321
 21
102.27
 31
0.0
  0
LINE
  8
0
 62
     0
 10
281.321
 20
102.27
 30
0.0
 11
281.321
 21
99.0395
 31
0.0
  0
LINE
  8
0
 62
     0
 10
281.321
 20
99.0395
 30
0.0
 11
279.795
 21
99.0395
 31
0.0
  0
LINE
  8
0
 62
     0
 10
279.795
 20
99.0395
 30
0.0
 11
279.795
 21
103.74
 31
0.0
  0
LINE
  8
0
 62
     0
 10
279.795
 20
103.74
 30
0.0
 11
265.796
 21
103.74
 31
0.0
  0
LINE
  8
0
 62
     0
 10
2.78501
 20
90.7521
 30
0.0
 11
2.50803
 21
90.6103
 31
0.0
  0
LINE
  8
0
 62
     0
 10
2.50803
 20
90.6103
 30
0.0
 11
2.28617
 21
90.3898
 31
0.0
  0
LINE
  8
0
 62
     0
 10
2.28617
 20
90.3898
 30
0.0
 11
2.14285
 21
90.1114
 31
0.0
  0
LINE
  8
0
 62
     0
 10
2.14285
 20
90.1114
 30
0.0
 11
2.096
 21
89.8013
 31
0.0
  0
LINE
  8
0
 62
     0
 10
2.096
 20
89.8013
 30
0.0
 11
2.14285
 21
89.4927
 31
0.0
  0
LINE
  8
0
 62
     0
 10
2.14285
 20
89.4927
 30
0.0
 11
2.28617
 21
89.2143
 31
0.0
  0
LINE
  8
0
 62
     0
 10
2.28617
 20
89.2143
 30
0.0
 11
2.50803
 21
88.9924
 31
0.0
  0
LINE
  8
0
 62
     0
 10
2.50803
 20
88.9924
 30
0.0
 11
2.78501
 21
88.8503
 31
0.0
  0
LINE
  8
0
 62
     0
 10
2.78501
 20
88.8503
 30
0.0
 11
3.09507
 21
88.8023
 31
0.0
  0
LINE
  8
0
 62
     0
 10
3.09507
 20
88.8023
 30
0.0
 11
3.40513
 21
88.8503
 31
0.0
  0
LINE
  8
0
 62
     0
 10
3.40513
 20
88.8503
 30
0.0
 11
3.68212
 21
88.9924
 31
0.0
  0
LINE
  8
0
 62
     0
 10
3.68212
 20
88.9924
 30
0.0
 11
3.90398
 21
89.2143
 31
0.0
  0
LINE
  8
0
 62
     0
 10
3.90398
 20
89.2143
 30
0.0
 11
4.04594
 21
89.4927
 31
0.0
  0
LINE
  8
0
 62
     0
 10
4.04594
 20
89.4927
 30
0.0
 11
4.09554
 21
89.8013
 31
0.0
  0
LINE
  8
0
 62
     0
 10
4.09554
 20
89.8013
 30
0.0
 11
4.04594
 21
90.1114
 31
0.0
  0
LINE
  8
0
 62
     0
 10
4.04594
 20
90.1114
 30
0.0
 11
3.90398
 21
90.3898
 31
0.0
  0
LINE
  8
0
 62
     0
 10
3.90398
 20
90.3898
 30
0.0
 11
3.68212
 21
90.6103
 31
0.0
  0
LINE
  8
0
 62
     0
 10
3.68212
 20
90.6103
 30
0.0
 11
3.40513
 21
90.7521
 31
0.0
  0
LINE
  8
0
 62
     0
 10
3.40513
 20
90.7521
 30
0.0
 11
3.09507
 21
90.8018
 31
0.0
  0
LINE
  8
0
 62
     0
 10
3.09507
 20
90.8018
 30
0.0
 11
2.78501
 21
90.7521
 31
0.0
  0
LINE
  8
0
 62
     0
 10
323.111
 20
90.7521
 30
0.0
 11
322.833
 21
90.6103
 31
0.0
  0
LINE
  8
0
 62
     0
 10
322.833
 20
90.6103
 30
0.0
 11
322.611
 21
90.3898
 31
0.0
  0
LINE
  8
0
 62
     0
 10
322.611
 20
90.3898
 30
0.0
 11
322.469
 21
90.1114
 31
0.0
  0
LINE
  8
0
 62
     0
 10
322.469
 20
90.1114
 30
0.0
 11
322.421
 21
89.8013
 31
0.0
  0
LINE
  8
0
 62
     0
 10
322.421
 20
89.8013
 30
0.0
 11
322.469
 21
89.4927
 31
0.0
  0
LINE
  8
0
 62
     0
 10
322.469
 20
89.4927
 30
0.0
 11
322.611
 21
89.2143
 31
0.0
  0
LINE
  8
0
 62
     0
 10
322.611
 20
89.2143
 30
0.0
 11
322.833
 21
88.9924
 31
0.0
  0
LINE
  8
0
 62
     0
 10
322.833
 20
88.9924
 30
0.0
 11
323.111
 21
88.8503
 31
0.0
  0
LINE
  8
0
 62
     0
 10
323.111
 20
88.8503
 30
0.0
 11
323.421
 21
88.8023
 31
0.0
  0
LINE
  8
0
 62
     0
 10
323.421
 20
88.8023
 30
0.0
 11
323.73
 21
88.8503
 31
0.0
  0
LINE
  8
0
 62
     0
 10
323.73
 20
88.8503
 30
0.0
 11
324.008
 21
88.9924
 31
0.0
  0
LINE
  8
0
 62
     0
 10
324.008
 20
88.9924
 30
0.0
 11
324.23
 21
89.2143
 31
0.0
  0
LINE
  8
0
 62
     0
 10
324.23
 20
89.2143
 30
0.0
 11
324.372
 21
89.4927
 31
0.0
  0
LINE
  8
0
 62
     0
 10
324.372
 20
89.4927
 30
0.0
 11
324.422
 21
89.8013
 31
0.0
  0
LINE
  8
0
 62
     0
 10
324.422
 20
89.8013
 30
0.0
 11
324.372
 21
90.1114
 31
0.0
  0
LINE
  8
0
 62
     0
 10
324.372
 20
90.1114
 30
0.0
 11
324.23
 21
90.3898
 31
0.0
  0
LINE
  8
0
 62
     0
 10
324.23
 20
90.3898
 30
0.0
 11
324.008
 21
90.6103
 31
0.0
  0
LINE
  8
0
 62
     0
 10
324.008
 20
90.6103
 30
0.0
 11
323.73
 21
90.7521
 31
0.0
  0
LINE
  8
0
 62
     0
 10
323.73
 20
90.7521
 30
0.0
 11
323.421
 21
90.8018
 31
0.0
  0
LINE
  8
0
 62
     0
 10
323.421
 20
90.8018
 30
0.0
 11
323.111
 21
90.7521
 31
0.0
  0
LINE
  8
0
 62
     0
 10
303.896
 20
103.74
 30
0.0
 11
317.895
 21
103.74
 31
0.0
  0
LINE
  8
0
 62
     0
 10
317.895
 20
103.74
 30
0.0
 11
317.895
 21
89.7393
 31
0.0
  0
LINE
  8
0
 62
     0
 10
317.895
 20
89.7393
 30
0.0
 11
303.896
 21
89.7393
 31
0.0
  0
LINE
  8
0
 62
     0
 10
303.896
 20
89.7393
 30
0.0
 11
303.896
 21
103.74
 31
0.0
  0
LINE
  8
0
 62
     0
 10
237.221
 20
103.74
 30
0.0
 11
251.22
 21
103.74
 31
0.0
  0
LINE
  8
0
 62
     0
 10
251.22
 20
103.74
 30
0.0
 11
251.22
 21
89.7393
 31
0.0
  0
LINE
  8
0
 62
     0
 10
251.22
 20
89.7393
 30
0.0
 11
237.221
 21
89.7393
 31
0.0
  0
LINE
  8
0
 62
     0
 10
237.221
 20
89.7393
 30
0.0
 11
237.221
 21
103.74
 31
0.0
  0
LINE
  8
0
 62
     0
 10
218.171
 20
103.74
 30
0.0
 11
232.17
 21
103.74
 31
0.0
  0
LINE
  8
0
 62
     0
 10
232.17
 20
103.74
 30
0.0
 11
232.17
 21
89.7393
 31
0.0
  0
LINE
  8
0
 62
     0
 10
232.17
 20
89.7393
 30
0.0
 11
218.171
 21
89.7393
 31
0.0
  0
LINE
  8
0
 62
     0
 10
218.171
 20
89.7393
 30
0.0
 11
218.171
 21
103.74
 31
0.0
  0
LINE
  8
0
 62
     0
 10
199.121
 20
103.74
 30
0.0
 11
213.12
 21
103.74
 31
0.0
  0
LINE
  8
0
 62
     0
 10
213.12
 20
103.74
 30
0.0
 11
213.12
 21
89.7393
 31
0.0
  0
LINE
  8
0
 62
     0
 10
213.12
 20
89.7393
 30
0.0
 11
199.121
 21
89.7393
 31
0.0
  0
LINE
  8
0
 62
     0
 10
199.121
 20
89.7393
 30
0.0
 11
199.121
 21
103.74
 31
0.0
  0
LINE
  8
0
 62
     0
 10
180.071
 20
103.74
 30
0.0
 11
194.07
 21
103.74
 31
0.0
  0
LINE
  8
0
 62
     0
 10
194.07
 20
103.74
 30
0.0
 11
194.07
 21
89.7393
 31
0.0
  0
LINE
  8
0
 62
     0
 10
194.07
 20
89.7393
 30
0.0
 11
180.071
 21
89.7393
 31
0.0
  0
LINE
  8
0
 62
     0
 10
180.071
 20
89.7393
 30
0.0
 11
180.071
 21
103.74
 31
0.0
  0
LINE
  8
0
 62
     0
 10
161.021
 20
103.74
 30
0.0
 11
175.02
 21
103.74
 31
0.0
  0
LINE
  8
0
 62
     0
 10
175.02
 20
103.74
 30
0.0
 11
175.02
 21
89.7393
 31
0.0
  0
LINE
  8
0
 62
     0
 10
175.02
 20
89.7393
 30
0.0
 11
161.021
 21
89.7393
 31
0.0
  0
LINE
  8
0
 62
     0
 10
161.021
 20
89.7393
 30
0.0
 11
161.021
 21
103.74
 31
0.0
  0
LINE
  8
0
 62
     0
 10
141.971
 20
103.74
 30
0.0
 11
155.97
 21
103.74
 31
0.0
  0
LINE
  8
0
 62
     0
 10
155.97
 20
103.74
 30
0.0
 11
155.97
 21
89.7393
 31
0.0
  0
LINE
  8
0
 62
     0
 10
155.97
 20
89.7393
 30
0.0
 11
141.971
 21
89.7393
 31
0.0
  0
LINE
  8
0
 62
     0
 10
141.971
 20
89.7393
 30
0.0
 11
141.971
 21
103.74
 31
0.0
  0
LINE
  8
0
 62
     0
 10
122.92
 20
103.74
 30
0.0
 11
136.92
 21
103.74
 31
0.0
  0
LINE
  8
0
 62
     0
 10
136.92
 20
103.74
 30
0.0
 11
136.92
 21
89.7393
 31
0.0
  0
LINE
  8
0
 62
     0
 10
136.92
 20
89.7393
 30
0.0
 11
122.92
 21
89.7393
 31
0.0
  0
LINE
  8
0
 62
     0
 10
122.92
 20
89.7393
 30
0.0
 11
122.92
 21
103.74
 31
0.0
  0
LINE
  8
0
 62
     0
 10
103.87
 20
103.74
 30
0.0
 11
117.869
 21
103.74
 31
0.0
  0
LINE
  8
0
 62
     0
 10
117.869
 20
103.74
 30
0.0
 11
117.869
 21
89.7393
 31
0.0
  0
LINE
  8
0
 62
     0
 10
117.869
 20
89.7393
 30
0.0
 11
103.87
 21
89.7393
 31
0.0
  0
LINE
  8
0
 62
     0
 10
103.87
 20
89.7393
 30
0.0
 11
103.87
 21
103.74
 31
0.0
  0
LINE
  8
0
 62
     0
 10
84.8212
 20
103.74
 30
0.0
 11
98.8205
 21
103.74
 31
0.0
  0
LINE
  8
0
 62
     0
 10
98.8205
 20
103.74
 30
0.0
 11
98.8205
 21
89.7393
 31
0.0
  0
LINE
  8
0
 62
     0
 10
98.8205
 20
89.7393
 30
0.0
 11
84.8212
 21
89.7393
 31
0.0
  0
LINE
  8
0
 62
     0
 10
84.8212
 20
89.7393
 30
0.0
 11
84.8212
 21
103.74
 31
0.0
  0
LINE
  8
0
 62
     0
 10
65.7712
 20
103.74
 30
0.0
 11
79.7705
 21
103.74
 31
0.0
  0
LINE
  8
0
 62
     0
 10
79.7705
 20
103.74
 30
0.0
 11
79.7705
 21
89.7393
 31
0.0
  0
LINE
  8
0
 62
     0
 10
79.7705
 20
89.7393
 30
0.0
 11
65.7712
 21
89.7393
 31
0.0
  0
LINE
  8
0
 62
     0
 10
65.7712
 20
89.7393
 30
0.0
 11
65.7712
 21
103.74
 31
0.0
  0
LINE
  8
0
 62
     0
 10
46.7212
 20
103.74
 30
0.0
 11
60.7205
 21
103.74
 31
0.0
  0
LINE
  8
0
 62
     0
 10
60.7205
 20
103.74
 30
0.0
 11
60.7205
 21
89.7393
 31
0.0
  0
LINE
  8
0
 62
     0
 10
60.7205
 20
89.7393
 30
0.0
 11
46.7212
 21
89.7393
 31
0.0
  0
LINE
  8
0
 62
     0
 10
46.7212
 20
89.7393
 30
0.0
 11
46.7212
 21
103.74
 31
0.0
  0
LINE
  8
0
 62
     0
 10
27.671
 20
103.74
 30
0.0
 11
41.6705
 21
103.74
 31
0.0
  0
LINE
  8
0
 62
     0
 10
41.6705
 20
103.74
 30
0.0
 11
41.6705
 21
89.7393
 31
0.0
  0
LINE
  8
0
 62
     0
 10
41.6705
 20
89.7393
 30
0.0
 11
27.671
 21
89.7393
 31
0.0
  0
LINE
  8
0
 62
     0
 10
27.671
 20
89.7393
 30
0.0
 11
27.671
 21
103.74
 31
0.0
  0
LINE
  8
0
 62
     0
 10
8.61963
 20
103.74
 30
0.0
 11
22.6205
 21
103.74
 31
0.0
  0
LINE
  8
0
 62
     0
 10
22.6205
 20
103.74
 30
0.0
 11
22.6205
 21
89.7393
 31
0.0
  0
LINE
  8
0
 62
     0
 10
22.6205
 20
89.7393
 30
0.0
 11
8.61963
 21
89.7393
 31
0.0
  0
LINE
  8
0
 62
     0
 10
8.61963
 20
89.7393
 30
0.0
 11
8.61963
 21
103.74
 31
0.0
  0
LINE
  8
0
 62
     0
 10
303.896
 20
127.552
 30
0.0
 11
317.895
 21
127.552
 31
0.0
  0
LINE
  8
0
 62
     0
 10
317.895
 20
127.552
 30
0.0
 11
317.895
 21
113.552
 31
0.0
  0
LINE
  8
0
 62
     0
 10
317.895
 20
113.552
 30
0.0
 11
303.896
 21
113.552
 31
0.0
  0
LINE
  8
0
 62
     0
 10
303.896
 20
113.552
 30
0.0
 11
303.896
 21
127.552
 31
0.0
  0
LINE
  8
0
 62
     0
 10
275.321
 20
127.552
 30
0.0
 11
289.32
 21
127.552
 31
0.0
  0
LINE
  8
0
 62
     0
 10
289.32
 20
127.552
 30
0.0
 11
289.32
 21
113.552
 31
0.0
  0
LINE
  8
0
 62
     0
 10
289.32
 20
113.552
 30
0.0
 11
275.321
 21
113.552
 31
0.0
  0
LINE
  8
0
 62
     0
 10
275.321
 20
113.552
 30
0.0
 11
275.321
 21
127.552
 31
0.0
  0
LINE
  8
0
 62
     0
 10
251.507
 20
127.552
 30
0.0
 11
265.508
 21
127.552
 31
0.0
  0
LINE
  8
0
 62
     0
 10
265.508
 20
127.552
 30
0.0
 11
265.508
 21
113.552
 31
0.0
  0
LINE
  8
0
 62
     0
 10
265.508
 20
113.552
 30
0.0
 11
251.507
 21
113.552
 31
0.0
  0
LINE
  8
0
 62
     0
 10
251.507
 20
113.552
 30
0.0
 11
251.507
 21
127.552
 31
0.0
  0
LINE
  8
0
 62
     0
 10
232.457
 20
127.552
 30
0.0
 11
246.458
 21
127.552
 31
0.0
  0
LINE
  8
0
 62
     0
 10
246.458
 20
127.552
 30
0.0
 11
246.458
 21
113.552
 31
0.0
  0
LINE
  8
0
 62
     0
 10
246.458
 20
113.552
 30
0.0
 11
232.457
 21
113.552
 31
0.0
  0
LINE
  8
0
 62
     0
 10
232.457
 20
113.552
 30
0.0
 11
232.457
 21
127.552
 31
0.0
  0
LINE
  8
0
 62
     0
 10
213.407
 20
127.552
 30
0.0
 11
227.408
 21
127.552
 31
0.0
  0
LINE
  8
0
 62
     0
 10
227.408
 20
127.552
 30
0.0
 11
227.408
 21
113.552
 31
0.0
  0
LINE
  8
0
 62
     0
 10
227.408
 20
113.552
 30
0.0
 11
213.407
 21
113.552
 31
0.0
  0
LINE
  8
0
 62
     0
 10
213.407
 20
113.552
 30
0.0
 11
213.407
 21
127.552
 31
0.0
  0
LINE
  8
0
 62
     0
 10
194.357
 20
127.552
 30
0.0
 11
208.358
 21
127.552
 31
0.0
  0
LINE
  8
0
 62
     0
 10
208.358
 20
127.552
 30
0.0
 11
208.358
 21
113.552
 31
0.0
  0
LINE
  8
0
 62
     0
 10
208.358
 20
113.552
 30
0.0
 11
194.357
 21
113.552
 31
0.0
  0
LINE
  8
0
 62
     0
 10
194.357
 20
113.552
 30
0.0
 11
194.357
 21
127.552
 31
0.0
  0
LINE
  8
0
 62
     0
 10
170.546
 20
127.552
 30
0.0
 11
184.545
 21
127.552
 31
0.0
  0
LINE
  8
0
 62
     0
 10
184.545
 20
127.552
 30
0.0
 11
184.545
 21
113.552
 31
0.0
  0
LINE
  8
0
 62
     0
 10
184.545
 20
113.552
 30
0.0
 11
170.546
 21
113.552
 31
0.0
  0
LINE
  8
0
 62
     0
 10
170.546
 20
113.552
 30
0.0
 11
170.546
 21
127.552
 31
0.0
  0
LINE
  8
0
 62
     0
 10
151.496
 20
127.552
 30
0.0
 11
165.495
 21
127.552
 31
0.0
  0
LINE
  8
0
 62
     0
 10
165.495
 20
127.552
 30
0.0
 11
165.495
 21
113.552
 31
0.0
  0
LINE
  8
0
 62
     0
 10
165.495
 20
113.552
 30
0.0
 11
151.496
 21
113.552
 31
0.0
  0
LINE
  8
0
 62
     0
 10
151.496
 20
113.552
 30
0.0
 11
151.496
 21
127.552
 31
0.0
  0
LINE
  8
0
 62
     0
 10
132.446
 20
127.552
 30
0.0
 11
146.445
 21
127.552
 31
0.0
  0
LINE
  8
0
 62
     0
 10
146.445
 20
127.552
 30
0.0
 11
146.445
 21
113.552
 31
0.0
  0
LINE
  8
0
 62
     0
 10
146.445
 20
113.552
 30
0.0
 11
132.446
 21
113.552
 31
0.0
  0
LINE
  8
0
 62
     0
 10
132.446
 20
113.552
 30
0.0
 11
132.446
 21
127.552
 31
0.0
  0
LINE
  8
0
 62
     0
 10
113.396
 20
127.552
 30
0.0
 11
127.395
 21
127.552
 31
0.0
  0
LINE
  8
0
 62
     0
 10
127.395
 20
127.552
 30
0.0
 11
127.395
 21
113.552
 31
0.0
  0
LINE
  8
0
 62
     0
 10
127.395
 20
113.552
 30
0.0
 11
113.396
 21
113.552
 31
0.0
  0
LINE
  8
0
 62
     0
 10
113.396
 20
113.552
 30
0.0
 11
113.396
 21
127.552
 31
0.0
  0
LINE
  8
0
 62
     0
 10
89.5823
 20
127.552
 30
0.0
 11
103.583
 21
127.552
 31
0.0
  0
LINE
  8
0
 62
     0
 10
103.583
 20
127.552
 30
0.0
 11
103.583
 21
113.552
 31
0.0
  0
LINE
  8
0
 62
     0
 10
103.583
 20
113.552
 30
0.0
 11
89.5823
 21
113.552
 31
0.0
  0
LINE
  8
0
 62
     0
 10
89.5823
 20
113.552
 30
0.0
 11
89.5823
 21
127.552
 31
0.0
  0
LINE
  8
0
 62
     0
 10
70.5323
 20
127.552
 30
0.0
 11
84.533
 21
127.552
 31
0.0
  0
LINE
  8
0
 62
     0
 10
84.533
 20
127.552
 30
0.0
 11
84.533
 21
113.552
 31
0.0
  0
LINE
  8
0
 62
     0
 10
84.533
 20
113.552
 30
0.0
 11
70.5323
 21
113.552
 31
0.0
  0
LINE
  8
0
 62
     0
 10
70.5323
 20
113.552
 30
0.0
 11
70.5323
 21
127.552
 31
0.0
  0
LINE
  8
0
 62
     0
 10
51.4823
 20
127.552
 30
0.0
 11
65.483
 21
127.552
 31
0.0
  0
LINE
  8
0
 62
     0
 10
65.483
 20
127.552
 30
0.0
 11
65.483
 21
113.552
 31
0.0
  0
LINE
  8
0
 62
     0
 10
65.483
 20
113.552
 30
0.0
 11
51.4823
 21
113.552
 31
0.0
  0
LINE
  8
0
 62
     0
 10
51.4823
 20
113.552
 30
0.0
 11
51.4823
 21
127.552
 31
0.0
  0
LINE
  8
0
 62
     0
 10
32.4321
 20
127.552
 30
0.0
 11
46.433
 21
127.552
 31
0.0
  0
LINE
  8
0
 62
     0
 10
46.433
 20
127.552
 30
0.0
 11
46.433
 21
113.552
 31
0.0
  0
LINE
  8
0
 62
     0
 10
46.433
 20
113.552
 30
0.0
 11
32.4321
 21
113.552
 31
0.0
  0
LINE
  8
0
 62
     0
 10
32.4321
 20
113.552
 30
0.0
 11
32.4321
 21
127.552
 31
0.0
  0
LINE
  8
0
 62
     0
 10
8.61963
 20
127.552
 30
0.0
 11
22.6205
 21
127.552
 31
0.0
  0
LINE
  8
0
 62
     0
 10
22.6205
 20
127.552
 30
0.0
 11
22.6205
 21
113.552
 31
0.0
  0
LINE
  8
0
 62
     0
 10
22.6205
 20
113.552
 30
0.0
 11
8.61963
 21
113.552
 31
0.0
  0
LINE
  8
0
 62
     0
 10
8.61963
 20
113.552
 30
0.0
 11
8.61963
 21
127.552
 31
0.0
  0
LINE
  8
0
 62
     0
 10
323.111
 20
134.029
 30
0.0
 11
322.833
 21
133.886
 31
0.0
  0
LINE
  8
0
 62
     0
 10
322.833
 20
133.886
 30
0.0
 11
322.611
 21
133.664
 31
0.0
  0
LINE
  8
0
 62
     0
 10
322.611
 20
133.664
 30
0.0
 11
322.469
 21
133.387
 31
0.0
  0
LINE
  8
0
 62
     0
 10
322.469
 20
133.387
 30
0.0
 11
322.421
 21
133.077
 31
0.0
  0
LINE
  8
0
 62
     0
 10
322.421
 20
133.077
 30
0.0
 11
322.469
 21
132.767
 31
0.0
  0
LINE
  8
0
 62
     0
 10
322.469
 20
132.767
 30
0.0
 11
322.611
 21
132.49
 31
0.0
  0
LINE
  8
0
 62
     0
 10
322.611
 20
132.49
 30
0.0
 11
322.833
 21
132.268
 31
0.0
  0
LINE
  8
0
 62
     0
 10
322.833
 20
132.268
 30
0.0
 11
323.111
 21
132.126
 31
0.0
  0
LINE
  8
0
 62
     0
 10
323.111
 20
132.126
 30
0.0
 11
323.421
 21
132.077
 31
0.0
  0
LINE
  8
0
 62
     0
 10
323.421
 20
132.077
 30
0.0
 11
323.73
 21
132.126
 31
0.0
  0
LINE
  8
0
 62
     0
 10
323.73
 20
132.126
 30
0.0
 11
324.008
 21
132.268
 31
0.0
  0
LINE
  8
0
 62
     0
 10
324.008
 20
132.268
 30
0.0
 11
324.23
 21
132.49
 31
0.0
  0
LINE
  8
0
 62
     0
 10
324.23
 20
132.49
 30
0.0
 11
324.372
 21
132.767
 31
0.0
  0
LINE
  8
0
 62
     0
 10
324.372
 20
132.767
 30
0.0
 11
324.422
 21
133.077
 31
0.0
  0
LINE
  8
0
 62
     0
 10
324.422
 20
133.077
 30
0.0
 11
324.372
 21
133.387
 31
0.0
  0
LINE
  8
0
 62
     0
 10
324.372
 20
133.387
 30
0.0
 11
324.23
 21
133.664
 31
0.0
  0
LINE
  8
0
 62
     0
 10
324.23
 20
133.664
 30
0.0
 11
324.008
 21
133.886
 31
0.0
  0
LINE
  8
0
 62
     0
 10
324.008
 20
133.886
 30
0.0
 11
323.73
 21
134.029
 31
0.0
  0
LINE
  8
0
 62
     0
 10
323.73
 20
134.029
 30
0.0
 11
323.421
 21
134.076
 31
0.0
  0
LINE
  8
0
 62
     0
 10
323.421
 20
134.076
 30
0.0
 11
323.111
 21
134.029
 31
0.0
  0
LINE
  8
0
 62
     0
 10
259.046
 20
134.029
 30
0.0
 11
258.768
 21
133.886
 31
0.0
  0
LINE
  8
0
 62
     0
 10
258.768
 20
133.886
 30
0.0
 11
258.546
 21
133.664
 31
0.0
  0
LINE
  8
0
 62
     0
 10
258.546
 20
133.664
 30
0.0
 11
258.404
 21
133.387
 31
0.0
  0
LINE
  8
0
 62
     0
 10
258.404
 20
133.387
 30
0.0
 11
258.356
 21
133.077
 31
0.0
  0
LINE
  8
0
 62
     0
 10
258.356
 20
133.077
 30
0.0
 11
258.404
 21
132.767
 31
0.0
  0
LINE
  8
0
 62
     0
 10
258.404
 20
132.767
 30
0.0
 11
258.546
 21
132.49
 31
0.0
  0
LINE
  8
0
 62
     0
 10
258.546
 20
132.49
 30
0.0
 11
258.768
 21
132.268
 31
0.0
  0
LINE
  8
0
 62
     0
 10
258.768
 20
132.268
 30
0.0
 11
259.046
 21
132.126
 31
0.0
  0
LINE
  8
0
 62
     0
 10
259.046
 20
132.126
 30
0.0
 11
259.355
 21
132.077
 31
0.0
  0
LINE
  8
0
 62
     0
 10
259.355
 20
132.077
 30
0.0
 11
259.665
 21
132.126
 31
0.0
  0
LINE
  8
0
 62
     0
 10
259.665
 20
132.126
 30
0.0
 11
259.944
 21
132.268
 31
0.0
  0
LINE
  8
0
 62
     0
 10
259.944
 20
132.268
 30
0.0
 11
260.164
 21
132.49
 31
0.0
  0
LINE
  8
0
 62
     0
 10
260.164
 20
132.49
 30
0.0
 11
260.306
 21
132.767
 31
0.0
  0
LINE
  8
0
 62
     0
 10
260.306
 20
132.767
 30
0.0
 11
260.356
 21
133.077
 31
0.0
  0
LINE
  8
0
 62
     0
 10
260.356
 20
133.077
 30
0.0
 11
260.306
 21
133.387
 31
0.0
  0
LINE
  8
0
 62
     0
 10
260.306
 20
133.387
 30
0.0
 11
260.164
 21
133.664
 31
0.0
  0
LINE
  8
0
 62
     0
 10
260.164
 20
133.664
 30
0.0
 11
259.944
 21
133.886
 31
0.0
  0
LINE
  8
0
 62
     0
 10
259.944
 20
133.886
 30
0.0
 11
259.665
 21
134.029
 31
0.0
  0
LINE
  8
0
 62
     0
 10
259.665
 20
134.029
 30
0.0
 11
259.355
 21
134.076
 31
0.0
  0
LINE
  8
0
 62
     0
 10
259.355
 20
134.076
 30
0.0
 11
259.046
 21
134.029
 31
0.0
  0
LINE
  8
0
 62
     0
 10
194.981
 20
134.029
 30
0.0
 11
194.703
 21
133.886
 31
0.0
  0
LINE
  8
0
 62
     0
 10
194.703
 20
133.886
 30
0.0
 11
194.481
 21
133.664
 31
0.0
  0
LINE
  8
0
 62
     0
 10
194.481
 20
133.664
 30
0.0
 11
194.339
 21
133.387
 31
0.0
  0
LINE
  8
0
 62
     0
 10
194.339
 20
133.387
 30
0.0
 11
194.291
 21
133.077
 31
0.0
  0
LINE
  8
0
 62
     0
 10
194.291
 20
133.077
 30
0.0
 11
194.339
 21
132.767
 31
0.0
  0
LINE
  8
0
 62
     0
 10
194.339
 20
132.767
 30
0.0
 11
194.481
 21
132.49
 31
0.0
  0
LINE
  8
0
 62
     0
 10
194.481
 20
132.49
 30
0.0
 11
194.703
 21
132.268
 31
0.0
  0
LINE
  8
0
 62
     0
 10
194.703
 20
132.268
 30
0.0
 11
194.981
 21
132.126
 31
0.0
  0
LINE
  8
0
 62
     0
 10
194.981
 20
132.126
 30
0.0
 11
195.29
 21
132.077
 31
0.0
  0
LINE
  8
0
 62
     0
 10
195.29
 20
132.077
 30
0.0
 11
195.6
 21
132.126
 31
0.0
  0
LINE
  8
0
 62
     0
 10
195.6
 20
132.126
 30
0.0
 11
195.878
 21
132.268
 31
0.0
  0
LINE
  8
0
 62
     0
 10
195.878
 20
132.268
 30
0.0
 11
196.099
 21
132.49
 31
0.0
  0
LINE
  8
0
 62
     0
 10
196.099
 20
132.49
 30
0.0
 11
196.241
 21
132.767
 31
0.0
  0
LINE
  8
0
 62
     0
 10
196.241
 20
132.767
 30
0.0
 11
196.29
 21
133.077
 31
0.0
  0
LINE
  8
0
 62
     0
 10
196.29
 20
133.077
 30
0.0
 11
196.241
 21
133.387
 31
0.0
  0
LINE
  8
0
 62
     0
 10
196.241
 20
133.387
 30
0.0
 11
196.099
 21
133.664
 31
0.0
  0
LINE
  8
0
 62
     0
 10
196.099
 20
133.664
 30
0.0
 11
195.878
 21
133.886
 31
0.0
  0
LINE
  8
0
 62
     0
 10
195.878
 20
133.886
 30
0.0
 11
195.6
 21
134.029
 31
0.0
  0
LINE
  8
0
 62
     0
 10
195.6
 20
134.029
 30
0.0
 11
195.29
 21
134.076
 31
0.0
  0
LINE
  8
0
 62
     0
 10
195.29
 20
134.076
 30
0.0
 11
194.981
 21
134.029
 31
0.0
  0
LINE
  8
0
 62
     0
 10
130.917
 20
134.029
 30
0.0
 11
130.638
 21
133.886
 31
0.0
  0
LINE
  8
0
 62
     0
 10
130.638
 20
133.886
 30
0.0
 11
130.416
 21
133.664
 31
0.0
  0
LINE
  8
0
 62
     0
 10
130.416
 20
133.664
 30
0.0
 11
130.274
 21
133.387
 31
0.0
  0
LINE
  8
0
 62
     0
 10
130.274
 20
133.387
 30
0.0
 11
130.226
 21
133.077
 31
0.0
  0
LINE
  8
0
 62
     0
 10
130.226
 20
133.077
 30
0.0
 11
130.274
 21
132.767
 31
0.0
  0
LINE
  8
0
 62
     0
 10
130.274
 20
132.767
 30
0.0
 11
130.416
 21
132.49
 31
0.0
  0
LINE
  8
0
 62
     0
 10
130.416
 20
132.49
 30
0.0
 11
130.638
 21
132.268
 31
0.0
  0
LINE
  8
0
 62
     0
 10
130.638
 20
132.268
 30
0.0
 11
130.917
 21
132.126
 31
0.0
  0
LINE
  8
0
 62
     0
 10
130.917
 20
132.126
 30
0.0
 11
131.225
 21
132.077
 31
0.0
  0
LINE
  8
0
 62
     0
 10
131.225
 20
132.077
 30
0.0
 11
131.535
 21
132.126
 31
0.0
  0
LINE
  8
0
 62
     0
 10
131.535
 20
132.126
 30
0.0
 11
131.814
 21
132.268
 31
0.0
  0
LINE
  8
0
 62
     0
 10
131.814
 20
132.268
 30
0.0
 11
132.034
 21
132.49
 31
0.0
  0
LINE
  8
0
 62
     0
 10
132.034
 20
132.49
 30
0.0
 11
132.176
 21
132.767
 31
0.0
  0
LINE
  8
0
 62
     0
 10
132.176
 20
132.767
 30
0.0
 11
132.226
 21
133.077
 31
0.0
  0
LINE
  8
0
 62
     0
 10
132.226
 20
133.077
 30
0.0
 11
132.176
 21
133.387
 31
0.0
  0
LINE
  8
0
 62
     0
 10
132.176
 20
133.387
 30
0.0
 11
132.034
 21
133.664
 31
0.0
  0
LINE
  8
0
 62
     0
 10
132.034
 20
133.664
 30
0.0
 11
131.814
 21
133.886
 31
0.0
  0
LINE
  8
0
 62
     0
 10
131.814
 20
133.886
 30
0.0
 11
131.535
 21
134.029
 31
0.0
  0
LINE
  8
0
 62
     0
 10
131.535
 20
134.029
 30
0.0
 11
131.225
 21
134.076
 31
0.0
  0
LINE
  8
0
 62
     0
 10
131.225
 20
134.076
 30
0.0
 11
130.917
 21
134.029
 31
0.0
  0
LINE
  8
0
 62
     0
 10
66.8514
 20
134.029
 30
0.0
 11
66.573
 21
133.886
 31
0.0
  0
LINE
  8
0
 62
     0
 10
66.573
 20
133.886
 30
0.0
 11
66.3512
 21
133.664
 31
0.0
  0
LINE
  8
0
 62
     0
 10
66.3512
 20
133.664
 30
0.0
 11
66.2093
 21
133.387
 31
0.0
  0
LINE
  8
0
 62
     0
 10
66.2093
 20
133.387
 30
0.0
 11
66.161
 21
133.077
 31
0.0
  0
LINE
  8
0
 62
     0
 10
66.161
 20
133.077
 30
0.0
 11
66.2093
 21
132.767
 31
0.0
  0
LINE
  8
0
 62
     0
 10
66.2093
 20
132.767
 30
0.0
 11
66.3512
 21
132.49
 31
0.0
  0
LINE
  8
0
 62
     0
 10
66.3512
 20
132.49
 30
0.0
 11
66.573
 21
132.268
 31
0.0
  0
LINE
  8
0
 62
     0
 10
66.573
 20
132.268
 30
0.0
 11
66.8514
 21
132.126
 31
0.0
  0
LINE
  8
0
 62
     0
 10
66.8514
 20
132.126
 30
0.0
 11
67.1601
 21
132.077
 31
0.0
  0
LINE
  8
0
 62
     0
 10
67.1601
 20
132.077
 30
0.0
 11
67.4702
 21
132.126
 31
0.0
  0
LINE
  8
0
 62
     0
 10
67.4702
 20
132.126
 30
0.0
 11
67.7471
 21
132.268
 31
0.0
  0
LINE
  8
0
 62
     0
 10
67.7471
 20
132.268
 30
0.0
 11
67.969
 21
132.49
 31
0.0
  0
LINE
  8
0
 62
     0
 10
67.969
 20
132.49
 30
0.0
 11
68.1108
 21
132.767
 31
0.0
  0
LINE
  8
0
 62
     0
 10
68.1108
 20
132.767
 30
0.0
 11
68.1605
 21
133.077
 31
0.0
  0
LINE
  8
0
 62
     0
 10
68.1605
 20
133.077
 30
0.0
 11
68.1108
 21
133.387
 31
0.0
  0
LINE
  8
0
 62
     0
 10
68.1108
 20
133.387
 30
0.0
 11
67.969
 21
133.664
 31
0.0
  0
LINE
  8
0
 62
     0
 10
67.969
 20
133.664
 30
0.0
 11
67.7471
 21
133.886
 31
0.0
  0
LINE
  8
0
 62
     0
 10
67.7471
 20
133.886
 30
0.0
 11
67.4702
 21
134.029
 31
0.0
  0
LINE
  8
0
 62
     0
 10
67.4702
 20
134.029
 30
0.0
 11
67.1601
 21
134.076
 31
0.0
  0
LINE
  8
0
 62
     0
 10
67.1601
 20
134.076
 30
0.0
 11
66.8514
 21
134.029
 31
0.0
  0
LINE
  8
0
 62
     0
 10
2.78501
 20
134.029
 30
0.0
 11
2.50803
 21
133.886
 31
0.0
  0
LINE
  8
0
 62
     0
 10
2.50803
 20
133.886
 30
0.0
 11
2.28617
 21
133.664
 31
0.0
  0
LINE
  8
0
 62
     0
 10
2.28617
 20
133.664
 30
0.0
 11
2.14285
 21
133.387
 31
0.0
  0
LINE
  8
0
 62
     0
 10
2.14285
 20
133.387
 30
0.0
 11
2.096
 21
133.077
 31
0.0
  0
LINE
  8
0
 62
     0
 10
2.096
 20
133.077
 30
0.0
 11
2.14285
 21
132.767
 31
0.0
  0
LINE
  8
0
 62
     0
 10
2.14285
 20
132.767
 30
0.0
 11
2.28617
 21
132.49
 31
0.0
  0
LINE
  8
0
 62
     0
 10
2.28617
 20
132.49
 30
0.0
 11
2.50803
 21
132.268
 31
0.0
  0
LINE
  8
0
 62
     0
 10
2.50803
 20
132.268
 30
0.0
 11
2.78501
 21
132.126
 31
0.0
  0
LINE
  8
0
 62
     0
 10
2.78501
 20
132.126
 30
0.0
 11
3.09507
 21
132.078
 31
0.0
  0
LINE
  8
0
 62
     0
 10
3.09507
 20
132.078
 30
0.0
 11
3.40513
 21
132.126
 31
0.0
  0
LINE
  8
0
 62
     0
 10
3.40513
 20
132.126
 30
0.0
 11
3.68212
 21
132.268
 31
0.0
  0
LINE
  8
0
 62
     0
 10
3.68212
 20
132.268
 30
0.0
 11
3.90398
 21
132.49
 31
0.0
  0
LINE
  8
0
 62
     0
 10
3.90398
 20
132.49
 30
0.0
 11
4.04594
 21
132.767
 31
0.0
  0
LINE
  8
0
 62
     0
 10
4.04594
 20
132.767
 30
0.0
 11
4.09554
 21
133.077
 31
0.0
  0
LINE
  8
0
 62
     0
 10
4.09554
 20
133.077
 30
0.0
 11
4.04594
 21
133.387
 31
0.0
  0
LINE
  8
0
 62
     0
 10
4.04594
 20
133.387
 30
0.0
 11
3.90398
 21
133.664
 31
0.0
  0
LINE
  8
0
 62
     0
 10
3.90398
 20
133.664
 30
0.0
 11
3.68212
 21
133.886
 31
0.0
  0
LINE
  8
0
 62
     0
 10
3.68212
 20
133.886
 30
0.0
 11
3.40513
 21
134.029
 31
0.0
  0
LINE
  8
0
 62
     0
 10
3.40513
 20
134.029
 30
0.0
 11
3.09507
 21
134.078
 31
0.0
  0
LINE
  8
0
 62
     0
 10
3.09507
 20
134.078
 30
0.0
 11
2.78501
 21
134.029
 31
0.0
  0
ENDSEC
  0
EOF
