M48
; DRILL file {KiCad (5.1.9)-1} date 03/18/21 12:12:13
; FORMAT={-:-/ absolute / metric / decimal}
; #@! TF.CreationDate,2021-03-18T12:12:13+08:00
; #@! TF.GenerationSoftware,Kicad,Pcbnew,(5.1.9)-1
; #@! TF.FileFunction,NonPlated,1,2,NPTH
FMAT,2
METRIC
T1C1.750
T2C3.048
T3C3.988
%
G90
G05
T1
X59.214Y-90.487
X59.214Y-114.3
X61.595Y-152.4
X61.595Y-190.5
X63.976Y-133.35
X63.976Y-190.5
X66.358Y-152.4
X69.374Y-90.487
X69.374Y-114.3
X71.12Y-171.45
X71.755Y-152.4
X71.755Y-190.5
X74.136Y-133.35
X74.136Y-190.5
X76.517Y-152.4
X78.264Y-114.3
X81.28Y-171.45
X85.407Y-190.5
X87.789Y-90.487
X87.789Y-133.35
X87.789Y-190.5
X88.424Y-114.3
X92.551Y-152.4
X95.567Y-190.5
X97.314Y-114.3
X97.949Y-90.487
X97.949Y-133.35
X97.949Y-190.5
X102.076Y-171.45
X102.711Y-152.4
X106.839Y-90.487
X106.839Y-133.35
X107.474Y-114.3
X109.22Y-190.5
X111.601Y-152.4
X111.601Y-190.5
X112.236Y-171.45
X116.364Y-114.3
X116.999Y-90.487
X116.999Y-133.35
X119.38Y-190.5
X121.126Y-171.45
X121.761Y-152.4
X121.761Y-190.5
X125.889Y-90.487
X125.889Y-133.35
X126.524Y-114.3
X130.651Y-152.4
X131.286Y-171.45
X135.414Y-114.3
X136.049Y-90.487
X136.049Y-133.35
X140.176Y-171.45
X140.811Y-152.4
X144.939Y-90.487
X144.939Y-133.35
X145.574Y-114.3
X149.701Y-152.4
X150.336Y-171.45
X154.464Y-114.3
X155.099Y-90.487
X155.099Y-133.35
X159.226Y-171.45
X159.861Y-152.4
X163.989Y-133.35
X164.624Y-114.3
X168.751Y-152.4
X169.386Y-171.45
X173.514Y-90.487
X173.514Y-114.3
X174.149Y-133.35
X178.276Y-171.45
X178.911Y-152.4
X180.657Y-190.5
X183.039Y-133.35
X183.674Y-90.487
X183.674Y-114.3
X187.801Y-152.4
X188.436Y-171.45
X190.817Y-190.5
X192.564Y-90.487
X192.564Y-114.3
X192.564Y-190.5
X193.199Y-133.35
X197.326Y-171.45
X197.961Y-152.4
X202.089Y-133.35
X202.724Y-90.487
X202.724Y-114.3
X202.724Y-190.5
X206.851Y-152.4
X207.486Y-171.45
X211.614Y-90.487
X211.614Y-114.3
X212.249Y-133.35
X216.376Y-171.45
X217.011Y-152.4
X221.139Y-133.35
X221.774Y-90.487
X221.774Y-114.3
X225.901Y-152.4
X226.536Y-171.45
X230.664Y-90.487
X230.664Y-114.3
X231.299Y-133.35
X235.426Y-171.45
X236.061Y-152.4
X240.189Y-133.35
X240.824Y-90.487
X240.824Y-114.3
X244.951Y-152.4
X245.586Y-171.45
X249.714Y-114.3
X250.349Y-133.35
X252.095Y-190.5
X254.476Y-171.45
X255.111Y-152.4
X259.239Y-90.487
X259.239Y-133.35
X259.874Y-114.3
X262.255Y-190.5
X264.001Y-152.4
X264.636Y-171.45
X268.764Y-114.3
X269.399Y-90.487
X269.399Y-133.35
X273.526Y-171.45
X273.526Y-190.5
X274.161Y-152.4
X275.907Y-190.5
X278.289Y-90.487
X278.289Y-133.35
X278.924Y-114.3
X283.051Y-152.4
X283.686Y-171.45
X283.686Y-190.5
X286.067Y-190.5
X287.814Y-114.3
X288.449Y-90.487
X288.449Y-133.35
X293.211Y-152.4
X297.339Y-90.487
X297.339Y-133.35
X297.974Y-114.3
X299.72Y-171.45
X306.864Y-190.5
X307.499Y-90.487
X307.499Y-133.35
X309.88Y-171.45
X314.007Y-152.4
X316.389Y-90.487
X316.389Y-114.3
X317.024Y-190.5
X321.151Y-133.35
X324.167Y-152.4
X325.914Y-171.45
X325.914Y-190.5
X326.549Y-90.487
X326.549Y-114.3
X331.311Y-133.35
X336.074Y-171.45
X336.074Y-190.5
X344.964Y-90.487
X344.964Y-114.3
X344.964Y-133.35
X344.964Y-152.4
X344.964Y-171.45
X344.964Y-190.5
X355.124Y-90.487
X355.124Y-114.3
X355.124Y-133.35
X355.124Y-152.4
X355.124Y-171.45
X355.124Y-190.5
T2
X64.294Y-164.465
X88.106Y-164.465
X135.738Y-197.485
X140.494Y-197.485
X235.737Y-197.485
X254.794Y-197.485
X307.181Y-145.415
X309.562Y-107.315
X330.994Y-145.415
X333.375Y-107.315
T3
X64.294Y-90.487
X64.294Y-114.3
X64.294Y-179.705
X66.675Y-152.4
X66.675Y-190.5
X69.056Y-133.35
X69.056Y-190.5
X71.438Y-152.4
X76.2Y-171.45
X83.344Y-114.3
X88.106Y-179.705
X90.487Y-190.5
X92.869Y-90.487
X92.869Y-133.35
X92.869Y-190.5
X97.631Y-152.4
X102.394Y-114.3
X107.156Y-171.45
X111.919Y-90.487
X111.919Y-133.35
X114.3Y-190.5
X116.681Y-152.4
X116.681Y-190.5
X121.444Y-114.3
X126.206Y-171.45
X130.969Y-90.487
X130.969Y-133.35
X135.731Y-152.4
X135.738Y-182.245
X140.494Y-114.3
X140.494Y-182.245
X145.256Y-171.45
X150.019Y-90.487
X150.019Y-133.35
X154.781Y-152.4
X159.544Y-114.3
X164.306Y-171.45
X169.069Y-133.35
X173.831Y-152.4
X178.594Y-90.487
X178.594Y-114.3
X183.356Y-171.45
X185.737Y-190.5
X188.119Y-133.35
X192.881Y-152.4
X197.644Y-90.487
X197.644Y-114.3
X197.644Y-190.5
X202.406Y-171.45
X207.169Y-133.35
X211.931Y-152.4
X216.694Y-90.487
X216.694Y-114.3
X221.456Y-171.45
X226.219Y-133.35
X230.981Y-152.4
X235.737Y-182.245
X235.744Y-90.487
X235.744Y-114.3
X240.506Y-171.45
X245.269Y-133.35
X250.031Y-152.4
X254.794Y-114.3
X254.794Y-182.245
X257.175Y-190.5
X259.556Y-171.45
X264.319Y-90.487
X264.319Y-133.35
X269.081Y-152.4
X273.844Y-114.3
X278.606Y-171.45
X278.606Y-190.5
X280.988Y-190.5
X283.369Y-90.487
X283.369Y-133.35
X288.131Y-152.4
X292.894Y-114.3
X302.419Y-90.487
X302.419Y-133.35
X304.8Y-171.45
X307.181Y-160.655
X309.562Y-122.555
X311.944Y-190.5
X319.087Y-152.4
X321.469Y-90.487
X321.469Y-114.3
X326.231Y-133.35
X330.994Y-160.655
X330.994Y-171.45
X330.994Y-190.5
X333.375Y-122.555
X350.044Y-90.487
X350.044Y-114.3
X350.044Y-133.35
X350.044Y-152.4
X350.044Y-171.45
X350.044Y-190.5
T0
M30
