M48
; DRILL file {KiCad (5.1.9)-1} date 03/19/21 09:16:19
; FORMAT={-:-/ absolute / metric / decimal}
; #@! TF.CreationDate,2021-03-19T09:16:19+08:00
; #@! TF.GenerationSoftware,Kicad,Pcbnew,(5.1.9)-1
; #@! TF.FileFunction,Plated,1,2,PTH
FMAT,2
METRIC
T1C0.300
T2C0.400
T3C0.800
T4C0.850
T5C1.000
T6C1.470
%
G90
G05
T1
X146.879Y-194.541
X148.149Y-194.541
X149.419Y-194.541
X150.689Y-194.541
X151.959Y-194.541
X153.229Y-194.541
X154.499Y-194.541
X155.769Y-194.541
X158.309Y-186.667
X158.309Y-187.937
X158.309Y-189.207
X158.309Y-190.477
X158.309Y-191.747
X158.309Y-193.017
X158.309Y-194.287
T2
X146.371Y-183.071
X148.911Y-183.071
X150.181Y-183.071
X151.451Y-185.498
X152.323Y-197.943
X152.721Y-183.071
X153.991Y-183.071
X155.261Y-183.071
X155.448Y-192.151
X156.531Y-183.071
X157.801Y-183.071
X163.346Y-193.66
X163.347Y-192.177
X164.465Y-187.325
X167.259Y-189.23
X168.402Y-192.659
X169.545Y-192.659
X171.958Y-192.659
X172.62Y-187.829
X173.355Y-192.659
X173.482Y-195.199
X174.752Y-185.085
X175.387Y-192.659
X179.546Y-178.712
X214.554Y-190.912
X255.714Y-175.768
X274.796Y-176.18
X300.99Y-176.997
X327.184Y-177.402
X334.137Y-105.283
X346.234Y-178.214
T3
X215.654Y-188.437
X217.654Y-188.437
X219.654Y-188.437
T4
X146.681Y-190.5
X149.221Y-190.5
X151.761Y-190.5
X154.301Y-190.5
T5
X347.544Y-83.237
X347.544Y-97.737
X350.044Y-97.737
X352.544Y-83.237
X352.544Y-97.737
T6
X60.484Y-87.947
X60.484Y-111.76
X62.865Y-149.86
X62.865Y-187.96
X65.246Y-130.81
X65.246Y-187.96
X66.834Y-85.407
X66.834Y-109.22
X67.627Y-149.86
X69.215Y-147.32
X69.215Y-185.42
X71.596Y-128.27
X71.596Y-185.42
X72.39Y-168.91
X73.977Y-147.32
X78.74Y-166.37
X79.534Y-111.76
X85.884Y-109.22
X86.677Y-187.96
X89.059Y-87.947
X89.059Y-130.81
X89.059Y-187.96
X93.027Y-185.42
X93.821Y-149.86
X95.409Y-85.407
X95.409Y-128.27
X95.409Y-185.42
X98.584Y-111.76
X100.171Y-147.32
X103.346Y-168.91
X104.934Y-109.22
X108.109Y-87.947
X108.109Y-130.81
X109.696Y-166.37
X110.49Y-187.96
X112.871Y-149.86
X112.871Y-187.96
X114.459Y-85.407
X114.459Y-128.27
X116.84Y-185.42
X117.634Y-111.76
X119.221Y-147.32
X119.221Y-185.42
X122.396Y-168.91
X123.984Y-109.22
X127.159Y-87.947
X127.159Y-130.81
X128.746Y-166.37
X131.921Y-149.86
X133.509Y-85.407
X133.509Y-128.27
X136.684Y-111.76
X138.271Y-147.32
X141.446Y-168.91
X143.034Y-109.22
X146.209Y-87.947
X146.209Y-130.81
X147.796Y-166.37
X150.971Y-149.86
X152.559Y-85.407
X152.559Y-128.27
X155.734Y-111.76
X157.321Y-147.32
X160.496Y-168.91
X162.084Y-109.22
X165.259Y-130.81
X166.846Y-166.37
X170.021Y-149.86
X171.609Y-128.27
X174.784Y-87.947
X174.784Y-111.76
X176.371Y-147.32
X179.546Y-168.91
X181.134Y-85.407
X181.134Y-109.22
X181.927Y-187.96
X184.309Y-130.81
X185.896Y-166.37
X188.278Y-185.42
X189.071Y-149.86
X190.659Y-128.27
X193.834Y-87.947
X193.834Y-111.76
X193.834Y-187.96
X195.421Y-147.32
X198.596Y-168.91
X200.184Y-85.407
X200.184Y-109.22
X200.184Y-185.42
X203.359Y-130.81
X204.946Y-166.37
X208.121Y-149.86
X209.709Y-128.27
X212.884Y-87.947
X212.884Y-111.76
X214.471Y-147.32
X217.646Y-168.91
X219.234Y-85.407
X219.234Y-109.22
X222.409Y-130.81
X223.996Y-166.37
X227.171Y-149.86
X228.759Y-128.27
X231.934Y-87.947
X231.934Y-111.76
X233.521Y-147.32
X236.696Y-168.91
X238.284Y-85.407
X238.284Y-109.22
X241.459Y-130.81
X243.046Y-166.37
X246.221Y-149.86
X247.809Y-128.27
X250.984Y-111.76
X252.571Y-147.32
X253.365Y-187.96
X255.746Y-168.91
X257.334Y-109.22
X259.715Y-185.42
X260.509Y-87.947
X260.509Y-130.81
X262.096Y-166.37
X265.271Y-149.86
X266.859Y-85.407
X266.859Y-128.27
X270.034Y-111.76
X271.621Y-147.32
X274.796Y-168.91
X274.796Y-187.96
X276.384Y-109.22
X277.178Y-187.96
X279.559Y-87.947
X279.559Y-130.81
X281.146Y-166.37
X281.146Y-185.42
X283.527Y-185.42
X284.321Y-149.86
X285.909Y-85.407
X285.909Y-128.27
X289.084Y-111.76
X290.671Y-147.32
X295.434Y-109.22
X298.609Y-87.947
X298.609Y-130.81
X300.99Y-168.91
X304.959Y-85.407
X304.959Y-128.27
X307.34Y-166.37
X308.134Y-187.96
X314.484Y-185.42
X315.277Y-149.86
X317.659Y-87.947
X317.659Y-111.76
X321.627Y-147.32
X322.421Y-130.81
X324.009Y-85.407
X324.009Y-109.22
X327.184Y-168.91
X327.184Y-187.96
X328.771Y-128.27
X333.534Y-166.37
X333.534Y-185.42
X346.234Y-87.947
X346.234Y-111.76
X346.234Y-130.81
X346.234Y-149.86
X346.234Y-168.91
X346.234Y-187.96
X352.584Y-85.407
X352.584Y-109.22
X352.584Y-128.27
X352.584Y-147.32
X352.584Y-166.37
X352.584Y-185.42
T0
M30
